<?xml version="1.0" encoding="utf-8"?>
<!-- Generator: Adobe Illustrator 16.0.0, SVG Export Plug-In . SVG Version: 6.00 Build 0)  -->
<!DOCTYPE svg PUBLIC "-//W3C//DTD SVG 1.1//EN" "http://www.w3.org/Graphics/SVG/1.1/DTD/svg11.dtd">
<svg version="1.1" xmlns="http://www.w3.org/2000/svg" xmlns:xlink="http://www.w3.org/1999/xlink" x="0px" y="0px"
	 width="172.278px" height="174.782px" viewBox="0 0 172.278 174.782" enable-background="new 0 0 172.278 174.782"
	 xml:space="preserve">
<g id="Layer_1">
	<g>
		<g>
			<polygon fill="#4098D3" points="10.385,52.311 161.893,52.311 86.139,2.764 			"/>
		</g>
		<g>
			<path fill="#4098D3" d="M35.973,135.257c-2.485,0-4.5-2.014-4.5-4.5V68.754c0-2.485,2.015-4.5,4.5-4.5s4.5,2.015,4.5,4.5v62.003
				C40.473,133.244,38.458,135.257,35.973,135.257z"/>
		</g>
		<g>
			<path fill="#4098D3" d="M69.473,135.257c-2.485,0-4.5-2.014-4.5-4.5V68.754c0-2.485,2.015-4.5,4.5-4.5s4.5,2.015,4.5,4.5v62.003
				C73.973,133.244,71.958,135.257,69.473,135.257z"/>
		</g>
		<g>
			<path fill="#4098D3" d="M102.973,135.257c-2.484,0-4.5-2.014-4.5-4.5V68.754c0-2.485,2.016-4.5,4.5-4.5
				c2.486,0,4.5,2.015,4.5,4.5v62.003C107.473,133.244,105.459,135.257,102.973,135.257z"/>
		</g>
		<g>
			<path fill="#4098D3" d="M161.893,157.732H10.385c-2.485,0-4.5-2.016-4.5-4.5c0-2.486,2.015-4.5,4.5-4.5h151.507
				c2.486,0,4.5,2.014,4.5,4.5C166.393,155.716,164.379,157.732,161.893,157.732z"/>
		</g>
		<g>
			<path fill="#4098D3" d="M161.893,172.017H10.385c-2.485,0-4.5-2.016-4.5-4.5c0-2.486,2.015-4.5,4.5-4.5h151.507
				c2.486,0,4.5,2.014,4.5,4.5C166.393,170.001,164.379,172.017,161.893,172.017z"/>
		</g>
		<g>
			<path fill="#4098D3" d="M136.473,135.257c-2.484,0-4.5-2.014-4.5-4.5V68.754c0-2.485,2.016-4.5,4.5-4.5
				c2.486,0,4.5,2.015,4.5,4.5v62.003C140.973,133.244,138.959,135.257,136.473,135.257z"/>
		</g>
	</g>
</g>
<g id="Layer_2">
</g>
</svg>
