<?xml version="1.0" encoding="utf-8"?>
<!-- Generator: Adobe Illustrator 16.0.0, SVG Export Plug-In . SVG Version: 6.00 Build 0)  -->
<!DOCTYPE svg PUBLIC "-//W3C//DTD SVG 1.1//EN" "http://www.w3.org/Graphics/SVG/1.1/DTD/svg11.dtd">
<svg version="1.1" xmlns="http://www.w3.org/2000/svg" xmlns:xlink="http://www.w3.org/1999/xlink" x="0px" y="0px"
	 width="172.278px" height="174.782px" viewBox="0 0 172.278 174.782" enable-background="new 0 0 172.278 174.782"
	 xml:space="preserve">
<g id="Layer_1">
	<g>
		<g>
			<path fill="#4098D3" d="M48.096,169.349c-6.543,0-11.865-5.318-11.865-11.855v-28.492H24.012C10.771,129.001,0,118.234,0,104.996
				V29.431C0,16.198,10.771,5.433,24.012,5.433h124.254c13.238,0,24.011,10.765,24.013,23.997v75.566
				c0,13.238-10.771,24.006-24.012,24.006H93.27l-36.686,36.793c-0.058,0.057-0.117,0.113-0.179,0.168
				C54.18,168.15,51.241,169.349,48.096,169.349z M24.012,14.433C15.734,14.433,9,21.161,9,29.431v75.565
				c0,8.275,6.734,15.006,15.012,15.006H40.73c2.485,0,4.5,2.016,4.5,4.5v32.992c0,1.574,1.285,2.855,2.865,2.855
				c0.789,0,1.52-0.307,2.059-0.863c0.073-0.076,0.149-0.148,0.228-0.219l37.833-37.943c0.844-0.846,1.991-1.322,3.187-1.322h56.865
				c8.277,0,15.012-6.73,15.012-15.006V29.431c-0.002-8.27-6.736-14.998-15.013-14.998H24.012z"/>
		</g>
		<g>
			<path fill="#4098D3" d="M49.223,76.72c-5.4,0-9.781-4.382-9.781-9.78c0-5.4,4.381-9.781,9.781-9.781
				c5.398,0,9.781,4.381,9.781,9.781C59.004,72.337,54.621,76.72,49.223,76.72z"/>
		</g>
		<g>
			<path fill="#4098D3" d="M87.312,76.72c-5.399,0-9.775-4.382-9.775-9.78c0-5.4,4.376-9.781,9.775-9.781
				c5.398,0,9.776,4.381,9.776,9.781C97.088,72.337,92.71,76.72,87.312,76.72z"/>
		</g>
		<g>
			<path fill="#4098D3" d="M125.95,76.72c-5.399,0-9.781-4.382-9.781-9.78c0-5.4,4.382-9.781,9.781-9.781s9.781,4.381,9.781,9.781
				C135.731,72.337,131.35,76.72,125.95,76.72z"/>
		</g>
	</g>
</g>
<g id="Layer_2">
</g>
</svg>
