<?xml version="1.0" encoding="utf-8"?>
<!-- Generator: Adobe Illustrator 16.0.0, SVG Export Plug-In . SVG Version: 6.00 Build 0)  -->
<!DOCTYPE svg PUBLIC "-//W3C//DTD SVG 1.1//EN" "http://www.w3.org/Graphics/SVG/1.1/DTD/svg11.dtd">
<svg version="1.1" xmlns="http://www.w3.org/2000/svg" xmlns:xlink="http://www.w3.org/1999/xlink" x="0px" y="0px"
	 width="172.278px" height="174.782px" viewBox="0 0 172.278 174.782" enable-background="new 0 0 172.278 174.782"
	 xml:space="preserve">
<g id="Layer_1">
	<g>
		<g>
			<path fill="#4098D3" d="M86.139,86.654c-13.551,0-24.545-10.996-24.545-24.543c0-13.552,10.994-24.545,24.545-24.545
				c13.546,0,24.544,10.993,24.544,24.545C110.684,75.656,99.686,86.654,86.139,86.654z"/>
		</g>
		<g>
			<path fill="#4098D3" d="M11.869,43.117c-5.4,0-9.781-4.381-9.781-9.779c0-5.4,4.381-9.781,9.781-9.781
				c5.398,0,9.781,4.381,9.781,9.781C21.65,38.734,17.267,43.117,11.869,43.117z"/>
		</g>
		<g>
			<path fill="#4098D3" d="M11.869,100.408c-5.4,0-9.781-4.381-9.781-9.779c0-5.4,4.381-9.781,9.781-9.781
				c5.398,0,9.781,4.381,9.781,9.781C21.65,96.025,17.267,100.408,11.869,100.408z"/>
		</g>
		<g>
			<path fill="#4098D3" d="M160.428,43.117c-5.4,0-9.781-4.381-9.781-9.779c0-5.4,4.381-9.781,9.781-9.781
				c5.398,0,9.781,4.381,9.781,9.781C170.209,38.734,165.826,43.117,160.428,43.117z"/>
		</g>
		<g>
			<path fill="#4098D3" d="M160.428,100.408c-5.4,0-9.781-4.381-9.781-9.779c0-5.4,4.381-9.781,9.781-9.781
				c5.398,0,9.781,4.381,9.781,9.781C170.209,96.025,165.826,100.408,160.428,100.408z"/>
		</g>
		<g>
			<path fill="#4098D3" d="M165.807,100.777H6.472c-2.485,0-4.5-2.015-4.5-4.5V27.941c0-2.485,2.015-4.5,4.5-4.5h159.334
				c2.484,0,4.5,2.015,4.5,4.5v68.336C170.307,98.762,168.291,100.777,165.807,100.777z M10.972,91.777h150.334V32.441H10.972
				V91.777z"/>
		</g>
		<g>
			<path fill="#4098D3" d="M165.807,115.679H6.472c-2.485,0-4.5-2.014-4.5-4.5c0-2.485,2.015-4.5,4.5-4.5h159.334
				c2.484,0,4.5,2.015,4.5,4.5C170.307,113.666,168.291,115.679,165.807,115.679z"/>
		</g>
		<g>
			<path fill="#4098D3" d="M165.807,133.509H6.472c-2.485,0-4.5-2.014-4.5-4.5c0-2.484,2.015-4.5,4.5-4.5h159.334
				c2.484,0,4.5,2.016,4.5,4.5C170.307,131.496,168.291,133.509,165.807,133.509z"/>
		</g>
		<g>
			<path fill="#4098D3" d="M165.807,151.341H6.472c-2.485,0-4.5-2.016-4.5-4.5c0-2.486,2.015-4.5,4.5-4.5h159.334
				c2.484,0,4.5,2.014,4.5,4.5C170.307,149.326,168.291,151.341,165.807,151.341z"/>
		</g>
	</g>
</g>
<g id="Layer_2">
</g>
</svg>
