<?xml version="1.0" encoding="utf-8"?>
<!-- Generator: Adobe Illustrator 16.0.0, SVG Export Plug-In . SVG Version: 6.00 Build 0)  -->
<!DOCTYPE svg PUBLIC "-//W3C//DTD SVG 1.1//EN" "http://www.w3.org/Graphics/SVG/1.1/DTD/svg11.dtd">
<svg version="1.1" xmlns="http://www.w3.org/2000/svg" xmlns:xlink="http://www.w3.org/1999/xlink" x="0px" y="0px"
	 width="172.278px" height="174.782px" viewBox="0 0 172.278 174.782" enable-background="new 0 0 172.278 174.782"
	 xml:space="preserve">
<g id="Layer_1">
	<g>
		<g>
			<path fill="#4098D3" d="M126.445,64.155c-9.743,0-18.697-4.892-23.953-13.084c-8.461-13.196-4.61-30.815,8.584-39.276
				c4.592-2.945,9.891-4.502,15.324-4.502c9.744,0,18.697,4.892,23.952,13.086c8.462,13.195,4.611,30.814-8.583,39.275
				C137.178,62.599,131.879,64.155,126.445,64.155z M126.4,16.293c-3.707,0-7.326,1.064-10.465,3.078
				c-9.018,5.782-11.648,17.823-5.867,26.842c3.592,5.6,9.715,8.942,16.377,8.942c3.708,0,7.326-1.063,10.466-3.077
				c9.017-5.782,11.647-17.823,5.865-26.842C139.186,19.637,133.063,16.293,126.4,16.293z"/>
		</g>
		<g>
			<path fill="#4098D3" d="M45.879,115.823c-9.744,0-18.699-4.893-23.953-13.086c-8.461-13.193-4.611-30.812,8.583-39.276
				c4.592-2.944,9.891-4.5,15.324-4.5c9.744,0,18.698,4.891,23.953,13.083c8.461,13.195,4.612,30.816-8.582,39.279
				C56.611,114.266,51.312,115.823,45.879,115.823z M45.833,67.961c-3.708,0-7.326,1.063-10.465,3.076
				c-9.017,5.784-11.648,17.825-5.866,26.84c3.591,5.602,9.713,8.945,16.377,8.945c3.708,0,7.327-1.064,10.466-3.076
				c9.016-5.783,11.647-17.826,5.864-26.844C58.618,71.304,52.496,67.961,45.833,67.961z"/>
		</g>
		<g>
			
				<rect x="81.647" y="37.616" transform="matrix(0.5398 0.8418 -0.8418 0.5398 91.4576 -44.1913)" fill="#4098D3" width="9" height="47.873"/>
		</g>
		<g>
			<path fill="#4098D3" d="M126.4,167.489C126.399,167.489,126.4,167.489,126.4,167.489c-5.435,0-10.733-1.557-15.324-4.5
				c-6.393-4.1-10.805-10.441-12.426-17.859c-1.621-7.42-0.256-15.025,3.843-21.416c5.255-8.193,14.209-13.086,23.952-13.086
				c5.434,0,10.732,1.557,15.324,4.502c13.193,8.461,17.045,26.08,8.583,39.275C145.098,162.598,136.143,167.489,126.4,167.489z
				 M126.445,119.627c-6.662,0-12.785,3.344-16.376,8.943c-2.802,4.369-3.734,9.566-2.626,14.637
				c1.107,5.068,4.123,9.404,8.49,12.205c3.139,2.012,6.758,3.076,10.466,3.076c6.663,0,12.786-3.342,16.377-8.943
				c5.782-9.018,3.151-21.059-5.866-26.84C133.771,120.692,130.153,119.627,126.445,119.627z"/>
		</g>
		<g>
			
				<rect x="62.195" y="108.72" transform="matrix(0.8418 0.5398 -0.5398 0.8418 74.7489 -28.5821)" fill="#4098D3" width="47.873" height="9"/>
		</g>
	</g>
</g>
<g id="Layer_2">
</g>
</svg>
