<?xml version="1.0" encoding="utf-8"?>
<!-- Generator: Adobe Illustrator 16.0.0, SVG Export Plug-In . SVG Version: 6.00 Build 0)  -->
<!DOCTYPE svg PUBLIC "-//W3C//DTD SVG 1.1//EN" "http://www.w3.org/Graphics/SVG/1.1/DTD/svg11.dtd">
<svg version="1.1" xmlns="http://www.w3.org/2000/svg" xmlns:xlink="http://www.w3.org/1999/xlink" x="0px" y="0px"
	 width="172.278px" height="174.782px" viewBox="0 0 172.278 174.782" enable-background="new 0 0 172.278 174.782"
	 xml:space="preserve">
<g id="Layer_1">
	<g>
		<g>
			<path fill="#4098D3" d="M141.398,158.849c-8.23,0-16.58-5.889-16.615-17.146v-9.285H47.388v9.271
				c0.002,6.543-2.826,10.559-5.199,12.775c-3.028,2.828-7.062,4.385-11.359,4.385c-4.411,0-8.655-1.719-11.645-4.713
				c-3.142-3.148-4.797-7.455-4.787-12.455v-9.264H6.091c-2.485,0-4.5-2.016-4.5-4.5V84.77
				c-0.017-12.315,8.485-19.935,15.575-22.225L29.44,30.862c3.688-9.576,11.553-14.881,22.142-14.93h68.987
				c10.678,0.049,18.545,5.363,22.176,14.963L155,62.542c7.104,2.283,15.645,9.893,15.688,22.213v43.163c0,2.484-2.016,4.5-4.5,4.5
				h-8.307v9.271C157.869,152.957,149.58,158.849,141.398,158.849z M42.888,123.417h86.395c2.484,0,4.5,2.014,4.5,4.5v13.771
				c0.018,6.02,4.113,8.16,7.615,8.16c3.447,0,7.477-2.139,7.482-8.164v-13.768c0-2.486,2.014-4.5,4.5-4.5h8.307V84.77
				c-0.012-3.214-2.643-12.916-10.6-13.933c-1.637-0.209-3.029-1.299-3.625-2.839l-13.125-33.887
				c-2.295-6.07-6.932-9.148-13.791-9.18H51.602c-6.892,0.032-11.401,3.032-13.767,9.172L24.706,68
				c-0.596,1.537-1.985,2.626-3.621,2.837c-2.693,0.348-10.506,4.45-10.493,13.928v38.653h8.307c2.485,0,4.5,2.014,4.5,4.5v13.771
				c-0.005,2.604,0.721,4.65,2.157,6.088c1.313,1.316,3.236,2.072,5.274,2.072c1.979,0,3.881-0.715,5.217-1.963
				c1.555-1.453,2.343-3.537,2.342-6.195v-13.773C38.388,125.431,40.403,123.417,42.888,123.417z"/>
		</g>
		<g>
			<path fill="#4098D3" d="M86.139,66.055h-0.106H34.173l9.898-26.686c1.193-3.787,3.047-6.498,7.426-6.562h34.535h0.106h34.646
				c4.311,0.064,6.17,2.773,7.422,6.562l9.898,26.686H86.139z"/>
		</g>
		<g>
			<path fill="#4098D3" d="M31.389,101.252c-5.4,0-9.781-4.381-9.781-9.781c0-5.398,4.381-9.781,9.781-9.781
				c5.398,0,9.781,4.383,9.781,9.781S36.788,101.252,31.389,101.252z"/>
		</g>
		<g>
			<path fill="#4098D3" d="M140.889,101.252c-5.4,0-9.781-4.381-9.781-9.781c0-5.398,4.381-9.781,9.781-9.781
				c5.398,0,9.781,4.383,9.781,9.781S146.287,101.252,140.889,101.252z"/>
		</g>
	</g>
</g>
<g id="Layer_2">
</g>
</svg>
