<?xml version="1.0" standalone="no"?><!DOCTYPE svg PUBLIC "-//W3C//DTD SVG 1.1//EN" "http://www.w3.org/Graphics/SVG/1.1/DTD/svg11.dtd"><svg width="100%" height="100%" viewBox="0 0 440 150" version="1.1" xmlns="http://www.w3.org/2000/svg" xmlns:xlink="http://www.w3.org/1999/xlink" xml:space="preserve" style="fill-rule:evenodd;clip-rule:evenodd;stroke-linejoin:round;stroke-miterlimit:1.41421;"><g><g><circle cx="46.964" cy="52.085" r="36.201" style="fill:#4ddfc6;"/></g><path d="M53.067,43.503c0,-1.068 -0.866,-1.934 -1.933,-1.934l-8.341,0c-1.067,0 -1.933,0.866 -1.933,1.934l0,33.534c0,1.067 0.866,1.933 1.933,1.933l8.341,0c1.067,0 1.933,-0.866 1.933,-1.933l0,-33.534Z" style="fill:#fff;"/><path d="M46.964,23.568c3.868,0 7.009,3.141 7.009,7.009c0,3.869 -3.141,7.009 -7.009,7.009c-3.869,0 -7.01,-3.14 -7.01,-7.009c0,-3.868 3.141,-7.009 7.01,-7.009ZM46.964,32.379c1.086,0 1.968,0.882 1.968,1.969c0,1.086 -0.882,1.968 -1.968,1.968c-1.087,0 -1.969,-0.882 -1.969,-1.968c0,-1.087 0.882,-1.969 1.969,-1.969ZM44.522,28.561c0.732,0 1.326,0.594 1.326,1.326c0,0.732 -0.594,1.326 -1.326,1.326c-0.732,0 -1.326,-0.594 -1.326,-1.326c0,-0.732 0.594,-1.326 1.326,-1.326ZM49.405,28.561c0.732,0 1.326,0.594 1.326,1.326c0,0.732 -0.594,1.326 -1.326,1.326c-0.732,0 -1.326,-0.594 -1.326,-1.326c0,-0.732 0.594,-1.326 1.326,-1.326Z" style="fill:#fff;"/></g><g><g><path d="M146.472,16.47c0,-1.629 0.204,-2.648 0.611,-3.055c0.407,-0.408 1.197,-0.611 2.368,-0.611c1.12,0 1.922,0.28 2.406,0.84c0.484,0.56 0.726,1.502 0.726,2.826c0,3.005 0.076,6.098 0.229,9.281c0.153,3.183 0.407,6.48 0.764,9.892l23.145,0c1.12,0 1.845,0.254 2.176,0.764c0.331,0.509 0.497,1.196 0.497,2.062c0,1.019 -0.166,1.77 -0.497,2.253c-0.331,0.484 -1.056,0.726 -2.176,0.726l-22.381,0c0.458,2.852 1.044,5.627 1.757,8.326c0.712,2.699 1.502,5.296 2.367,7.791c1.324,-2.037 2.458,-4.048 3.4,-6.034c0.942,-1.986 1.795,-4.176 2.558,-6.569c0.357,-1.07 0.866,-1.872 1.528,-2.406c0.662,-0.535 1.502,-0.65 2.521,-0.344c1.069,0.407 1.706,0.993 1.91,1.757c0.203,0.764 0.101,1.731 -0.306,2.902c-1.12,3.209 -2.355,6.162 -3.705,8.861c-1.349,2.699 -3.119,5.474 -5.308,8.326c1.171,2.597 2.482,5.08 3.933,7.448c1.452,2.368 2.814,4.366 4.087,5.996c0.306,0.407 0.662,0.573 1.069,0.496c0.408,-0.076 0.815,-0.725 1.223,-1.947c0.101,-0.459 0.229,-1.019 0.381,-1.681c0.153,-0.662 0.293,-1.349 0.421,-2.062c0.127,-0.713 0.254,-1.439 0.382,-2.177c0.127,-0.739 0.216,-1.388 0.267,-1.948c0.102,-1.426 0.382,-2.317 0.84,-2.674c0.458,-0.356 1.273,-0.458 2.444,-0.305c1.681,0.305 2.521,1.273 2.521,2.903c0,0.916 -0.102,2.113 -0.305,3.59c-0.204,1.476 -0.484,2.966 -0.841,4.468c-0.356,1.502 -0.763,2.903 -1.222,4.201c-0.458,1.299 -0.891,2.203 -1.298,2.712c-1.273,1.731 -2.801,2.597 -4.583,2.597c-1.375,0 -2.623,-0.56 -3.743,-1.68c-1.783,-1.884 -3.54,-4.074 -5.271,-6.569c-1.731,-2.496 -3.335,-5.271 -4.812,-8.326c-2.292,2.291 -4.876,4.443 -7.753,6.454c-2.877,2.012 -5.895,3.832 -9.052,5.462c-1.477,0.713 -2.546,1.031 -3.208,0.955c-0.662,-0.077 -1.197,-0.421 -1.604,-1.032c-0.662,-1.12 -0.879,-2.049 -0.649,-2.788c0.229,-0.738 1.005,-1.464 2.329,-2.177c3.769,-1.884 7.091,-3.883 9.969,-5.996c2.877,-2.113 5.385,-4.341 7.523,-6.684c-1.374,-3.666 -2.533,-7.307 -3.475,-10.923c-0.942,-3.615 -1.719,-7.256 -2.33,-10.923l-16.652,0l0,12.451l11.229,-2.979c0.815,-0.255 1.477,-0.229 1.986,0.076c0.509,0.306 0.967,0.968 1.375,1.986c0.407,0.968 0.42,1.77 0.038,2.406c-0.382,0.637 -1.006,1.032 -1.871,1.184c-2.139,0.612 -4.265,1.223 -6.379,1.834c-2.113,0.611 -4.239,1.196 -6.378,1.757l0,16.346c0,2.903 -0.789,5.131 -2.368,6.684c-1.578,1.553 -3.819,2.329 -6.722,2.329c-3.004,0 -6.543,-0.942 -10.617,-2.826c-1.07,-0.509 -1.732,-1.158 -1.986,-1.948c-0.255,-0.789 -0.178,-1.616 0.229,-2.482c0.866,-1.579 2.419,-1.91 4.659,-0.993c3.361,1.426 5.984,2.139 7.868,2.139c1.019,0 1.757,-0.28 2.215,-0.841c0.459,-0.56 0.688,-1.349 0.688,-2.368l0,-14.436c-2.394,0.662 -4.762,1.285 -7.104,1.871c-2.343,0.586 -4.685,1.159 -7.027,1.719c-0.866,0.254 -1.63,0.203 -2.292,-0.153c-0.662,-0.357 -1.044,-0.968 -1.146,-1.833c-0.254,-1.172 -0.254,-2.012 0,-2.521c0.255,-0.509 0.891,-0.891 1.91,-1.146c2.597,-0.713 5.207,-1.413 7.829,-2.1c2.623,-0.688 5.233,-1.388 7.83,-2.101l0,-14.055l-16.958,0c-1.12,0 -1.846,-0.242 -2.177,-0.726c-0.331,-0.483 -0.496,-1.234 -0.496,-2.253c0,-0.866 0.165,-1.553 0.496,-2.062c0.331,-0.51 1.057,-0.764 2.177,-0.764l16.958,0l0,-10.236c-4.481,0.968 -8.886,1.553 -13.215,1.757c-1.222,0.051 -2.126,-0.089 -2.712,-0.42c-0.585,-0.331 -0.98,-1.006 -1.183,-2.024c-0.255,-1.171 0.012,-2.037 0.802,-2.597c0.789,-0.56 1.718,-0.891 2.788,-0.993c5.55,-0.255 10.464,-0.955 14.742,-2.101c4.278,-1.146 8.351,-2.508 12.222,-4.087c1.324,-0.56 2.355,-0.712 3.093,-0.458c0.739,0.255 1.286,0.84 1.642,1.757c0.306,1.018 0.306,1.821 0,2.406c-0.305,0.586 -1.043,1.159 -2.215,1.719c-1.629,0.713 -3.272,1.362 -4.927,1.948c-1.655,0.585 -3.322,1.133 -5.003,1.642l0,11.687l15.812,0c-0.356,-3.157 -0.611,-6.315 -0.764,-9.472c-0.153,-3.157 -0.229,-6.391 -0.229,-9.701ZM159.305,16.699c4.685,3.209 8.962,6.748 12.832,10.618c0.968,0.866 1.528,1.693 1.681,2.482c0.153,0.79 -0.153,1.566 -0.917,2.33c-0.865,0.917 -1.642,1.324 -2.329,1.222c-0.688,-0.102 -1.592,-0.713 -2.712,-1.833c-0.713,-0.662 -1.515,-1.413 -2.406,-2.253c-0.891,-0.841 -1.846,-1.694 -2.865,-2.559c-1.018,-0.866 -2.062,-1.719 -3.132,-2.559c-1.069,-0.84 -2.113,-1.617 -3.131,-2.33c-1.07,-0.815 -1.706,-1.566 -1.91,-2.253c-0.204,-0.688 -0.076,-1.464 0.382,-2.33c0.407,-0.662 1.031,-1.057 1.871,-1.184c0.841,-0.127 1.719,0.089 2.636,0.649Z" style="fill:#fff;fill-rule:nonzero;"/><path d="M298.739,29.99c-0.865,1.019 -1.667,1.592 -2.406,1.719c-0.738,0.127 -1.464,-0.089 -2.177,-0.649c-0.763,-0.611 -1.12,-1.273 -1.069,-1.986c0.051,-0.713 0.56,-1.604 1.528,-2.674c0.916,-1.018 1.744,-1.986 2.482,-2.902c0.739,-0.917 1.401,-1.834 1.986,-2.75c0.586,-0.917 1.133,-1.859 1.642,-2.827c0.51,-0.967 1.019,-2.036 1.528,-3.208c0.968,-2.189 2.317,-3.004 4.049,-2.444c0.865,0.306 1.413,0.802 1.642,1.49c0.229,0.687 0.064,1.667 -0.497,2.94l27.041,0c2.189,0 3.654,0.624 4.392,1.872c0.738,1.247 0.751,2.839 0.038,4.774c-0.509,1.324 -1.006,2.444 -1.489,3.361c-0.484,0.916 -1.083,1.884 -1.795,2.902c-0.561,0.764 -1.197,1.235 -1.91,1.414c-0.713,0.178 -1.502,-0.039 -2.368,-0.65c-0.713,-0.509 -1.082,-1.145 -1.108,-1.909c-0.025,-0.764 0.421,-1.783 1.337,-3.056c1.019,-1.477 1.553,-2.406 1.604,-2.788c0.051,-0.382 -0.254,-0.573 -0.916,-0.573l-12.91,0c-0.101,0.357 -0.203,0.688 -0.305,0.993c-0.102,0.306 -0.204,0.611 -0.306,0.917c1.375,2.291 2.763,4.354 4.163,6.187c1.401,1.833 2.852,3.488 4.354,4.965c1.503,1.477 3.094,2.814 4.774,4.01c1.681,1.197 3.514,2.33 5.5,3.4c1.528,0.865 2.444,1.629 2.75,2.291c0.306,0.662 0.229,1.426 -0.229,2.292c-0.509,1.018 -1.159,1.578 -1.948,1.68c-0.789,0.102 -2.024,-0.28 -3.705,-1.146c-3.513,-1.884 -6.747,-4.315 -9.701,-7.294c-2.953,-2.979 -5.754,-6.48 -8.402,-10.503c-1.782,3.513 -3.946,6.569 -6.493,9.166c-2.546,2.597 -5.601,4.965 -9.166,7.104l24.673,0c1.273,0 2.329,0.101 3.17,0.305c0.84,0.204 1.489,0.548 1.947,1.031c0.459,0.484 0.777,1.121 0.955,1.91c0.178,0.789 0.268,1.795 0.268,3.017l0,16.27c0,1.375 -0.09,2.508 -0.268,3.399c-0.178,0.892 -0.484,1.579 -0.916,2.063c-0.433,0.484 -1.032,0.815 -1.796,0.993c-0.763,0.178 -1.705,0.267 -2.826,0.267l-1.68,0c2.139,0.611 4.226,1.261 6.263,1.948c2.037,0.687 4.151,1.439 6.34,2.253c1.273,0.459 2.088,1.006 2.445,1.643c0.356,0.636 0.382,1.413 0.076,2.329c-0.306,0.968 -0.777,1.566 -1.413,1.795c-0.637,0.23 -1.541,0.115 -2.712,-0.343c-2.597,-1.019 -5.334,-1.999 -8.211,-2.941c-2.877,-0.942 -5.844,-1.77 -8.899,-2.483c-1.324,-0.305 -2.19,-0.802 -2.597,-1.489c-0.408,-0.688 -0.433,-1.591 -0.077,-2.712l-21.235,0c0.459,0.968 0.561,1.795 0.306,2.483c-0.255,0.687 -1.044,1.336 -2.368,1.948c-2.75,1.171 -5.563,2.24 -8.441,3.208c-2.877,0.967 -5.843,1.731 -8.898,2.291c-1.477,0.255 -2.534,0.229 -3.17,-0.076c-0.637,-0.306 -1.057,-0.993 -1.261,-2.063c-0.204,-1.018 -0.038,-1.795 0.497,-2.329c0.534,-0.535 1.387,-0.93 2.559,-1.184c2.902,-0.509 5.474,-1.108 7.714,-1.795c2.241,-0.688 4.456,-1.515 6.646,-2.483l-4.048,0c-1.172,0 -2.126,-0.089 -2.865,-0.267c-0.738,-0.178 -1.324,-0.509 -1.757,-0.993c-0.433,-0.484 -0.725,-1.171 -0.878,-2.063c-0.153,-0.891 -0.229,-2.024 -0.229,-3.399l0,-16.423c0,-2.342 0.382,-3.946 1.145,-4.812c0.764,-0.866 2.216,-1.298 4.354,-1.298l10.007,0c-0.407,-1.426 0.535,-2.776 2.826,-4.049c2.444,-1.426 4.583,-2.851 6.417,-4.277c1.833,-1.426 3.424,-2.916 4.774,-4.469c1.349,-1.553 2.508,-3.246 3.475,-5.079c0.968,-1.834 1.808,-3.896 2.521,-6.188l-8.784,0c-0.815,1.324 -1.719,2.648 -2.712,3.972c-0.993,1.324 -2.075,2.648 -3.247,3.972ZM325.703,67.037l-41.782,0l0,0.84c0,0.866 0.076,1.452 0.229,1.757c0.153,0.306 0.433,0.459 0.84,0.459l39.415,0c0.56,0 0.917,-0.153 1.069,-0.459c0.153,-0.305 0.229,-0.891 0.229,-1.757l0,-0.84ZM325.703,59.17l-41.782,0l0,2.749l41.782,0l0,-2.749ZM325.703,53.288c0,-1.222 -0.432,-1.833 -1.298,-1.833l-39.415,0c-0.407,0 -0.687,0.127 -0.84,0.382c-0.153,0.254 -0.229,0.738 -0.229,1.451l0,0.764l41.782,0l0,-0.764ZM295.149,35.948c0,1.834 -1.145,2.75 -3.437,2.75l-19.325,0c-2.19,0 -3.285,-0.942 -3.285,-2.826c0,-1.018 0.331,-1.719 0.993,-2.101c0.662,-0.381 1.426,-0.572 2.292,-0.572l19.325,0c1.069,0 1.91,0.203 2.521,0.611c0.611,0.407 0.916,1.12 0.916,2.138ZM293.011,20.671c0,1.834 -1.146,2.75 -3.438,2.75l-14.742,0c-2.19,0 -3.285,-0.942 -3.285,-2.826c0,-1.018 0.331,-1.719 0.993,-2.101c0.662,-0.382 1.426,-0.573 2.292,-0.573l14.742,0c1.07,0 1.91,0.204 2.521,0.612c0.611,0.407 0.917,1.12 0.917,2.138Z" style="fill:#fff;fill-rule:nonzero;"/><path d="M375.868,46.948l0,36.054c0,1.069 -0.229,1.833 -0.688,2.291c-0.458,0.459 -1.171,0.688 -2.138,0.688c-1.935,0 -2.903,-0.993 -2.903,-2.979l0,-36.054l-10.923,0c-1.171,0 -1.986,-0.229 -2.444,-0.688c-0.459,-0.458 -0.688,-1.171 -0.688,-2.138c0,-1.834 1.044,-2.75 3.132,-2.75l10.923,0l0,-26.124c0,-1.018 0.267,-1.795 0.802,-2.33c0.535,-0.534 1.235,-0.802 2.101,-0.802c0.967,0 1.68,0.306 2.138,0.917c0.459,0.611 0.688,1.349 0.688,2.215l0,26.124l9.09,0c1.018,0 1.833,0.242 2.444,0.725c0.611,0.484 0.917,1.159 0.917,2.025c0,1.884 -1.121,2.826 -3.361,2.826l-9.09,0ZM419.866,65.433l0,17.263c0,1.12 -0.268,1.935 -0.802,2.444c-0.535,0.51 -1.235,0.764 -2.101,0.764c-0.815,0 -1.489,-0.254 -2.024,-0.764c-0.535,-0.509 -0.802,-1.324 -0.802,-2.444l0,-16.423l-20.013,2.903c-1.477,0.255 -2.597,0.242 -3.361,-0.038c-0.764,-0.28 -1.222,-0.98 -1.375,-2.101c-0.153,-1.171 0.076,-2.024 0.688,-2.559c0.611,-0.534 1.731,-0.929 3.36,-1.184l20.701,-2.902l0,-45.45c0,-1.12 0.267,-1.846 0.802,-2.177c0.535,-0.331 1.209,-0.496 2.024,-0.496c0.866,0 1.566,0.165 2.101,0.496c0.534,0.331 0.802,1.057 0.802,2.177l0,44.609l4.736,-0.687c1.476,-0.204 2.571,-0.153 3.284,0.153c0.713,0.305 1.146,1.018 1.299,2.139c0.153,1.069 -0.026,1.846 -0.535,2.329c-0.509,0.484 -1.528,0.853 -3.055,1.108l-5.729,0.84ZM395.881,38.927c1.375,1.223 2.622,2.368 3.743,3.438c1.12,1.069 2.189,2.113 3.208,3.132c1.018,1.018 2.062,2.075 3.132,3.17c1.069,1.094 2.215,2.278 3.437,3.551c0.815,0.866 1.248,1.732 1.299,2.598c0.05,0.865 -0.357,1.655 -1.223,2.368c-0.713,0.56 -1.413,0.763 -2.1,0.611c-0.688,-0.153 -1.515,-0.764 -2.483,-1.834c-1.171,-1.273 -2.279,-2.457 -3.323,-3.552c-1.043,-1.094 -2.075,-2.138 -3.093,-3.131c-1.019,-0.993 -2.063,-1.999 -3.132,-3.018c-1.069,-1.018 -2.241,-2.113 -3.514,-3.284c-0.814,-0.713 -1.273,-1.375 -1.375,-1.986c-0.101,-0.611 0.204,-1.35 0.917,-2.215c0.713,-0.713 1.451,-1.019 2.215,-0.917c0.764,0.102 1.528,0.458 2.292,1.069ZM411.311,35.719c-0.764,0.764 -1.554,1.031 -2.368,0.802c-0.815,-0.229 -1.604,-0.776 -2.368,-1.642c-1.019,-1.12 -1.961,-2.139 -2.827,-3.055c-0.865,-0.917 -1.718,-1.795 -2.558,-2.636c-0.841,-0.84 -1.694,-1.655 -2.559,-2.444c-0.866,-0.789 -1.808,-1.642 -2.827,-2.559c-1.018,-0.866 -1.642,-1.642 -1.871,-2.33c-0.229,-0.687 0.013,-1.438 0.726,-2.253c1.273,-1.579 2.826,-1.579 4.659,0c1.375,1.171 2.559,2.215 3.552,3.132c0.993,0.916 1.922,1.808 2.788,2.673c0.866,0.866 1.731,1.757 2.597,2.674c0.866,0.916 1.859,1.986 2.979,3.208c0.56,0.713 0.891,1.489 0.993,2.33c0.102,0.84 -0.203,1.54 -0.916,2.1ZM386.638,17.998c0.866,0.255 1.477,0.7 1.833,1.337c0.357,0.636 0.357,1.616 0,2.94c-0.407,1.579 -0.789,3.018 -1.145,4.316c-0.357,1.299 -0.739,2.572 -1.146,3.819c-0.408,1.248 -0.853,2.508 -1.337,3.782c-0.484,1.273 -1.031,2.648 -1.642,4.124c-0.866,2.088 -2.266,2.75 -4.201,1.986c-1.732,-0.662 -2.037,-2.215 -0.917,-4.659c1.222,-2.495 2.164,-4.876 2.826,-7.142c0.662,-2.266 1.35,-4.825 2.063,-7.677c0.611,-2.444 1.833,-3.386 3.666,-2.826ZM363.264,20.977c0.408,1.324 0.79,2.508 1.146,3.552c0.357,1.044 0.7,2.088 1.031,3.132c0.331,1.044 0.675,2.151 1.031,3.322c0.357,1.172 0.764,2.521 1.223,4.049c0.407,1.426 0.483,2.508 0.229,3.246c-0.255,0.739 -0.993,1.261 -2.215,1.566c-0.968,0.255 -1.694,0.115 -2.177,-0.42c-0.484,-0.535 -0.904,-1.464 -1.261,-2.788c-0.407,-1.477 -0.776,-2.826 -1.107,-4.049c-0.331,-1.222 -0.675,-2.367 -1.032,-3.437c-0.356,-1.069 -0.712,-2.126 -1.069,-3.17c-0.356,-1.044 -0.764,-2.1 -1.222,-3.17c-0.407,-1.069 -0.522,-1.973 -0.344,-2.712c0.178,-0.738 0.777,-1.311 1.795,-1.718c1.019,-0.306 1.795,-0.28 2.33,0.076c0.535,0.357 1.082,1.197 1.642,2.521ZM388.395,70.245c0.153,0.968 0.102,1.757 -0.153,2.368c-0.254,0.611 -0.891,1.044 -1.909,1.299c-0.815,0.356 -1.528,0.305 -2.139,-0.153c-0.611,-0.458 -1.044,-1.171 -1.299,-2.139c-0.152,-0.814 -0.433,-2.024 -0.84,-3.628c-0.407,-1.604 -0.866,-3.285 -1.375,-5.041c-0.509,-1.757 -1.006,-3.412 -1.489,-4.965c-0.484,-1.554 -0.879,-2.687 -1.184,-3.4c-0.357,-1.018 -0.37,-1.871 -0.039,-2.559c0.331,-0.687 0.853,-1.158 1.566,-1.413c0.866,-0.254 1.617,-0.165 2.254,0.268c0.636,0.433 1.158,1.082 1.566,1.948c0.458,1.018 0.954,2.342 1.489,3.972c0.535,1.629 1.031,3.284 1.49,4.965c0.458,1.68 0.878,3.297 1.26,4.85c0.382,1.553 0.649,2.763 0.802,3.628ZM367.847,55.045c-0.152,1.171 -0.458,2.762 -0.916,4.774c-0.459,2.011 -0.968,4.048 -1.528,6.111c-0.56,2.062 -1.095,3.933 -1.604,5.614c-0.509,1.68 -0.866,2.775 -1.069,3.284c-1.223,2.394 -2.674,3.183 -4.354,2.368c-0.968,-0.509 -1.49,-1.133 -1.566,-1.871c-0.077,-0.738 0.114,-1.617 0.573,-2.635c0.509,-1.121 1.031,-2.521 1.566,-4.201c0.534,-1.681 1.031,-3.4 1.489,-5.156c0.458,-1.757 0.853,-3.438 1.184,-5.042c0.331,-1.604 0.573,-2.915 0.726,-3.934c0.102,-0.865 0.407,-1.655 0.916,-2.368c0.51,-0.713 1.35,-1.018 2.521,-0.916c0.917,0 1.54,0.369 1.871,1.107c0.331,0.739 0.395,1.693 0.191,2.865Z" style="fill:#fff;fill-rule:nonzero;"/></g><path d="M223.244,19.456c4.757,0 8.855,0.852 12.294,2.555c3.439,1.704 6.283,4.034 8.533,6.991c2.249,2.957 3.921,6.444 5.013,10.461c1.093,4.018 1.64,8.308 1.64,12.872c0,4.628 -0.547,8.951 -1.64,12.969c-1.092,4.017 -2.747,7.52 -4.965,10.509c-2.218,2.989 -5.014,5.335 -8.389,7.039c-3.374,1.703 -7.376,2.555 -12.004,2.555l-18.126,0c-1.929,0 -3.086,-0.273 -3.471,-0.82c-0.386,-0.546 -0.579,-1.526 -0.579,-2.941l0,-58.429c0,-1.414 0.193,-2.395 0.579,-2.941c0.385,-0.546 1.542,-0.82 3.471,-0.82l17.644,0ZM209.071,78.947l14.655,0c6.107,0 10.864,-2.314 14.27,-6.942c3.407,-4.628 5.111,-11.281 5.111,-19.959c0,-8.421 -1.752,-14.881 -5.255,-19.38c-3.504,-4.5 -9.015,-6.75 -16.536,-6.75l-12.245,0l0,53.031Z" style="fill:#fff;fill-rule:nonzero;"/></g><g><path d="M21.526,126.216l-1.86,5.218c-0.151,0.423 -0.302,0.832 -0.454,1.225c-0.151,0.393 -0.325,0.756 -0.522,1.089c-0.196,0.333 -0.423,0.598 -0.68,0.794c-0.257,0.197 -0.552,0.295 -0.885,0.295c-0.605,0 -1.074,-0.189 -1.407,-0.567c-0.332,-0.378 -0.332,-1.082 0,-2.11l9.529,-27.725c0.152,-0.484 0.416,-0.87 0.794,-1.157c0.378,-0.287 0.87,-0.431 1.475,-0.431c0.635,0 1.15,0.144 1.543,0.431c0.393,0.287 0.665,0.673 0.817,1.157l9.574,27.816c0.242,0.726 0.257,1.338 0.045,1.837c-0.211,0.5 -0.711,0.749 -1.497,0.749c-0.514,0.03 -0.93,-0.113 -1.248,-0.431c-0.318,-0.318 -0.552,-0.734 -0.703,-1.248l-2.496,-6.942l-12.025,0ZM32.734,123.039l-5.173,-15.564l-5.172,15.564l10.345,0Z" style="fill:#aad4d1;fill-rule:nonzero;"/><path d="M59.552,135.291c-2.269,0 -4.341,-0.378 -6.217,-1.134c-1.876,-0.757 -3.479,-1.846 -4.81,-3.268c-1.331,-1.421 -2.359,-3.153 -3.085,-5.195c-0.726,-2.042 -1.089,-4.349 -1.089,-6.92c0,-2.239 0.355,-4.356 1.066,-6.353c0.711,-1.996 1.686,-3.736 2.927,-5.218c1.24,-1.482 2.73,-2.654 4.469,-3.517c1.74,-0.862 3.653,-1.293 5.74,-1.293c1.089,0 2.133,0.121 3.131,0.363c0.998,0.242 1.906,0.56 2.723,0.953c0.817,0.393 1.543,0.84 2.178,1.339c0.635,0.499 1.149,1.006 1.543,1.52c0.302,0.575 0.423,1.074 0.363,1.497c-0.061,0.242 -0.189,0.446 -0.386,0.613c-0.197,0.166 -0.461,0.28 -0.794,0.34c-0.363,0.091 -0.809,-0.038 -1.339,-0.386c-0.529,-0.347 -1.157,-0.748 -1.883,-1.202c-0.726,-0.454 -1.558,-0.877 -2.496,-1.271c-0.937,-0.393 -1.996,-0.589 -3.176,-0.589c-1.633,0 -3.101,0.393 -4.401,1.179c-1.301,0.787 -2.405,1.8 -3.313,3.041c-0.907,1.24 -1.603,2.654 -2.087,4.242c-0.484,1.588 -0.726,3.169 -0.726,4.742c0,1.936 0.265,3.721 0.794,5.354c0.529,1.634 1.293,3.048 2.291,4.243c0.999,1.195 2.224,2.118 3.676,2.768c1.452,0.65 3.086,0.976 4.901,0.976c1.452,-0.031 2.684,-0.288 3.698,-0.772c1.013,-0.484 1.958,-1.119 2.836,-1.906c0.665,-0.514 1.24,-0.726 1.724,-0.635c0.454,0.121 0.787,0.34 0.998,0.658c0.212,0.318 0.303,0.643 0.273,0.976c-0.031,0.332 -0.295,0.771 -0.795,1.316c-0.499,0.544 -1.179,1.081 -2.041,1.61c-0.863,0.53 -1.868,0.984 -3.018,1.362c-1.15,0.378 -2.375,0.567 -3.675,0.567Z" style="fill:#aad4d1;fill-rule:nonzero;"/><path d="M89.545,135.291c-2.269,0 -4.341,-0.378 -6.216,-1.134c-1.876,-0.757 -3.479,-1.846 -4.81,-3.268c-1.331,-1.421 -2.36,-3.153 -3.086,-5.195c-0.726,-2.042 -1.089,-4.349 -1.089,-6.92c0,-2.239 0.356,-4.356 1.066,-6.353c0.711,-1.996 1.687,-3.736 2.927,-5.218c1.241,-1.482 2.73,-2.654 4.47,-3.517c1.739,-0.862 3.653,-1.293 5.74,-1.293c1.089,0 2.133,0.121 3.131,0.363c0.998,0.242 1.906,0.56 2.722,0.953c0.817,0.393 1.543,0.84 2.178,1.339c0.636,0.499 1.15,1.006 1.543,1.52c0.303,0.575 0.424,1.074 0.363,1.497c-0.06,0.242 -0.189,0.446 -0.386,0.613c-0.196,0.166 -0.461,0.28 -0.794,0.34c-0.363,0.091 -0.809,-0.038 -1.338,-0.386c-0.53,-0.347 -1.157,-0.748 -1.883,-1.202c-0.726,-0.454 -1.558,-0.877 -2.496,-1.271c-0.938,-0.393 -1.997,-0.589 -3.176,-0.589c-1.634,0 -3.101,0.393 -4.402,1.179c-1.301,0.787 -2.405,1.8 -3.312,3.041c-0.908,1.24 -1.604,2.654 -2.088,4.242c-0.484,1.588 -0.726,3.169 -0.726,4.742c0,1.936 0.265,3.721 0.795,5.354c0.529,1.634 1.293,3.048 2.291,4.243c0.998,1.195 2.223,2.118 3.675,2.768c1.453,0.65 3.086,0.976 4.901,0.976c1.452,-0.031 2.685,-0.288 3.698,-0.772c1.014,-0.484 1.959,-1.119 2.836,-1.906c0.666,-0.514 1.241,-0.726 1.725,-0.635c0.453,0.121 0.786,0.34 0.998,0.658c0.212,0.318 0.302,0.643 0.272,0.976c-0.03,0.332 -0.295,0.771 -0.794,1.316c-0.499,0.544 -1.18,1.081 -2.042,1.61c-0.862,0.53 -1.868,0.984 -3.017,1.362c-1.15,0.378 -2.375,0.567 -3.676,0.567Z" style="fill:#aad4d1;fill-rule:nonzero;"/><path d="M108.921,131.252l11.661,0c0.484,0 0.946,0.008 1.384,0.023c0.439,0.015 0.825,0.068 1.157,0.159c0.333,0.091 0.598,0.242 0.794,0.454c0.197,0.211 0.295,0.514 0.295,0.907c0,0.635 -0.166,1.059 -0.499,1.271c-0.332,0.212 -0.877,0.317 -1.633,0.317l-14.657,0c-0.695,0 -1.217,-0.128 -1.565,-0.385c-0.348,-0.257 -0.522,-0.779 -0.522,-1.566l0,-27.135c0,-0.726 0.151,-1.232 0.454,-1.52c0.302,-0.287 0.847,-0.431 1.633,-0.431l14.384,0c0.636,0 1.112,0.114 1.43,0.34c0.317,0.227 0.491,0.643 0.522,1.248c0,0.575 -0.167,0.976 -0.499,1.203c-0.333,0.227 -0.817,0.34 -1.453,0.34l-12.886,0l0,10.3l12.433,0c0.695,0 1.195,0.121 1.497,0.363c0.303,0.242 0.454,0.666 0.454,1.271c0,0.575 -0.151,0.968 -0.454,1.18c-0.302,0.212 -0.802,0.317 -1.497,0.317l-12.433,0l0,11.344Z" style="fill:#aad4d1;fill-rule:nonzero;"/><path d="M134.195,110.47c0,0.847 0.197,1.573 0.59,2.178c0.393,0.605 0.908,1.135 1.543,1.588c0.635,0.454 1.369,0.878 2.201,1.271c0.831,0.393 1.686,0.786 2.563,1.18c1.15,0.514 2.178,1.043 3.086,1.588c0.907,0.544 1.679,1.165 2.314,1.86c0.635,0.696 1.119,1.498 1.452,2.405c0.333,0.908 0.499,1.967 0.499,3.177c0,1.331 -0.242,2.563 -0.726,3.698c-0.484,1.134 -1.164,2.117 -2.042,2.949c-0.877,0.832 -1.928,1.482 -3.153,1.951c-1.226,0.469 -2.564,0.719 -4.016,0.749c-1.15,0.03 -2.277,-0.098 -3.381,-0.386c-1.104,-0.287 -2.095,-0.643 -2.972,-1.066c-1.301,-0.666 -2.148,-1.361 -2.541,-2.087c-0.393,-0.726 -0.393,-1.362 0,-1.906c0.333,-0.424 0.719,-0.62 1.157,-0.59c0.439,0.03 0.915,0.212 1.43,0.545c0.907,0.605 1.898,1.126 2.972,1.565c1.074,0.439 2.246,0.658 3.516,0.658c0.787,0 1.551,-0.151 2.292,-0.454c0.741,-0.302 1.399,-0.711 1.974,-1.225c0.574,-0.514 1.036,-1.134 1.384,-1.86c0.348,-0.726 0.521,-1.513 0.521,-2.36c0,-0.847 -0.166,-1.611 -0.499,-2.291c-0.332,-0.681 -0.771,-1.286 -1.316,-1.815c-0.544,-0.53 -1.157,-0.984 -1.837,-1.362c-0.681,-0.378 -1.354,-0.703 -2.02,-0.975c-1.24,-0.484 -2.389,-0.983 -3.448,-1.498c-1.059,-0.514 -1.974,-1.104 -2.745,-1.769c-0.772,-0.666 -1.369,-1.46 -1.793,-2.383c-0.423,-0.922 -0.635,-2.049 -0.635,-3.38c0,-1.21 0.242,-2.307 0.726,-3.29c0.484,-0.983 1.127,-1.815 1.929,-2.496c0.801,-0.68 1.724,-1.195 2.767,-1.542c1.044,-0.348 2.141,-0.522 3.29,-0.522c1.15,0 2.269,0.159 3.358,0.476c1.089,0.318 2.019,0.711 2.791,1.18c0.771,0.469 1.323,0.998 1.656,1.588c0.333,0.59 0.333,1.172 0,1.747c-0.272,0.454 -0.681,0.673 -1.225,0.658c-0.545,-0.015 -1.044,-0.189 -1.498,-0.522c-0.605,-0.423 -1.361,-0.854 -2.268,-1.293c-0.908,-0.439 -1.846,-0.643 -2.814,-0.613c-1.543,0 -2.775,0.439 -3.698,1.316c-0.923,0.878 -1.384,1.997 -1.384,3.358Z" style="fill:#aad4d1;fill-rule:nonzero;"/><path d="M157.745,110.47c0,0.847 0.197,1.573 0.59,2.178c0.393,0.605 0.908,1.135 1.543,1.588c0.635,0.454 1.369,0.878 2.201,1.271c0.832,0.393 1.686,0.786 2.563,1.18c1.15,0.514 2.178,1.043 3.086,1.588c0.908,0.544 1.679,1.165 2.314,1.86c0.635,0.696 1.119,1.498 1.452,2.405c0.333,0.908 0.499,1.967 0.499,3.177c0,1.331 -0.242,2.563 -0.726,3.698c-0.484,1.134 -1.164,2.117 -2.042,2.949c-0.877,0.832 -1.928,1.482 -3.153,1.951c-1.225,0.469 -2.564,0.719 -4.016,0.749c-1.15,0.03 -2.276,-0.098 -3.381,-0.386c-1.104,-0.287 -2.094,-0.643 -2.972,-1.066c-1.3,-0.666 -2.147,-1.361 -2.541,-2.087c-0.393,-0.726 -0.393,-1.362 0,-1.906c0.333,-0.424 0.719,-0.62 1.157,-0.59c0.439,0.03 0.915,0.212 1.43,0.545c0.907,0.605 1.898,1.126 2.972,1.565c1.074,0.439 2.246,0.658 3.517,0.658c0.786,0 1.55,-0.151 2.291,-0.454c0.741,-0.302 1.399,-0.711 1.974,-1.225c0.575,-0.514 1.036,-1.134 1.384,-1.86c0.348,-0.726 0.522,-1.513 0.522,-2.36c0,-0.847 -0.167,-1.611 -0.499,-2.291c-0.333,-0.681 -0.772,-1.286 -1.316,-1.815c-0.545,-0.53 -1.157,-0.984 -1.838,-1.362c-0.681,-0.378 -1.354,-0.703 -2.019,-0.975c-1.241,-0.484 -2.39,-0.983 -3.449,-1.498c-1.059,-0.514 -1.974,-1.104 -2.745,-1.769c-0.772,-0.666 -1.369,-1.46 -1.793,-2.383c-0.423,-0.922 -0.635,-2.049 -0.635,-3.38c0,-1.21 0.242,-2.307 0.726,-3.29c0.484,-0.983 1.127,-1.815 1.929,-2.496c0.801,-0.68 1.724,-1.195 2.768,-1.542c1.043,-0.348 2.14,-0.522 3.289,-0.522c1.15,0 2.269,0.159 3.358,0.476c1.089,0.318 2.019,0.711 2.791,1.18c0.771,0.469 1.323,0.998 1.656,1.588c0.333,0.59 0.333,1.172 0,1.747c-0.272,0.454 -0.681,0.673 -1.225,0.658c-0.545,-0.015 -1.044,-0.189 -1.497,-0.522c-0.605,-0.423 -1.362,-0.854 -2.269,-1.293c-0.908,-0.439 -1.846,-0.643 -2.814,-0.613c-1.542,0 -2.775,0.439 -3.698,1.316c-0.922,0.878 -1.384,1.997 -1.384,3.358Z" style="fill:#aad4d1;fill-rule:nonzero;"/><path d="M222.497,132.251c0.091,0.635 0.068,1.217 -0.068,1.747c-0.136,0.529 -0.628,0.809 -1.475,0.839c-0.544,0 -0.938,-0.159 -1.18,-0.476c-0.242,-0.318 -0.423,-0.855 -0.544,-1.611l-2.632,-18.105c-0.091,-0.575 -0.204,-1.286 -0.34,-2.133c-0.136,-0.847 -0.288,-1.58 -0.454,-2.201c-0.166,-0.62 -0.348,-1.021 -0.545,-1.202c-0.196,-0.182 -0.4,0.091 -0.612,0.817l-6.761,23.278c-0.151,0.574 -0.341,0.99 -0.567,1.247c-0.227,0.258 -0.583,0.386 -1.067,0.386c-0.514,0 -0.877,-0.113 -1.089,-0.34c-0.212,-0.227 -0.408,-0.658 -0.59,-1.293c-1.149,-3.903 -2.306,-7.775 -3.471,-11.617c-1.165,-3.841 -2.291,-7.714 -3.38,-11.616c-0.212,-0.726 -0.431,-1.089 -0.658,-1.089c-0.227,0 -0.401,0.363 -0.522,1.089l-3.358,22.688c-0.091,0.696 -0.265,1.233 -0.522,1.611c-0.257,0.378 -0.733,0.567 -1.429,0.567c-1.15,0 -1.588,-0.756 -1.316,-2.269l4.129,-26.998c0.121,-0.908 0.416,-1.589 0.885,-2.042c0.469,-0.454 1.081,-0.681 1.838,-0.681c0.756,0 1.384,0.197 1.883,0.59c0.499,0.393 0.9,1.089 1.202,2.087l6.444,22.734l6.307,-22.779c0.272,-0.968 0.658,-1.649 1.157,-2.042c0.499,-0.393 1.112,-0.59 1.838,-0.59c0.726,0 1.338,0.227 1.837,0.681c0.5,0.453 0.825,1.149 0.976,2.087l4.084,26.636Z" style="fill:#aad4d1;fill-rule:nonzero;"/><path d="M238.242,133.022c0,0.575 -0.136,1.021 -0.408,1.339c-0.272,0.317 -0.726,0.476 -1.361,0.476c-0.666,0 -1.127,-0.166 -1.384,-0.499c-0.257,-0.333 -0.386,-0.771 -0.386,-1.316l0,-12.524l-8.349,-14.747c-0.303,-0.544 -0.431,-1.051 -0.386,-1.52c0.046,-0.469 0.265,-0.824 0.658,-1.066c0.393,-0.242 0.817,-0.348 1.271,-0.318c0.453,0.03 0.847,0.348 1.179,0.953l7.442,13.34l7.215,-13.022c0.212,-0.363 0.446,-0.643 0.703,-0.84c0.257,-0.197 0.507,-0.325 0.749,-0.386c0.242,-0.06 0.469,-0.068 0.681,-0.022c0.211,0.045 0.393,0.113 0.544,0.204c0.424,0.302 0.643,0.665 0.658,1.089c0.015,0.423 -0.144,0.938 -0.476,1.543l-8.35,14.792l0,12.524Z" style="fill:#aad4d1;fill-rule:nonzero;"/><path d="M268.644,133.113c0,1.149 -0.605,1.724 -1.815,1.724c-1.149,0 -1.724,-0.559 -1.724,-1.679l0,-28.632c0,-1.119 0.575,-1.679 1.724,-1.679c0.605,0 1.059,0.129 1.362,0.386c0.302,0.257 0.453,0.688 0.453,1.293l0,28.587Z" style="fill:#aad4d1;fill-rule:nonzero;"/><path d="M280.76,133.022c0,0.514 -0.152,0.945 -0.454,1.293c-0.303,0.348 -0.756,0.522 -1.361,0.522c-0.605,0 -1.052,-0.174 -1.339,-0.522c-0.287,-0.348 -0.431,-0.779 -0.431,-1.293l0,-28.405c0,-0.515 0.113,-0.938 0.34,-1.271c0.227,-0.333 0.643,-0.499 1.248,-0.499c0.484,0 0.862,0.136 1.135,0.408c0.272,0.273 0.544,0.575 0.816,0.908l16.29,23.822l0,-23.368c0,-0.515 0.129,-0.938 0.386,-1.271c0.257,-0.333 0.718,-0.499 1.384,-0.499c0.666,0 1.134,0.151 1.407,0.454c0.272,0.302 0.408,0.741 0.408,1.316l0,28.45c0,0.515 -0.113,0.938 -0.34,1.271c-0.227,0.333 -0.643,0.499 -1.248,0.499c-0.424,0 -0.794,-0.128 -1.112,-0.386c-0.317,-0.257 -0.612,-0.582 -0.885,-0.975l-16.244,-23.414l0,22.96Z" style="fill:#aad4d1;fill-rule:nonzero;"/><path d="M323.549,116.777c0.968,0 1.543,0.303 1.725,0.908c0.151,0.333 0.136,0.711 -0.046,1.134c-0.181,0.757 -0.741,1.135 -1.679,1.135l-11.434,0l0,13.25c0,0.514 -0.137,0.915 -0.409,1.202c-0.272,0.287 -0.756,0.431 -1.452,0.431c-0.665,0 -1.119,-0.144 -1.361,-0.431c-0.242,-0.287 -0.363,-0.688 -0.363,-1.202l0,-27.907c0,-0.756 0.151,-1.27 0.454,-1.542c0.302,-0.273 0.847,-0.409 1.633,-0.409l14.203,0c1.27,0 1.906,0.545 1.906,1.634c0,0.605 -0.159,1.021 -0.477,1.248c-0.317,0.226 -0.809,0.34 -1.475,0.34l-12.659,0l0,10.209l11.434,0Z" style="fill:#aad4d1;fill-rule:nonzero;"/><path d="M345.194,102.393c2.299,0 4.303,0.439 6.012,1.316c1.709,0.877 3.131,2.065 4.265,3.562c1.135,1.498 1.989,3.245 2.564,5.241c0.575,1.997 0.862,4.099 0.862,6.307c0,2.239 -0.28,4.349 -0.839,6.33c-0.56,1.982 -1.407,3.729 -2.541,5.241c-1.135,1.513 -2.556,2.708 -4.266,3.585c-1.709,0.877 -3.728,1.316 -6.057,1.316c-2.269,0 -4.266,-0.439 -5.99,-1.316c-1.724,-0.877 -3.154,-2.065 -4.288,-3.562c-1.134,-1.497 -1.989,-3.244 -2.564,-5.241c-0.574,-1.996 -0.862,-4.114 -0.862,-6.353c0,-2.208 0.272,-4.31 0.817,-6.307c0.544,-1.996 1.384,-3.743 2.518,-5.241c1.135,-1.497 2.564,-2.685 4.288,-3.562c1.725,-0.877 3.751,-1.316 6.081,-1.316ZM345.194,132.024c1.694,0 3.176,-0.318 4.447,-0.953c1.27,-0.635 2.329,-1.528 3.176,-2.677c0.847,-1.15 1.482,-2.526 1.906,-4.129c0.423,-1.604 0.635,-3.373 0.635,-5.309c0,-1.755 -0.197,-3.434 -0.59,-5.037c-0.393,-1.603 -1.006,-3.025 -1.838,-4.266c-0.832,-1.24 -1.89,-2.231 -3.176,-2.972c-1.286,-0.741 -2.806,-1.111 -4.56,-1.111c-1.755,0 -3.275,0.37 -4.561,1.111c-1.285,0.741 -2.344,1.725 -3.176,2.95c-0.832,1.225 -1.444,2.632 -1.838,4.22c-0.393,1.588 -0.59,3.244 -0.59,4.968c0,1.694 0.197,3.328 0.59,4.901c0.394,1.573 0.999,2.98 1.815,4.22c0.817,1.24 1.868,2.231 3.154,2.972c1.286,0.741 2.821,1.112 4.606,1.112Z" style="fill:#aad4d1;fill-rule:nonzero;"/></g><g><path d="M378.94,103.378c0,-0.243 0.055,-0.436 0.165,-0.578c0.11,-0.141 0.307,-0.212 0.592,-0.212c0.258,0 0.452,0.074 0.582,0.223c0.129,0.148 0.194,0.337 0.194,0.567l0,12.679c0,0.23 -0.062,0.419 -0.185,0.567c-0.122,0.149 -0.313,0.23 -0.572,0.243c-0.259,0 -0.453,-0.077 -0.582,-0.233c-0.13,-0.155 -0.194,-0.347 -0.194,-0.577l0,-5.833l-7.103,0l0,5.833c0,0.23 -0.061,0.419 -0.184,0.567c-0.123,0.149 -0.314,0.23 -0.572,0.243c-0.259,0 -0.453,-0.077 -0.583,-0.233c-0.129,-0.155 -0.194,-0.347 -0.194,-0.577l0,-12.679c0,-0.23 0.065,-0.419 0.194,-0.567c0.13,-0.149 0.324,-0.223 0.583,-0.223c0.258,0 0.449,0.074 0.572,0.223c0.123,0.148 0.184,0.337 0.184,0.567l0,5.468l7.103,0l0,-5.468Z" style="fill:#40bfb5;fill-rule:nonzero;"/><path d="M389.578,102.385c1.026,0 1.921,0.196 2.684,0.588c0.763,0.391 1.397,0.921 1.904,1.59c0.506,0.668 0.888,1.448 1.144,2.339c0.257,0.891 0.385,1.83 0.385,2.815c0,1 -0.125,1.941 -0.375,2.826c-0.249,0.884 -0.628,1.664 -1.134,2.339c-0.506,0.675 -1.141,1.209 -1.904,1.6c-0.763,0.392 -1.664,0.588 -2.704,0.588c-1.013,0 -1.904,-0.196 -2.673,-0.588c-0.77,-0.391 -1.408,-0.921 -1.915,-1.59c-0.506,-0.668 -0.887,-1.448 -1.144,-2.339c-0.256,-0.891 -0.385,-1.836 -0.385,-2.836c0,-0.985 0.122,-1.924 0.365,-2.815c0.243,-0.891 0.618,-1.671 1.124,-2.339c0.506,-0.669 1.144,-1.199 1.914,-1.59c0.77,-0.392 1.674,-0.588 2.714,-0.588ZM389.578,115.611c0.756,0 1.418,-0.141 1.985,-0.425c0.567,-0.283 1.04,-0.682 1.418,-1.195c0.378,-0.513 0.662,-1.127 0.851,-1.843c0.189,-0.716 0.283,-1.506 0.283,-2.37c0,-0.783 -0.088,-1.532 -0.263,-2.248c-0.176,-0.716 -0.449,-1.35 -0.82,-1.904c-0.372,-0.554 -0.844,-0.996 -1.418,-1.327c-0.574,-0.331 -1.253,-0.496 -2.036,-0.496c-0.783,0 -1.462,0.165 -2.035,0.496c-0.574,0.331 -1.047,0.77 -1.418,1.317c-0.372,0.547 -0.645,1.175 -0.821,1.883c-0.175,0.709 -0.263,1.449 -0.263,2.218c0,0.757 0.088,1.486 0.263,2.188c0.176,0.702 0.446,1.33 0.811,1.884c0.364,0.553 0.833,0.995 1.407,1.326c0.574,0.331 1.259,0.496 2.056,0.496Z" style="fill:#40bfb5;fill-rule:nonzero;"/><path d="M400.131,116.057c0,0.23 -0.068,0.422 -0.203,0.577c-0.135,0.156 -0.337,0.233 -0.607,0.233c-0.27,0 -0.47,-0.077 -0.598,-0.233c-0.128,-0.155 -0.192,-0.347 -0.192,-0.577l0,-12.679c0,-0.23 0.05,-0.419 0.152,-0.567c0.101,-0.149 0.287,-0.223 0.557,-0.223c0.216,0 0.385,0.06 0.506,0.182c0.122,0.122 0.243,0.257 0.365,0.405l7.271,10.634l0,-10.431c0,-0.23 0.057,-0.419 0.172,-0.567c0.115,-0.149 0.321,-0.223 0.618,-0.223c0.297,0 0.506,0.067 0.628,0.202c0.121,0.135 0.182,0.331 0.182,0.588l0,12.699c0,0.23 -0.05,0.419 -0.152,0.567c-0.101,0.149 -0.287,0.223 -0.557,0.223c-0.189,0 -0.354,-0.057 -0.496,-0.172c-0.142,-0.115 -0.273,-0.26 -0.395,-0.435l-7.251,-10.452l0,10.249Z" style="fill:#40bfb5;fill-rule:nonzero;"/><path d="M422.776,110.831l-3.221,0c-0.635,0 -0.952,-0.236 -0.952,-0.709c0,-0.513 0.317,-0.769 0.952,-0.769l3.666,0c0.432,0 0.733,0.101 0.902,0.304c0.168,0.202 0.253,0.587 0.253,1.154c0,0.797 -0.102,1.57 -0.304,2.319c-0.203,0.75 -0.53,1.415 -0.982,1.995c-0.453,0.581 -1.04,1.05 -1.763,1.408c-0.722,0.358 -1.603,0.537 -2.643,0.537c-1.013,0 -1.924,-0.193 -2.734,-0.577c-0.81,-0.385 -1.506,-0.905 -2.086,-1.56c-0.581,-0.655 -1.027,-1.421 -1.337,-2.299c-0.311,-0.878 -0.466,-1.816 -0.466,-2.815c0,-0.973 0.152,-1.908 0.456,-2.806c0.303,-0.898 0.739,-1.688 1.306,-2.369c0.567,-0.682 1.252,-1.229 2.056,-1.641c0.803,-0.412 1.705,-0.618 2.704,-0.618c0.581,0 1.141,0.058 1.681,0.172c0.54,0.115 1.08,0.328 1.62,0.638c0.297,0.176 0.564,0.358 0.8,0.547c0.237,0.189 0.429,0.372 0.578,0.547c0.148,0.176 0.243,0.344 0.283,0.506c0.041,0.163 0.021,0.304 -0.06,0.426c-0.054,0.094 -0.129,0.185 -0.223,0.273c-0.095,0.088 -0.206,0.145 -0.334,0.172c-0.129,0.027 -0.267,0.024 -0.416,-0.01c-0.148,-0.033 -0.297,-0.125 -0.445,-0.273c-0.324,-0.311 -0.632,-0.567 -0.922,-0.77c-0.29,-0.202 -0.577,-0.364 -0.861,-0.486c-0.283,-0.121 -0.57,-0.206 -0.861,-0.253c-0.29,-0.047 -0.597,-0.071 -0.921,-0.071c-0.675,0 -1.307,0.165 -1.894,0.496c-0.587,0.331 -1.097,0.77 -1.529,1.317c-0.432,0.547 -0.773,1.175 -1.023,1.883c-0.25,0.709 -0.375,1.449 -0.375,2.218c0,0.797 0.125,1.553 0.375,2.269c0.25,0.716 0.597,1.34 1.043,1.873c0.446,0.534 0.976,0.959 1.59,1.276c0.614,0.318 1.286,0.476 2.015,0.476c0.743,0 1.371,-0.131 1.884,-0.394c0.513,-0.264 0.932,-0.618 1.256,-1.064c0.324,-0.445 0.56,-0.955 0.709,-1.529c0.148,-0.574 0.223,-1.171 0.223,-1.793Z" style="fill:#40bfb5;fill-rule:nonzero;"/><path d="M372.047,134.367c0,0.23 -0.059,0.409 -0.177,0.537c-0.117,0.128 -0.345,0.192 -0.683,0.192c-0.324,0 -0.552,-0.067 -0.684,-0.202c-0.133,-0.135 -0.199,-0.311 -0.199,-0.527l0,-12.76c0,-0.243 0.066,-0.436 0.199,-0.577c0.132,-0.142 0.36,-0.213 0.684,-0.213c0.308,0 0.529,0.067 0.661,0.202c0.133,0.135 0.199,0.331 0.199,0.588l0,4.983l5.889,-4.902c0.177,-0.135 0.349,-0.27 0.519,-0.405c0.169,-0.135 0.338,-0.243 0.507,-0.324c0.169,-0.081 0.331,-0.118 0.485,-0.112c0.155,0.007 0.313,0.078 0.474,0.213c0.353,0.338 0.272,0.722 -0.242,1.154l-6.551,5.267l6.86,6.036c0.279,0.256 0.437,0.499 0.474,0.729c0.037,0.229 -0.019,0.425 -0.166,0.587c-0.323,0.378 -0.764,0.351 -1.323,-0.081l-6.926,-6.319l0,5.934Z" style="fill:#40bfb5;fill-rule:nonzero;"/><path d="M389.578,120.614c1.026,0 1.921,0.196 2.684,0.588c0.763,0.391 1.397,0.921 1.904,1.59c0.506,0.668 0.888,1.448 1.144,2.339c0.257,0.891 0.385,1.83 0.385,2.816c0,0.999 -0.125,1.941 -0.375,2.825c-0.249,0.885 -0.628,1.664 -1.134,2.34c-0.506,0.675 -1.141,1.208 -1.904,1.6c-0.763,0.391 -1.664,0.587 -2.704,0.587c-1.013,0 -1.904,-0.196 -2.673,-0.587c-0.77,-0.392 -1.408,-0.922 -1.915,-1.59c-0.506,-0.669 -0.887,-1.449 -1.144,-2.34c-0.256,-0.891 -0.385,-1.836 -0.385,-2.835c0,-0.986 0.122,-1.925 0.365,-2.816c0.243,-0.891 0.618,-1.671 1.124,-2.339c0.506,-0.669 1.144,-1.199 1.914,-1.59c0.77,-0.392 1.674,-0.588 2.714,-0.588ZM389.578,133.841c0.756,0 1.418,-0.142 1.985,-0.426c0.567,-0.283 1.04,-0.682 1.418,-1.195c0.378,-0.513 0.662,-1.127 0.851,-1.843c0.189,-0.716 0.283,-1.505 0.283,-2.37c0,-0.783 -0.088,-1.532 -0.263,-2.248c-0.176,-0.716 -0.449,-1.35 -0.82,-1.904c-0.372,-0.554 -0.844,-0.996 -1.418,-1.327c-0.574,-0.33 -1.253,-0.496 -2.036,-0.496c-0.783,0 -1.462,0.166 -2.035,0.496c-0.574,0.331 -1.047,0.77 -1.418,1.317c-0.372,0.547 -0.645,1.175 -0.821,1.884c-0.175,0.709 -0.263,1.448 -0.263,2.218c0,0.756 0.088,1.485 0.263,2.187c0.176,0.702 0.446,1.33 0.811,1.884c0.364,0.553 0.833,0.996 1.407,1.326c0.574,0.331 1.259,0.497 2.056,0.497Z" style="fill:#40bfb5;fill-rule:nonzero;"/><path d="M400.131,134.286c0,0.23 -0.068,0.422 -0.203,0.578c-0.135,0.155 -0.337,0.232 -0.607,0.232c-0.27,0 -0.47,-0.077 -0.598,-0.232c-0.128,-0.156 -0.192,-0.348 -0.192,-0.578l0,-12.679c0,-0.23 0.05,-0.419 0.152,-0.567c0.101,-0.149 0.287,-0.223 0.557,-0.223c0.216,0 0.385,0.061 0.506,0.182c0.122,0.122 0.243,0.257 0.365,0.405l7.271,10.634l0,-10.431c0,-0.23 0.057,-0.419 0.172,-0.567c0.115,-0.149 0.321,-0.223 0.618,-0.223c0.297,0 0.506,0.067 0.628,0.202c0.121,0.135 0.182,0.331 0.182,0.588l0,12.7c0,0.229 -0.05,0.418 -0.152,0.567c-0.101,0.148 -0.287,0.222 -0.557,0.222c-0.189,0 -0.354,-0.057 -0.496,-0.172c-0.142,-0.114 -0.273,-0.26 -0.395,-0.435l-7.251,-10.452l0,10.249Z" style="fill:#40bfb5;fill-rule:nonzero;"/><path d="M422.776,129.061l-3.221,0c-0.635,0 -0.952,-0.237 -0.952,-0.709c0,-0.513 0.317,-0.77 0.952,-0.77l3.666,0c0.432,0 0.733,0.101 0.902,0.304c0.168,0.202 0.253,0.587 0.253,1.154c0,0.797 -0.102,1.57 -0.304,2.319c-0.203,0.75 -0.53,1.415 -0.982,1.996c-0.453,0.58 -1.04,1.049 -1.763,1.407c-0.722,0.358 -1.603,0.537 -2.643,0.537c-1.013,0 -1.924,-0.192 -2.734,-0.577c-0.81,-0.385 -1.506,-0.905 -2.086,-1.56c-0.581,-0.655 -1.027,-1.421 -1.337,-2.299c-0.311,-0.877 -0.466,-1.816 -0.466,-2.815c0,-0.972 0.152,-1.907 0.456,-2.805c0.303,-0.898 0.739,-1.688 1.306,-2.37c0.567,-0.682 1.252,-1.229 2.056,-1.641c0.803,-0.412 1.705,-0.618 2.704,-0.618c0.581,0 1.141,0.058 1.681,0.173c0.54,0.114 1.08,0.327 1.62,0.638c0.297,0.175 0.564,0.357 0.8,0.546c0.237,0.189 0.429,0.372 0.578,0.547c0.148,0.176 0.243,0.345 0.283,0.507c0.041,0.162 0.021,0.304 -0.06,0.425c-0.054,0.095 -0.129,0.186 -0.223,0.273c-0.095,0.088 -0.206,0.146 -0.334,0.173c-0.129,0.027 -0.267,0.023 -0.416,-0.01c-0.148,-0.034 -0.297,-0.125 -0.445,-0.274c-0.324,-0.311 -0.632,-0.567 -0.922,-0.77c-0.29,-0.202 -0.577,-0.364 -0.861,-0.486c-0.283,-0.121 -0.57,-0.206 -0.861,-0.253c-0.29,-0.047 -0.597,-0.071 -0.921,-0.071c-0.675,0 -1.307,0.166 -1.894,0.496c-0.587,0.331 -1.097,0.77 -1.529,1.317c-0.432,0.547 -0.773,1.175 -1.023,1.884c-0.25,0.709 -0.375,1.448 -0.375,2.218c0,0.796 0.125,1.552 0.375,2.268c0.25,0.716 0.597,1.34 1.043,1.874c0.446,0.533 0.976,0.958 1.59,1.276c0.614,0.317 1.286,0.476 2.015,0.476c0.743,0 1.371,-0.132 1.884,-0.395c0.513,-0.264 0.932,-0.618 1.256,-1.064c0.324,-0.445 0.56,-0.955 0.709,-1.529c0.148,-0.574 0.223,-1.171 0.223,-1.792Z" style="fill:#40bfb5;fill-rule:nonzero;"/></g></svg>