<?xml version="1.0" standalone="no"?><!DOCTYPE svg PUBLIC "-//W3C//DTD SVG 1.1//EN" "http://www.w3.org/Graphics/SVG/1.1/DTD/svg11.dtd"><svg width="100%" height="100%" viewBox="0 0 480 210" version="1.1" xmlns="http://www.w3.org/2000/svg" xmlns:xlink="http://www.w3.org/1999/xlink" xml:space="preserve" style="fill-rule:evenodd;clip-rule:evenodd;stroke-linejoin:round;stroke-miterlimit:1.41421;"><g><circle cx="31.973" cy="168.04" r="26.018" style="fill:#4ddfc6;"/><rect x="28.543" y="159.164" width="6.933" height="28.391" style="fill:#fff;"/><path d="M31.993,164.406c-0.006,0 -0.013,0 -0.02,0c-3.117,0 -5.648,-5.48 -5.648,-9.153c0,-3.673 2.531,-6.655 5.648,-6.655c3.117,0 5.648,2.982 5.648,6.655c0,3.517 -2.321,8.693 -5.256,9.124c-0.117,0.019 -0.235,0.029 -0.355,0.029l-0.017,0ZM30.018,154.311c-0.024,-0.002 -0.049,-0.003 -0.074,-0.003c-0.573,0 -1.038,0.465 -1.038,1.038c0,0.208 0.06,0.401 0.165,0.563c0.247,-0.628 0.569,-1.172 0.947,-1.598ZM33.999,154.308c0.364,0.409 0.677,0.928 0.92,1.526c0.077,-0.145 0.121,-0.311 0.121,-0.488c0,-0.573 -0.465,-1.038 -1.038,-1.038l-0.003,0Z" style="fill:#4ddfc6;"/><path d="M32.01,147.18c2.73,0 4.947,2.612 4.947,5.829c0,3.216 -2.217,8.016 -4.947,8.016c-2.73,0 -4.947,-4.8 -4.947,-8.016c0,-3.217 2.217,-5.829 4.947,-5.829ZM32.01,156.109c0.999,0 1.81,0.81 1.81,1.809c0,0.999 -0.811,1.81 -1.81,1.81c-0.999,0 -1.81,-0.811 -1.81,-1.81c0,-0.999 0.811,-1.809 1.81,-1.809ZM30.233,152.181c0.502,0 0.909,0.407 0.909,0.909c0,0.502 -0.407,0.91 -0.909,0.91c-0.502,0 -0.91,-0.408 -0.91,-0.91c0,-0.502 0.408,-0.909 0.91,-0.909ZM33.787,152.181c0.502,0 0.909,0.407 0.909,0.909c0,0.502 -0.407,0.91 -0.909,0.91c-0.502,0 -0.91,-0.408 -0.91,-0.91c0,-0.502 0.408,-0.909 0.91,-0.909Z" style="fill:#fff;"/></g><g><g><path d="M64.611,14.544c0,-2.521 0.315,-4.097 0.946,-4.728c0.63,-0.63 1.851,-0.945 3.663,-0.945c1.734,0 2.975,0.433 3.723,1.3c0.749,0.867 1.123,2.324 1.123,4.373c0,4.649 0.118,9.435 0.355,14.36c0.236,4.925 0.63,10.026 1.182,15.306l35.811,0c1.734,0 2.856,0.394 3.369,1.181c0.512,0.788 0.768,1.852 0.768,3.192c0,1.575 -0.256,2.738 -0.768,3.486c-0.513,0.749 -1.635,1.123 -3.369,1.123l-34.629,0c0.709,4.412 1.615,8.707 2.718,12.883c1.103,4.176 2.324,8.194 3.664,12.055c2.048,-3.152 3.802,-6.264 5.259,-9.337c1.458,-3.073 2.778,-6.461 3.96,-10.164c0.551,-1.655 1.339,-2.896 2.363,-3.723c1.025,-0.828 2.325,-1.005 3.901,-0.532c1.654,0.63 2.639,1.536 2.954,2.718c0.316,1.182 0.158,2.679 -0.472,4.491c-1.734,4.964 -3.645,9.534 -5.733,13.71c-2.088,4.176 -4.826,8.471 -8.214,12.883c1.813,4.019 3.841,7.86 6.087,11.524c2.246,3.663 4.353,6.756 6.323,9.277c0.473,0.631 1.024,0.887 1.655,0.769c0.63,-0.119 1.261,-1.123 1.891,-3.014c0.157,-0.709 0.354,-1.576 0.591,-2.6c0.236,-1.025 0.453,-2.088 0.65,-3.191c0.197,-1.104 0.394,-2.226 0.591,-3.369c0.197,-1.142 0.335,-2.147 0.413,-3.014c0.158,-2.206 0.591,-3.585 1.301,-4.136c0.709,-0.552 1.969,-0.709 3.782,-0.473c2.6,0.473 3.9,1.97 3.9,4.491c0,1.418 -0.158,3.27 -0.473,5.555c-0.315,2.285 -0.748,4.59 -1.3,6.914c-0.552,2.325 -1.182,4.491 -1.891,6.501c-0.709,2.009 -1.379,3.407 -2.009,4.195c-1.97,2.679 -4.334,4.019 -7.092,4.019c-2.127,0 -4.057,-0.867 -5.791,-2.6c-2.758,-2.916 -5.476,-6.304 -8.155,-10.165c-2.679,-3.861 -5.161,-8.155 -7.446,-12.882c-3.546,3.545 -7.544,6.874 -11.996,9.987c-4.452,3.112 -9.12,5.929 -14.006,8.45c-2.285,1.103 -3.939,1.596 -4.964,1.478c-1.024,-0.119 -1.851,-0.651 -2.482,-1.596c-1.024,-1.733 -1.359,-3.171 -1.004,-4.314c0.354,-1.142 1.556,-2.265 3.605,-3.368c5.83,-2.916 10.972,-6.008 15.423,-9.278c4.452,-3.27 8.333,-6.717 11.642,-10.342c-2.127,-5.673 -3.92,-11.307 -5.378,-16.901c-1.457,-5.594 -2.659,-11.228 -3.604,-16.901l-25.766,0l0,19.265l17.374,-4.61c1.261,-0.394 2.285,-0.354 3.073,0.119c0.788,0.472 1.497,1.497 2.128,3.073c0.63,1.497 0.65,2.738 0.059,3.723c-0.591,0.984 -1.557,1.595 -2.896,1.831c-3.309,0.946 -6.599,1.892 -9.869,2.837c-3.27,0.946 -6.559,1.852 -9.869,2.718l0,25.293c0,4.491 -1.221,7.938 -3.664,10.342c-2.442,2.403 -5.909,3.604 -10.4,3.604c-4.649,0 -10.125,-1.457 -16.429,-4.373c-1.654,-0.788 -2.679,-1.792 -3.073,-3.014c-0.394,-1.221 -0.275,-2.501 0.355,-3.841c1.339,-2.442 3.743,-2.954 7.21,-1.536c5.2,2.206 9.258,3.309 12.173,3.309c1.576,0 2.718,-0.433 3.428,-1.3c0.709,-0.867 1.063,-2.088 1.063,-3.664l0,-22.338c-3.703,1.025 -7.367,1.99 -10.991,2.896c-3.625,0.906 -7.249,1.793 -10.874,2.659c-1.339,0.394 -2.521,0.315 -3.545,-0.236c-1.025,-0.552 -1.616,-1.497 -1.773,-2.837c-0.394,-1.812 -0.394,-3.112 0,-3.9c0.394,-0.788 1.379,-1.379 2.954,-1.773c4.019,-1.103 8.057,-2.186 12.115,-3.25c4.058,-1.064 8.096,-2.147 12.114,-3.25l0,-21.747l-26.238,0c-1.733,0 -2.856,-0.374 -3.368,-1.123c-0.512,-0.748 -0.768,-1.911 -0.768,-3.486c0,-1.34 0.256,-2.404 0.768,-3.192c0.512,-0.787 1.635,-1.181 3.368,-1.181l26.238,0l0,-15.838c-6.933,1.497 -13.749,2.403 -20.446,2.718c-1.892,0.079 -3.29,-0.137 -4.196,-0.65c-0.906,-0.512 -1.517,-1.556 -1.832,-3.132c-0.394,-1.812 0.02,-3.151 1.241,-4.018c1.221,-0.867 2.659,-1.379 4.314,-1.536c8.588,-0.394 16.192,-1.478 22.81,-3.251c6.619,-1.773 12.922,-3.88 18.911,-6.323c2.048,-0.867 3.644,-1.103 4.786,-0.709c1.143,0.394 1.99,1.3 2.541,2.718c0.473,1.576 0.473,2.817 0,3.723c-0.472,0.906 -1.615,1.793 -3.427,2.66c-2.521,1.103 -5.063,2.107 -7.623,3.013c-2.561,0.907 -5.142,1.754 -7.742,2.542l0,18.083l24.466,0c-0.552,-4.886 -0.946,-9.771 -1.182,-14.656c-0.237,-4.885 -0.355,-9.888 -0.355,-15.01ZM84.467,14.899c7.249,4.963 13.867,10.44 19.856,16.428c1.497,1.339 2.364,2.62 2.6,3.841c0.236,1.221 -0.236,2.423 -1.418,3.605c-1.34,1.418 -2.541,2.048 -3.605,1.891c-1.064,-0.158 -2.462,-1.103 -4.196,-2.837c-1.103,-1.024 -2.344,-2.186 -3.723,-3.486c-1.379,-1.3 -2.856,-2.62 -4.432,-3.96c-1.576,-1.339 -3.191,-2.659 -4.846,-3.959c-1.654,-1.3 -3.27,-2.502 -4.845,-3.605c-1.655,-1.26 -2.64,-2.423 -2.955,-3.486c-0.315,-1.064 -0.118,-2.266 0.591,-3.605c0.63,-1.024 1.595,-1.635 2.895,-1.832c1.3,-0.197 2.66,0.138 4.078,1.005Z" style="fill:#fff;fill-rule:nonzero;"/><path d="M291.513,35.464c-1.339,1.575 -2.58,2.462 -3.723,2.659c-1.142,0.197 -2.265,-0.138 -3.368,-1.005c-1.182,-0.945 -1.734,-1.97 -1.655,-3.073c0.079,-1.103 0.867,-2.482 2.364,-4.136c1.418,-1.576 2.698,-3.073 3.841,-4.492c1.142,-1.418 2.167,-2.836 3.073,-4.254c0.906,-1.419 1.753,-2.876 2.541,-4.373c0.788,-1.498 1.576,-3.152 2.364,-4.964c1.497,-3.389 3.585,-4.649 6.264,-3.782c1.339,0.472 2.186,1.241 2.541,2.304c0.354,1.064 0.098,2.581 -0.768,4.551l41.839,0c3.388,0 5.653,0.965 6.796,2.895c1.142,1.931 1.162,4.393 0.059,7.387c-0.788,2.049 -1.556,3.782 -2.305,5.2c-0.748,1.419 -1.674,2.916 -2.777,4.492c-0.867,1.181 -1.852,1.91 -2.955,2.186c-1.103,0.276 -2.325,-0.059 -3.664,-1.005c-1.103,-0.787 -1.674,-1.772 -1.714,-2.954c-0.039,-1.182 0.65,-2.758 2.069,-4.728c1.575,-2.285 2.403,-3.723 2.482,-4.314c0.078,-0.591 -0.394,-0.886 -1.419,-0.886l-19.974,0c-0.157,0.551 -0.315,1.063 -0.473,1.536c-0.157,0.473 -0.315,0.946 -0.472,1.419c2.127,3.545 4.274,6.736 6.441,9.573c2.167,2.836 4.412,5.397 6.737,7.682c2.324,2.285 4.786,4.354 7.387,6.205c2.6,1.852 5.436,3.605 8.509,5.26c2.364,1.339 3.782,2.521 4.255,3.545c0.473,1.025 0.355,2.206 -0.354,3.546c-0.788,1.576 -1.793,2.443 -3.014,2.6c-1.222,0.158 -3.132,-0.433 -5.732,-1.773c-5.437,-2.915 -10.441,-6.677 -15.011,-11.287c-4.57,-4.609 -8.903,-10.026 -13,-16.251c-2.758,5.437 -6.107,10.164 -10.047,14.183c-3.939,4.018 -8.667,7.682 -14.182,10.992l38.175,0c1.97,0 3.605,0.157 4.905,0.472c1.3,0.315 2.305,0.847 3.014,1.596c0.709,0.748 1.201,1.733 1.477,2.955c0.276,1.221 0.414,2.777 0.414,4.668l0,25.174c0,2.128 -0.138,3.881 -0.414,5.26c-0.276,1.379 -0.748,2.442 -1.418,3.191c-0.67,0.749 -1.596,1.261 -2.778,1.536c-1.182,0.276 -2.639,0.414 -4.373,0.414l-2.6,0c3.309,0.946 6.54,1.95 9.692,3.014c3.151,1.064 6.421,2.226 9.809,3.487c1.97,0.709 3.231,1.556 3.782,2.541c0.552,0.985 0.591,2.186 0.119,3.604c-0.473,1.497 -1.202,2.423 -2.187,2.778c-0.985,0.354 -2.383,0.177 -4.196,-0.532c-4.018,-1.576 -8.253,-3.093 -12.705,-4.55c-4.452,-1.458 -9.041,-2.738 -13.769,-3.841c-2.049,-0.473 -3.388,-1.241 -4.018,-2.305c-0.631,-1.064 -0.67,-2.462 -0.119,-4.196l-32.856,0c0.709,1.497 0.866,2.778 0.472,3.841c-0.394,1.064 -1.615,2.069 -3.663,3.014c-4.255,1.812 -8.609,3.467 -13.06,4.964c-4.452,1.497 -9.042,2.679 -13.77,3.546c-2.285,0.394 -3.919,0.354 -4.904,-0.118c-0.985,-0.473 -1.635,-1.537 -1.951,-3.192c-0.315,-1.575 -0.059,-2.777 0.769,-3.604c0.827,-0.828 2.147,-1.438 3.959,-1.832c4.491,-0.788 8.47,-1.714 11.937,-2.778c3.467,-1.063 6.895,-2.344 10.283,-3.841l-6.264,0c-1.813,0 -3.29,-0.138 -4.432,-0.414c-1.143,-0.275 -2.049,-0.787 -2.719,-1.536c-0.67,-0.749 -1.123,-1.812 -1.359,-3.191c-0.236,-1.379 -0.355,-3.132 -0.355,-5.26l0,-25.41c0,-3.625 0.591,-6.107 1.773,-7.446c1.182,-1.34 3.428,-2.009 6.737,-2.009l15.483,0c-0.63,-2.207 0.827,-4.295 4.373,-6.265c3.782,-2.206 7.091,-4.412 9.928,-6.618c2.836,-2.206 5.299,-4.511 7.387,-6.914c2.088,-2.403 3.88,-5.023 5.377,-7.86c1.497,-2.836 2.797,-6.028 3.901,-9.573l-13.592,0c-1.261,2.048 -2.659,4.097 -4.196,6.146c-1.536,2.048 -3.211,4.097 -5.023,6.146ZM333.234,92.785l-64.65,0l0,1.301c0,1.339 0.118,2.245 0.355,2.718c0.236,0.473 0.67,0.709 1.3,0.709l60.986,0c0.866,0 1.418,-0.236 1.654,-0.709c0.237,-0.473 0.355,-1.379 0.355,-2.718l0,-1.301ZM333.234,80.612l-64.65,0l0,4.255l64.65,0l0,-4.255ZM333.234,71.511c0,-1.891 -0.67,-2.836 -2.009,-2.836l-60.986,0c-0.63,0 -1.064,0.197 -1.3,0.591c-0.237,0.394 -0.355,1.142 -0.355,2.245l0,1.182l64.65,0l0,-1.182ZM285.958,44.682c0,2.837 -1.773,4.255 -5.318,4.255l-29.902,0c-3.388,0 -5.083,-1.458 -5.083,-4.373c0,-1.576 0.513,-2.659 1.537,-3.25c1.024,-0.591 2.206,-0.887 3.546,-0.887l29.902,0c1.654,0 2.954,0.316 3.9,0.946c0.945,0.63 1.418,1.733 1.418,3.309ZM282.649,21.044c0,2.837 -1.773,4.255 -5.319,4.255l-22.81,0c-3.388,0 -5.082,-1.457 -5.082,-4.373c0,-1.576 0.512,-2.659 1.536,-3.25c1.024,-0.591 2.206,-0.886 3.546,-0.886l22.81,0c1.655,0 2.955,0.315 3.901,0.945c0.945,0.63 1.418,1.734 1.418,3.309Z" style="fill:#fff;fill-rule:nonzero;"/><path d="M393.392,61.702l0,55.785c0,1.655 -0.354,2.837 -1.063,3.546c-0.709,0.709 -1.813,1.063 -3.31,1.063c-2.994,0 -4.491,-1.536 -4.491,-4.609l0,-55.785l-16.901,0c-1.812,0 -3.073,-0.355 -3.782,-1.064c-0.709,-0.709 -1.064,-1.812 -1.064,-3.309c0,-2.837 1.616,-4.255 4.846,-4.255l16.901,0l0,-40.421c0,-1.576 0.414,-2.778 1.241,-3.605c0.828,-0.827 1.911,-1.241 3.25,-1.241c1.497,0 2.601,0.473 3.31,1.418c0.709,0.946 1.063,2.088 1.063,3.428l0,40.421l14.065,0c1.576,0 2.837,0.374 3.782,1.123c0.946,0.748 1.418,1.792 1.418,3.132c0,2.915 -1.733,4.373 -5.2,4.373l-14.065,0ZM461.47,90.303l0,26.711c0,1.734 -0.414,2.994 -1.241,3.782c-0.828,0.788 -1.911,1.182 -3.251,1.182c-1.26,0 -2.304,-0.394 -3.132,-1.182c-0.827,-0.788 -1.241,-2.048 -1.241,-3.782l0,-25.41l-30.965,4.491c-2.285,0.394 -4.019,0.374 -5.201,-0.059c-1.181,-0.434 -1.891,-1.517 -2.127,-3.251c-0.236,-1.812 0.118,-3.132 1.064,-3.959c0.945,-0.827 2.679,-1.438 5.2,-1.832l32.029,-4.491l0,-70.323c0,-1.733 0.414,-2.856 1.241,-3.368c0.828,-0.512 1.872,-0.768 3.132,-0.768c1.34,0 2.423,0.256 3.251,0.768c0.827,0.512 1.241,1.635 1.241,3.368l0,69.023l7.327,-1.064c2.285,-0.315 3.979,-0.236 5.083,0.237c1.103,0.472 1.772,1.575 2.009,3.309c0.236,1.655 -0.04,2.856 -0.828,3.605c-0.787,0.748 -2.363,1.319 -4.727,1.713l-8.864,1.3ZM424.358,49.292c2.128,1.891 4.058,3.664 5.791,5.318c1.734,1.655 3.388,3.27 4.964,4.846c1.576,1.576 3.191,3.211 4.846,4.905c1.655,1.694 3.428,3.526 5.319,5.496c1.26,1.339 1.93,2.679 2.009,4.018c0.079,1.34 -0.552,2.561 -1.891,3.664c-1.103,0.867 -2.187,1.182 -3.25,0.946c-1.064,-0.237 -2.344,-1.182 -3.842,-2.837c-1.812,-1.97 -3.526,-3.802 -5.141,-5.496c-1.615,-1.694 -3.211,-3.309 -4.786,-4.846c-1.576,-1.536 -3.192,-3.092 -4.846,-4.668c-1.655,-1.576 -3.467,-3.27 -5.437,-5.082c-1.261,-1.103 -1.97,-2.128 -2.127,-3.073c-0.158,-0.946 0.315,-2.088 1.418,-3.428c1.103,-1.103 2.246,-1.576 3.427,-1.418c1.182,0.158 2.364,0.709 3.546,1.655ZM448.232,44.328c-1.181,1.182 -2.403,1.595 -3.663,1.241c-1.261,-0.355 -2.482,-1.202 -3.664,-2.541c-1.576,-1.734 -3.034,-3.31 -4.373,-4.728c-1.34,-1.418 -2.66,-2.777 -3.96,-4.077c-1.3,-1.301 -2.62,-2.561 -3.959,-3.783c-1.34,-1.221 -2.797,-2.541 -4.373,-3.959c-1.576,-1.339 -2.541,-2.541 -2.896,-3.605c-0.354,-1.063 0.02,-2.226 1.123,-3.486c1.97,-2.443 4.373,-2.443 7.21,0c2.127,1.812 3.959,3.427 5.495,4.845c1.537,1.419 2.975,2.798 4.314,4.137c1.34,1.34 2.679,2.718 4.019,4.137c1.339,1.418 2.876,3.073 4.609,4.964c0.867,1.103 1.379,2.304 1.537,3.605c0.157,1.3 -0.315,2.383 -1.419,3.25ZM410.057,16.908c1.34,0.394 2.285,1.083 2.837,2.068c0.551,0.985 0.551,2.502 0,4.55c-0.631,2.443 -1.222,4.669 -1.773,6.678c-0.552,2.009 -1.143,3.979 -1.773,5.91c-0.63,1.93 -1.32,3.88 -2.068,5.85c-0.749,1.97 -1.596,4.097 -2.541,6.382c-1.34,3.231 -3.507,4.255 -6.501,3.073c-2.679,-1.024 -3.152,-3.427 -1.418,-7.209c1.891,-3.861 3.349,-7.545 4.373,-11.051c1.024,-3.506 2.088,-7.466 3.191,-11.878c0.946,-3.782 2.837,-5.24 5.673,-4.373ZM373.891,21.517c0.63,2.049 1.221,3.881 1.773,5.496c0.552,1.615 1.083,3.23 1.596,4.846c0.512,1.615 1.044,3.329 1.595,5.141c0.552,1.812 1.182,3.9 1.891,6.264c0.63,2.206 0.749,3.881 0.355,5.023c-0.394,1.143 -1.537,1.95 -3.428,2.423c-1.497,0.394 -2.62,0.177 -3.368,-0.65c-0.749,-0.827 -1.399,-2.265 -1.95,-4.314c-0.631,-2.285 -1.202,-4.373 -1.714,-6.264c-0.512,-1.891 -1.044,-3.664 -1.596,-5.319c-0.551,-1.654 -1.103,-3.289 -1.654,-4.904c-0.552,-1.616 -1.182,-3.251 -1.891,-4.905c-0.631,-1.655 -0.808,-3.054 -0.532,-4.196c0.276,-1.143 1.201,-2.029 2.777,-2.659c1.576,-0.473 2.778,-0.434 3.605,0.118c0.827,0.551 1.674,1.852 2.541,3.9ZM412.776,97.749c0.236,1.497 0.157,2.719 -0.237,3.664c-0.394,0.946 -1.379,1.616 -2.955,2.01c-1.26,0.551 -2.363,0.472 -3.309,-0.237c-0.945,-0.709 -1.615,-1.812 -2.009,-3.309c-0.237,-1.261 -0.67,-3.132 -1.3,-5.614c-0.631,-2.482 -1.34,-5.082 -2.128,-7.801c-0.788,-2.718 -1.556,-5.279 -2.304,-7.682c-0.749,-2.403 -1.359,-4.156 -1.832,-5.259c-0.552,-1.576 -0.572,-2.896 -0.059,-3.96c0.512,-1.064 1.319,-1.792 2.423,-2.186c1.339,-0.394 2.501,-0.256 3.486,0.413c0.985,0.67 1.793,1.675 2.423,3.014c0.709,1.576 1.477,3.625 2.305,6.146c0.827,2.521 1.595,5.082 2.304,7.682c0.71,2.601 1.36,5.102 1.951,7.505c0.59,2.404 1.004,4.275 1.241,5.614ZM380.983,74.23c-0.237,1.812 -0.71,4.274 -1.419,7.387c-0.709,3.112 -1.497,6.264 -2.364,9.455c-0.866,3.191 -1.694,6.086 -2.482,8.687c-0.787,2.6 -1.339,4.294 -1.654,5.082c-1.891,3.703 -4.137,4.924 -6.737,3.664c-1.497,-0.788 -2.305,-1.753 -2.423,-2.896c-0.118,-1.142 0.177,-2.502 0.887,-4.078c0.787,-1.733 1.595,-3.9 2.422,-6.5c0.828,-2.6 1.596,-5.259 2.305,-7.978c0.709,-2.718 1.32,-5.318 1.832,-7.8c0.512,-2.482 0.886,-4.511 1.123,-6.087c0.157,-1.339 0.63,-2.561 1.418,-3.664c0.788,-1.103 2.088,-1.576 3.9,-1.418c1.419,0 2.384,0.571 2.896,1.714c0.512,1.142 0.611,2.619 0.296,4.432Z" style="fill:#fff;fill-rule:nonzero;"/></g><path d="M179.05,19.164c7.36,0 13.7,1.318 19.021,3.954c5.321,2.636 9.722,6.241 13.203,10.816c3.481,4.575 6.067,9.971 7.758,16.187c1.691,6.216 2.536,12.855 2.536,19.916c0,7.161 -0.845,13.85 -2.536,20.066c-1.691,6.216 -4.252,11.637 -7.683,16.261c-3.431,4.625 -7.758,8.255 -12.979,10.891c-5.222,2.636 -11.413,3.953 -18.574,3.953l-28.047,0c-2.984,0 -4.774,-0.422 -5.371,-1.268c-0.597,-0.845 -0.895,-2.362 -0.895,-4.55l0,-90.407c0,-2.188 0.298,-3.705 0.895,-4.55c0.597,-0.846 2.387,-1.269 5.371,-1.269l27.301,0ZM157.119,111.213l22.677,0c9.448,0 16.808,-3.581 22.08,-10.742c5.271,-7.161 7.907,-17.454 7.907,-30.881c0,-13.029 -2.711,-23.025 -8.131,-29.987c-5.421,-6.962 -13.949,-10.443 -25.586,-10.443l-18.947,0l0,82.053Z" style="fill:#fff;fill-rule:nonzero;"/></g><g><path d="M81.139,176.634l-2.146,6.017c-0.174,0.489 -0.348,0.96 -0.523,1.413c-0.174,0.454 -0.375,0.872 -0.602,1.256c-0.226,0.384 -0.488,0.689 -0.785,0.916c-0.296,0.226 -0.636,0.34 -1.02,0.34c-0.698,0 -1.238,-0.218 -1.622,-0.654c-0.384,-0.436 -0.384,-1.247 0,-2.434l10.989,-31.972c0.174,-0.558 0.479,-1.003 0.915,-1.334c0.437,-0.331 1.003,-0.497 1.701,-0.497c0.733,0 1.326,0.166 1.779,0.497c0.454,0.331 0.768,0.776 0.942,1.334l11.041,32.077c0.279,0.837 0.297,1.544 0.053,2.119c-0.245,0.576 -0.82,0.864 -1.727,0.864c-0.593,0.035 -1.073,-0.131 -1.439,-0.497c-0.367,-0.367 -0.637,-0.846 -0.811,-1.439l-2.878,-8.006l-13.867,0ZM94.064,172.971l-5.966,-17.949l-5.965,17.949l11.931,0Z" style="fill:#aad4d1;fill-rule:nonzero;"/><path d="M124.989,187.099c-2.616,0 -5.006,-0.436 -7.168,-1.308c-2.163,-0.872 -4.012,-2.128 -5.547,-3.768c-1.535,-1.639 -2.721,-3.637 -3.558,-5.991c-0.838,-2.355 -1.256,-5.015 -1.256,-7.98c0,-2.582 0.41,-5.024 1.229,-7.326c0.82,-2.302 1.945,-4.308 3.375,-6.018c1.431,-1.709 3.149,-3.061 5.155,-4.055c2.006,-0.994 4.212,-1.491 6.619,-1.491c1.256,0 2.46,0.139 3.611,0.418c1.151,0.279 2.198,0.646 3.139,1.099c0.942,0.454 1.78,0.968 2.512,1.544c0.733,0.575 1.326,1.16 1.779,1.753c0.349,0.662 0.489,1.238 0.419,1.726c-0.07,0.28 -0.218,0.515 -0.445,0.707c-0.227,0.192 -0.532,0.323 -0.916,0.392c-0.418,0.105 -0.933,-0.043 -1.543,-0.444c-0.611,-0.402 -1.335,-0.864 -2.172,-1.387c-0.837,-0.523 -1.796,-1.012 -2.878,-1.465c-1.081,-0.454 -2.302,-0.681 -3.663,-0.681c-1.884,0 -3.576,0.454 -5.076,1.361c-1.5,0.907 -2.773,2.076 -3.819,3.506c-1.047,1.43 -1.849,3.061 -2.408,4.893c-0.558,1.831 -0.837,3.654 -0.837,5.468c0,2.232 0.305,4.291 0.916,6.174c0.61,1.884 1.491,3.515 2.642,4.893c1.152,1.378 2.565,2.442 4.239,3.192c1.675,0.75 3.558,1.125 5.651,1.125c1.675,-0.035 3.096,-0.331 4.265,-0.889c1.169,-0.559 2.259,-1.291 3.271,-2.198c0.767,-0.593 1.43,-0.837 1.988,-0.733c0.523,0.14 0.907,0.393 1.151,0.759c0.244,0.366 0.349,0.741 0.314,1.125c-0.035,0.384 -0.34,0.89 -0.916,1.517c-0.575,0.628 -1.36,1.248 -2.354,1.858c-0.994,0.611 -2.154,1.134 -3.48,1.57c-1.326,0.436 -2.739,0.654 -4.239,0.654Z" style="fill:#aad4d1;fill-rule:nonzero;"/><path d="M159.578,187.099c-2.616,0 -5.006,-0.436 -7.169,-1.308c-2.163,-0.872 -4.012,-2.128 -5.547,-3.768c-1.535,-1.639 -2.721,-3.637 -3.558,-5.991c-0.837,-2.355 -1.256,-5.015 -1.256,-7.98c0,-2.582 0.41,-5.024 1.23,-7.326c0.82,-2.302 1.945,-4.308 3.375,-6.018c1.43,-1.709 3.148,-3.061 5.154,-4.055c2.006,-0.994 4.213,-1.491 6.62,-1.491c1.256,0 2.459,0.139 3.61,0.418c1.152,0.279 2.198,0.646 3.14,1.099c0.942,0.454 1.779,0.968 2.512,1.544c0.732,0.575 1.325,1.16 1.779,1.753c0.349,0.662 0.488,1.238 0.419,1.726c-0.07,0.28 -0.219,0.515 -0.445,0.707c-0.227,0.192 -0.532,0.323 -0.916,0.392c-0.419,0.105 -0.933,-0.043 -1.544,-0.444c-0.61,-0.402 -1.334,-0.864 -2.171,-1.387c-0.838,-0.523 -1.797,-1.012 -2.878,-1.465c-1.082,-0.454 -2.303,-0.681 -3.663,-0.681c-1.884,0 -3.576,0.454 -5.076,1.361c-1.5,0.907 -2.773,2.076 -3.82,3.506c-1.046,1.43 -1.849,3.061 -2.407,4.893c-0.558,1.831 -0.837,3.654 -0.837,5.468c0,2.232 0.305,4.291 0.915,6.174c0.611,1.884 1.492,3.515 2.643,4.893c1.151,1.378 2.564,2.442 4.239,3.192c1.674,0.75 3.558,1.125 5.651,1.125c1.674,-0.035 3.096,-0.331 4.265,-0.889c1.168,-0.559 2.258,-1.291 3.27,-2.198c0.768,-0.593 1.43,-0.837 1.989,-0.733c0.523,0.14 0.907,0.393 1.151,0.759c0.244,0.366 0.349,0.741 0.314,1.125c-0.035,0.384 -0.34,0.89 -0.916,1.517c-0.576,0.628 -1.36,1.248 -2.355,1.858c-0.994,0.611 -2.154,1.134 -3.48,1.57c-1.325,0.436 -2.738,0.654 -4.238,0.654Z" style="fill:#aad4d1;fill-rule:nonzero;"/><path d="M181.922,182.442l13.448,0c0.558,0 1.09,0.009 1.596,0.026c0.506,0.017 0.951,0.079 1.334,0.183c0.384,0.105 0.689,0.279 0.916,0.523c0.227,0.245 0.34,0.594 0.34,1.047c0,0.733 -0.192,1.221 -0.575,1.465c-0.384,0.244 -1.012,0.366 -1.884,0.366l-16.902,0c-0.802,0 -1.404,-0.148 -1.805,-0.444c-0.401,-0.297 -0.602,-0.899 -0.602,-1.806l0,-31.292c0,-0.837 0.174,-1.421 0.523,-1.752c0.349,-0.332 0.977,-0.498 1.884,-0.498l16.588,0c0.732,0 1.282,0.131 1.648,0.393c0.367,0.261 0.567,0.741 0.602,1.439c0,0.663 -0.192,1.125 -0.576,1.387c-0.383,0.261 -0.942,0.392 -1.674,0.392l-14.861,0l0,11.878l14.338,0c0.802,0 1.378,0.14 1.726,0.419c0.349,0.279 0.524,0.767 0.524,1.465c0,0.663 -0.175,1.116 -0.524,1.361c-0.348,0.244 -0.924,0.366 -1.726,0.366l-14.338,0l0,13.082Z" style="fill:#aad4d1;fill-rule:nonzero;"/><path d="M211.068,158.476c0,0.977 0.227,1.814 0.681,2.512c0.453,0.697 1.046,1.308 1.779,1.831c0.732,0.523 1.578,1.012 2.538,1.465c0.959,0.454 1.944,0.907 2.956,1.361c1.326,0.593 2.512,1.203 3.558,1.831c1.047,0.628 1.937,1.343 2.669,2.146c0.733,0.802 1.291,1.726 1.675,2.773c0.383,1.047 0.575,2.268 0.575,3.663c0,1.535 -0.279,2.956 -0.837,4.265c-0.558,1.308 -1.343,2.442 -2.355,3.401c-1.011,0.959 -2.224,1.709 -3.637,2.25c-1.412,0.541 -2.956,0.829 -4.631,0.863c-1.325,0.035 -2.625,-0.113 -3.898,-0.444c-1.273,-0.332 -2.416,-0.742 -3.427,-1.23c-1.5,-0.768 -2.477,-1.57 -2.931,-2.407c-0.453,-0.837 -0.453,-1.57 0,-2.198c0.384,-0.488 0.829,-0.715 1.335,-0.68c0.505,0.035 1.055,0.244 1.648,0.628c1.046,0.697 2.189,1.299 3.427,1.805c1.239,0.506 2.591,0.759 4.056,0.759c0.907,0 1.788,-0.175 2.642,-0.523c0.855,-0.349 1.614,-0.82 2.277,-1.413c0.662,-0.593 1.194,-1.308 1.596,-2.146c0.401,-0.837 0.601,-1.744 0.601,-2.721c0,-0.977 -0.192,-1.857 -0.575,-2.642c-0.384,-0.785 -0.89,-1.483 -1.518,-2.093c-0.628,-0.611 -1.334,-1.134 -2.119,-1.57c-0.785,-0.436 -1.561,-0.811 -2.329,-1.125c-1.43,-0.558 -2.756,-1.134 -3.977,-1.727c-1.221,-0.593 -2.276,-1.273 -3.165,-2.041c-0.89,-0.767 -1.579,-1.683 -2.067,-2.747c-0.489,-1.064 -0.733,-2.364 -0.733,-3.898c0,-1.396 0.279,-2.66 0.837,-3.794c0.559,-1.134 1.3,-2.093 2.224,-2.878c0.925,-0.785 1.989,-1.378 3.192,-1.779c1.204,-0.402 2.468,-0.602 3.794,-0.602c1.326,0 2.616,0.183 3.872,0.549c1.256,0.367 2.329,0.82 3.218,1.361c0.89,0.541 1.527,1.151 1.91,1.831c0.384,0.681 0.384,1.352 0,2.015c-0.314,0.523 -0.785,0.776 -1.412,0.759c-0.628,-0.018 -1.204,-0.218 -1.727,-0.602c-0.698,-0.489 -1.57,-0.986 -2.617,-1.491c-1.046,-0.506 -2.128,-0.742 -3.244,-0.707c-1.779,0 -3.201,0.506 -4.265,1.518c-1.064,1.011 -1.596,2.302 -1.596,3.872Z" style="fill:#aad4d1;fill-rule:nonzero;"/><path d="M238.226,158.476c0,0.977 0.227,1.814 0.681,2.512c0.453,0.697 1.046,1.308 1.779,1.831c0.732,0.523 1.578,1.012 2.538,1.465c0.959,0.454 1.944,0.907 2.956,1.361c1.326,0.593 2.512,1.203 3.558,1.831c1.047,0.628 1.937,1.343 2.669,2.146c0.733,0.802 1.291,1.726 1.675,2.773c0.383,1.047 0.575,2.268 0.575,3.663c0,1.535 -0.279,2.956 -0.837,4.265c-0.558,1.308 -1.343,2.442 -2.355,3.401c-1.011,0.959 -2.224,1.709 -3.637,2.25c-1.412,0.541 -2.956,0.829 -4.631,0.863c-1.325,0.035 -2.625,-0.113 -3.898,-0.444c-1.273,-0.332 -2.416,-0.742 -3.427,-1.23c-1.5,-0.768 -2.477,-1.57 -2.931,-2.407c-0.453,-0.837 -0.453,-1.57 0,-2.198c0.384,-0.488 0.829,-0.715 1.335,-0.68c0.505,0.035 1.055,0.244 1.648,0.628c1.046,0.697 2.189,1.299 3.427,1.805c1.239,0.506 2.591,0.759 4.056,0.759c0.907,0 1.788,-0.175 2.642,-0.523c0.855,-0.349 1.614,-0.82 2.277,-1.413c0.662,-0.593 1.194,-1.308 1.596,-2.146c0.401,-0.837 0.601,-1.744 0.601,-2.721c0,-0.977 -0.192,-1.857 -0.575,-2.642c-0.384,-0.785 -0.89,-1.483 -1.518,-2.093c-0.628,-0.611 -1.334,-1.134 -2.119,-1.57c-0.785,-0.436 -1.561,-0.811 -2.329,-1.125c-1.43,-0.558 -2.756,-1.134 -3.977,-1.727c-1.22,-0.593 -2.276,-1.273 -3.165,-2.041c-0.89,-0.767 -1.579,-1.683 -2.067,-2.747c-0.489,-1.064 -0.733,-2.364 -0.733,-3.898c0,-1.396 0.279,-2.66 0.837,-3.794c0.559,-1.134 1.3,-2.093 2.224,-2.878c0.925,-0.785 1.989,-1.378 3.192,-1.779c1.204,-0.402 2.468,-0.602 3.794,-0.602c1.326,0 2.616,0.183 3.872,0.549c1.256,0.367 2.329,0.82 3.218,1.361c0.89,0.541 1.527,1.151 1.91,1.831c0.384,0.681 0.384,1.352 0,2.015c-0.314,0.523 -0.785,0.776 -1.412,0.759c-0.628,-0.018 -1.204,-0.218 -1.727,-0.602c-0.698,-0.489 -1.57,-0.986 -2.617,-1.491c-1.046,-0.506 -2.128,-0.742 -3.244,-0.707c-1.779,0 -3.201,0.506 -4.265,1.518c-1.064,1.011 -1.596,2.302 -1.596,3.872Z" style="fill:#aad4d1;fill-rule:nonzero;"/><path d="M312.898,183.593c0.105,0.733 0.078,1.404 -0.079,2.015c-0.157,0.61 -0.723,0.933 -1.7,0.968c-0.628,0 -1.082,-0.183 -1.361,-0.55c-0.279,-0.366 -0.488,-0.985 -0.628,-1.857l-3.035,-20.879c-0.104,-0.663 -0.235,-1.483 -0.392,-2.459c-0.157,-0.977 -0.332,-1.823 -0.523,-2.538c-0.192,-0.715 -0.402,-1.178 -0.628,-1.387c-0.227,-0.209 -0.463,0.105 -0.707,0.942l-7.797,26.844c-0.174,0.663 -0.392,1.142 -0.654,1.439c-0.261,0.297 -0.671,0.445 -1.229,0.445c-0.593,0 -1.012,-0.131 -1.256,-0.393c-0.244,-0.261 -0.471,-0.758 -0.681,-1.491c-1.325,-4.5 -2.66,-8.965 -4.003,-13.396c-1.343,-4.43 -2.642,-8.896 -3.898,-13.396c-0.244,-0.837 -0.497,-1.256 -0.759,-1.256c-0.261,0 -0.462,0.419 -0.602,1.256l-3.872,26.164c-0.104,0.802 -0.305,1.422 -0.602,1.858c-0.296,0.436 -0.846,0.654 -1.648,0.654c-1.325,0 -1.831,-0.872 -1.517,-2.617l4.761,-31.135c0.14,-1.046 0.48,-1.831 1.021,-2.354c0.541,-0.524 1.247,-0.785 2.119,-0.785c0.872,0 1.596,0.227 2.172,0.68c0.575,0.454 1.038,1.256 1.386,2.407l7.431,26.216l7.273,-26.268c0.314,-1.117 0.759,-1.901 1.335,-2.355c0.575,-0.453 1.282,-0.68 2.119,-0.68c0.837,0 1.544,0.261 2.119,0.785c0.576,0.523 0.951,1.325 1.125,2.407l4.71,30.716Z" style="fill:#aad4d1;fill-rule:nonzero;"/><path d="M331.056,184.483c0,0.662 -0.157,1.177 -0.471,1.543c-0.314,0.367 -0.838,0.55 -1.57,0.55c-0.768,0 -1.3,-0.192 -1.596,-0.576c-0.297,-0.384 -0.445,-0.889 -0.445,-1.517l0,-14.443l-9.628,-17.006c-0.349,-0.628 -0.497,-1.212 -0.445,-1.753c0.052,-0.541 0.305,-0.951 0.759,-1.23c0.453,-0.279 0.942,-0.401 1.465,-0.366c0.523,0.035 0.977,0.401 1.36,1.099l8.582,15.384l8.32,-15.018c0.244,-0.419 0.515,-0.741 0.811,-0.968c0.297,-0.227 0.585,-0.375 0.864,-0.445c0.279,-0.07 0.54,-0.078 0.785,-0.026c0.244,0.052 0.453,0.131 0.628,0.235c0.488,0.349 0.741,0.768 0.758,1.256c0.018,0.489 -0.165,1.082 -0.549,1.779l-9.628,17.059l0,14.443Z" style="fill:#aad4d1;fill-rule:nonzero;"/><path d="M366.115,184.587c0,1.326 -0.698,1.989 -2.093,1.989c-1.326,0 -1.989,-0.646 -1.989,-1.936l0,-33.019c0,-1.291 0.663,-1.936 1.989,-1.936c0.698,0 1.221,0.148 1.57,0.445c0.349,0.296 0.523,0.793 0.523,1.491l0,32.966Z" style="fill:#aad4d1;fill-rule:nonzero;"/><path d="M380.087,184.483c0,0.593 -0.175,1.09 -0.524,1.491c-0.349,0.401 -0.872,0.602 -1.57,0.602c-0.697,0 -1.212,-0.201 -1.543,-0.602c-0.332,-0.401 -0.497,-0.898 -0.497,-1.491l0,-32.757c0,-0.593 0.13,-1.082 0.392,-1.466c0.262,-0.383 0.741,-0.575 1.439,-0.575c0.558,0 0.994,0.157 1.308,0.471c0.314,0.314 0.628,0.663 0.942,1.046l18.786,27.472l0,-26.948c0,-0.593 0.148,-1.082 0.445,-1.466c0.296,-0.383 0.828,-0.575 1.596,-0.575c0.767,0 1.308,0.174 1.622,0.523c0.314,0.349 0.471,0.855 0.471,1.518l0,32.809c0,0.593 -0.131,1.081 -0.393,1.465c-0.261,0.384 -0.741,0.576 -1.439,0.576c-0.488,0 -0.916,-0.148 -1.282,-0.445c-0.366,-0.297 -0.706,-0.672 -1.02,-1.125l-18.733,-27.001l0,26.478Z" style="fill:#aad4d1;fill-rule:nonzero;"/><path d="M429.431,165.749c1.117,0 1.78,0.349 1.989,1.047c0.174,0.384 0.157,0.82 -0.052,1.308c-0.21,0.872 -0.855,1.308 -1.937,1.308l-13.186,0l0,15.28c0,0.593 -0.157,1.055 -0.471,1.387c-0.314,0.331 -0.872,0.497 -1.675,0.497c-0.767,0 -1.29,-0.166 -1.569,-0.497c-0.279,-0.332 -0.419,-0.794 -0.419,-1.387l0,-32.182c0,-0.872 0.174,-1.465 0.523,-1.779c0.349,-0.314 0.977,-0.471 1.884,-0.471l16.379,0c1.465,0 2.197,0.628 2.197,1.884c0,0.698 -0.183,1.178 -0.549,1.439c-0.366,0.262 -0.933,0.393 -1.701,0.393l-14.599,0l0,11.773l13.186,0Z" style="fill:#aad4d1;fill-rule:nonzero;"/><path d="M454.392,149.162c2.651,0 4.962,0.505 6.933,1.517c1.971,1.012 3.611,2.381 4.919,4.108c1.308,1.727 2.294,3.741 2.956,6.044c0.663,2.302 0.995,4.727 0.995,7.273c0,2.582 -0.323,5.015 -0.968,7.3c-0.646,2.285 -1.623,4.299 -2.931,6.044c-1.308,1.744 -2.948,3.122 -4.919,4.134c-1.971,1.011 -4.299,1.517 -6.985,1.517c-2.617,0 -4.919,-0.506 -6.908,-1.517c-1.988,-1.012 -3.636,-2.381 -4.944,-4.108c-1.309,-1.727 -2.294,-3.742 -2.957,-6.044c-0.663,-2.302 -0.994,-4.744 -0.994,-7.326c0,-2.546 0.314,-4.971 0.942,-7.273c0.628,-2.303 1.596,-4.317 2.904,-6.044c1.308,-1.727 2.956,-3.096 4.945,-4.108c1.988,-1.012 4.326,-1.517 7.012,-1.517ZM454.392,183.331c1.953,0 3.663,-0.366 5.128,-1.098c1.465,-0.733 2.686,-1.762 3.663,-3.088c0.977,-1.325 1.709,-2.913 2.198,-4.762c0.488,-1.848 0.732,-3.889 0.732,-6.122c0,-2.023 -0.227,-3.959 -0.68,-5.808c-0.454,-1.849 -1.16,-3.489 -2.119,-4.919c-0.96,-1.43 -2.181,-2.573 -3.663,-3.428c-1.483,-0.854 -3.236,-1.282 -5.259,-1.282c-2.024,0 -3.777,0.428 -5.259,1.282c-1.483,0.855 -2.704,1.989 -3.663,3.402c-0.959,1.413 -1.666,3.035 -2.119,4.866c-0.454,1.832 -0.681,3.742 -0.681,5.73c0,1.954 0.227,3.837 0.681,5.652c0.453,1.814 1.151,3.436 2.093,4.866c0.942,1.43 2.154,2.573 3.636,3.427c1.483,0.855 3.254,1.282 5.312,1.282Z" style="fill:#aad4d1;fill-rule:nonzero;"/></g></svg>