<?xml version="1.0" standalone="no"?><!DOCTYPE svg PUBLIC "-//W3C//DTD SVG 1.1//EN" "http://www.w3.org/Graphics/SVG/1.1/DTD/svg11.dtd"><svg width="100%" height="100%" viewBox="0 0 873 295" version="1.1" xmlns="http://www.w3.org/2000/svg" xmlns:xlink="http://www.w3.org/1999/xlink" xml:space="preserve" style="fill-rule:evenodd;clip-rule:evenodd;stroke-linejoin:round;stroke-miterlimit:1.41421;"><g><g><circle cx="93.927" cy="104.744" r="72.402" style="fill:#4ddfc6;"/></g><path d="M106.135,87.58c0,-2.134 -1.733,-3.867 -3.867,-3.867l-16.682,0c-2.134,0 -3.867,1.733 -3.867,3.867l0,67.068c0,2.134 1.733,3.867 3.867,3.867l16.682,0c2.134,0 3.867,-1.733 3.867,-3.867l0,-67.068Z" style="fill:#fff;"/><path d="M93.927,47.711c7.737,0 14.018,6.281 14.018,14.018c0,7.737 -6.281,14.019 -14.018,14.019c-7.737,0 -14.018,-6.282 -14.018,-14.019c0,-7.737 6.281,-14.018 14.018,-14.018ZM93.927,65.333c2.173,0 3.937,1.764 3.937,3.937c0,2.173 -1.764,3.938 -3.937,3.938c-2.173,0 -3.937,-1.765 -3.937,-3.938c0,-2.173 1.764,-3.937 3.937,-3.937ZM89.044,57.697c1.464,0 2.652,1.188 2.652,2.652c0,1.463 -1.188,2.652 -2.652,2.652c-1.463,0 -2.652,-1.189 -2.652,-2.652c0,-1.464 1.189,-2.652 2.652,-2.652ZM98.81,57.697c1.463,0 2.652,1.188 2.652,2.652c0,1.463 -1.189,2.652 -2.652,2.652c-1.464,0 -2.652,-1.189 -2.652,-2.652c0,-1.464 1.188,-2.652 2.652,-2.652Z" style="fill:#fff;"/></g><g><path d="M43.053,253.006l-3.721,10.437c-0.302,0.847 -0.605,1.664 -0.907,2.45c-0.303,0.787 -0.651,1.513 -1.044,2.178c-0.393,0.666 -0.847,1.195 -1.361,1.588c-0.515,0.394 -1.105,0.59 -1.77,0.59c-1.21,0 -2.148,-0.378 -2.813,-1.134c-0.666,-0.757 -0.666,-2.163 0,-4.22l19.058,-55.45c0.302,-0.968 0.831,-1.739 1.588,-2.314c0.756,-0.575 1.739,-0.862 2.949,-0.862c1.271,0 2.299,0.287 3.086,0.862c0.786,0.575 1.331,1.346 1.633,2.314l19.149,55.631c0.484,1.452 0.514,2.677 0.091,3.676c-0.424,0.998 -1.422,1.497 -2.995,1.497c-1.029,0.061 -1.861,-0.227 -2.496,-0.862c-0.635,-0.635 -1.104,-1.467 -1.406,-2.496l-4.992,-13.885l-24.049,0ZM65.469,246.654l-10.346,-31.128l-10.346,31.128l20.692,0Z" style="fill:#aad4d1;fill-rule:nonzero;"/><path d="M119.103,271.157c-4.537,0 -8.682,-0.757 -12.433,-2.269c-3.751,-1.513 -6.958,-3.691 -9.62,-6.534c-2.662,-2.844 -4.719,-6.308 -6.171,-10.391c-1.452,-4.084 -2.178,-8.697 -2.178,-13.84c0,-4.477 0.711,-8.712 2.133,-12.705c1.422,-3.993 3.373,-7.472 5.853,-10.437c2.481,-2.964 5.461,-5.309 8.939,-7.033c3.479,-1.724 7.306,-2.587 11.481,-2.587c2.178,0 4.265,0.242 6.261,0.726c1.997,0.484 3.812,1.12 5.446,1.906c1.633,0.787 3.085,1.679 4.356,2.677c1.27,0.999 2.299,2.012 3.085,3.041c0.605,1.149 0.847,2.147 0.726,2.994c-0.121,0.484 -0.378,0.893 -0.771,1.226c-0.393,0.332 -0.923,0.559 -1.588,0.68c-0.726,0.182 -1.619,-0.075 -2.677,-0.771c-1.059,-0.696 -2.315,-1.498 -3.767,-2.405c-1.452,-0.908 -3.116,-1.755 -4.991,-2.541c-1.876,-0.787 -3.993,-1.18 -6.353,-1.18c-3.267,0 -6.201,0.787 -8.803,2.36c-2.601,1.573 -4.81,3.599 -6.625,6.08c-1.815,2.481 -3.206,5.309 -4.174,8.485c-0.968,3.177 -1.452,6.338 -1.452,9.484c0,3.872 0.529,7.442 1.588,10.709c1.059,3.267 2.586,6.095 4.583,8.485c1.997,2.39 4.447,4.235 7.351,5.536c2.904,1.301 6.171,1.951 9.801,1.951c2.904,-0.06 5.37,-0.575 7.396,-1.543c2.027,-0.968 3.918,-2.238 5.672,-3.811c1.331,-1.029 2.481,-1.452 3.449,-1.271c0.908,0.242 1.573,0.681 1.997,1.316c0.423,0.635 0.605,1.286 0.544,1.951c-0.06,0.666 -0.59,1.543 -1.588,2.632c-0.998,1.089 -2.36,2.163 -4.084,3.222c-1.724,1.058 -3.736,1.966 -6.035,2.722c-2.299,0.757 -4.749,1.135 -7.351,1.135Z" style="fill:#aad4d1;fill-rule:nonzero;"/><path d="M179.09,271.157c-4.537,0 -8.682,-0.757 -12.433,-2.269c-3.751,-1.513 -6.957,-3.691 -9.62,-6.534c-2.662,-2.844 -4.719,-6.308 -6.171,-10.391c-1.452,-4.084 -2.178,-8.697 -2.178,-13.84c0,-4.477 0.711,-8.712 2.133,-12.705c1.422,-3.993 3.373,-7.472 5.853,-10.437c2.481,-2.964 5.461,-5.309 8.94,-7.033c3.478,-1.724 7.305,-2.587 11.48,-2.587c2.178,0 4.265,0.242 6.262,0.726c1.996,0.484 3.811,1.12 5.445,1.906c1.633,0.787 3.085,1.679 4.356,2.677c1.27,0.999 2.299,2.012 3.085,3.041c0.605,1.149 0.847,2.147 0.726,2.994c-0.121,0.484 -0.378,0.893 -0.771,1.226c-0.393,0.332 -0.923,0.559 -1.588,0.68c-0.726,0.182 -1.619,-0.075 -2.677,-0.771c-1.059,-0.696 -2.315,-1.498 -3.767,-2.405c-1.452,-0.908 -3.115,-1.755 -4.991,-2.541c-1.875,-0.787 -3.993,-1.18 -6.353,-1.18c-3.267,0 -6.201,0.787 -8.803,2.36c-2.601,1.573 -4.809,3.599 -6.624,6.08c-1.815,2.481 -3.207,5.309 -4.175,8.485c-0.968,3.177 -1.452,6.338 -1.452,9.484c0,3.872 0.529,7.442 1.588,10.709c1.059,3.267 2.587,6.095 4.583,8.485c1.997,2.39 4.447,4.235 7.351,5.536c2.904,1.301 6.171,1.951 9.801,1.951c2.904,-0.06 5.37,-0.575 7.397,-1.543c2.026,-0.968 3.917,-2.238 5.672,-3.811c1.331,-1.029 2.48,-1.452 3.448,-1.271c0.908,0.242 1.573,0.681 1.997,1.316c0.423,0.635 0.605,1.286 0.544,1.951c-0.06,0.666 -0.59,1.543 -1.588,2.632c-0.998,1.089 -2.36,2.163 -4.084,3.222c-1.724,1.058 -3.736,1.966 -6.035,2.722c-2.299,0.757 -4.749,1.135 -7.351,1.135Z" style="fill:#aad4d1;fill-rule:nonzero;"/><path d="M217.841,263.08l23.324,0c0.968,0 1.89,0.015 2.768,0.045c0.877,0.03 1.648,0.136 2.314,0.318c0.665,0.181 1.195,0.484 1.588,0.907c0.393,0.424 0.59,1.029 0.59,1.815c0,1.271 -0.333,2.118 -0.998,2.541c-0.666,0.424 -1.755,0.636 -3.268,0.636l-29.312,0c-1.392,0 -2.436,-0.258 -3.131,-0.772c-0.696,-0.514 -1.044,-1.558 -1.044,-3.131l0,-54.269c0,-1.452 0.302,-2.466 0.907,-3.041c0.605,-0.574 1.694,-0.862 3.268,-0.862l28.768,0c1.27,0 2.223,0.227 2.859,0.681c0.635,0.454 0.983,1.286 1.043,2.496c0,1.149 -0.332,1.951 -0.998,2.404c-0.666,0.454 -1.634,0.681 -2.904,0.681l-25.774,0l0,20.601l24.866,0c1.392,0 2.39,0.242 2.995,0.726c0.605,0.484 0.908,1.331 0.908,2.541c0,1.149 -0.303,1.936 -0.908,2.359c-0.605,0.424 -1.603,0.636 -2.995,0.636l-24.866,0l0,22.688Z" style="fill:#aad4d1;fill-rule:nonzero;"/><path d="M268.39,221.515c0,1.694 0.394,3.146 1.18,4.356c0.787,1.21 1.815,2.269 3.086,3.177c1.27,0.907 2.737,1.754 4.401,2.541c1.664,0.786 3.373,1.573 5.128,2.359c2.299,1.029 4.356,2.088 6.171,3.177c1.815,1.089 3.358,2.329 4.628,3.72c1.271,1.392 2.239,2.995 2.904,4.81c0.666,1.815 0.998,3.933 0.998,6.353c0,2.662 -0.484,5.127 -1.452,7.396c-0.968,2.269 -2.329,4.235 -4.083,5.899c-1.755,1.664 -3.857,2.965 -6.308,3.902c-2.45,0.938 -5.127,1.437 -8.031,1.498c-2.299,0.06 -4.553,-0.197 -6.761,-0.771c-2.209,-0.575 -4.19,-1.286 -5.945,-2.133c-2.601,-1.331 -4.295,-2.723 -5.082,-4.175c-0.786,-1.452 -0.786,-2.722 0,-3.811c0.666,-0.847 1.437,-1.241 2.314,-1.18c0.878,0.06 1.831,0.423 2.859,1.089c1.815,1.21 3.797,2.254 5.944,3.131c2.148,0.877 4.493,1.316 7.034,1.316c1.573,0 3.1,-0.303 4.583,-0.908c1.482,-0.605 2.798,-1.422 3.947,-2.45c1.15,-1.029 2.073,-2.269 2.768,-3.721c0.696,-1.452 1.044,-3.025 1.044,-4.719c0,-1.694 -0.333,-3.222 -0.998,-4.583c-0.666,-1.361 -1.543,-2.571 -2.632,-3.63c-1.089,-1.059 -2.314,-1.966 -3.676,-2.723c-1.361,-0.756 -2.707,-1.406 -4.038,-1.951c-2.481,-0.968 -4.78,-1.966 -6.897,-2.995c-2.118,-1.028 -3.948,-2.208 -5.491,-3.539c-1.542,-1.331 -2.737,-2.919 -3.584,-4.764c-0.847,-1.846 -1.271,-4.099 -1.271,-6.761c0,-2.421 0.484,-4.614 1.452,-6.58c0.968,-1.966 2.254,-3.63 3.857,-4.991c1.603,-1.362 3.449,-2.39 5.536,-3.086c2.087,-0.696 4.28,-1.044 6.579,-1.044c2.3,0 4.538,0.318 6.716,0.953c2.178,0.636 4.039,1.422 5.581,2.36c1.543,0.938 2.647,1.996 3.313,3.176c0.665,1.18 0.665,2.345 0,3.494c-0.545,0.908 -1.361,1.346 -2.45,1.316c-1.089,-0.03 -2.088,-0.378 -2.995,-1.044c-1.21,-0.847 -2.723,-1.709 -4.538,-2.586c-1.815,-0.877 -3.69,-1.286 -5.627,-1.225c-3.085,0 -5.551,0.877 -7.396,2.632c-1.845,1.754 -2.768,3.993 -2.768,6.715Z" style="fill:#aad4d1;fill-rule:nonzero;"/><path d="M315.491,221.515c0,1.694 0.393,3.146 1.179,4.356c0.787,1.21 1.815,2.269 3.086,3.177c1.27,0.907 2.738,1.754 4.401,2.541c1.664,0.786 3.373,1.573 5.128,2.359c2.299,1.029 4.356,2.088 6.171,3.177c1.815,1.089 3.358,2.329 4.628,3.72c1.271,1.392 2.239,2.995 2.904,4.81c0.666,1.815 0.999,3.933 0.999,6.353c0,2.662 -0.484,5.127 -1.452,7.396c-0.968,2.269 -2.33,4.235 -4.084,5.899c-1.755,1.664 -3.857,2.965 -6.307,3.902c-2.451,0.938 -5.128,1.437 -8.032,1.498c-2.299,0.06 -4.553,-0.197 -6.761,-0.771c-2.208,-0.575 -4.19,-1.286 -5.944,-2.133c-2.602,-1.331 -4.296,-2.723 -5.082,-4.175c-0.787,-1.452 -0.787,-2.722 0,-3.811c0.665,-0.847 1.437,-1.241 2.314,-1.18c0.877,0.06 1.83,0.423 2.858,1.089c1.816,1.21 3.797,2.254 5.945,3.131c2.148,0.877 4.492,1.316 7.033,1.316c1.573,0 3.101,-0.303 4.583,-0.908c1.482,-0.605 2.798,-1.422 3.948,-2.45c1.149,-1.029 2.072,-2.269 2.768,-3.721c0.695,-1.452 1.043,-3.025 1.043,-4.719c0,-1.694 -0.332,-3.222 -0.998,-4.583c-0.665,-1.361 -1.543,-2.571 -2.632,-3.63c-1.089,-1.059 -2.314,-1.966 -3.675,-2.723c-1.362,-0.756 -2.708,-1.406 -4.039,-1.951c-2.48,-0.968 -4.779,-1.966 -6.897,-2.995c-2.117,-1.028 -3.948,-2.208 -5.49,-3.539c-1.543,-1.331 -2.738,-2.919 -3.585,-4.764c-0.847,-1.846 -1.271,-4.099 -1.271,-6.761c0,-2.421 0.484,-4.614 1.452,-6.58c0.968,-1.966 2.254,-3.63 3.857,-4.991c1.604,-1.362 3.449,-2.39 5.536,-3.086c2.088,-0.696 4.281,-1.044 6.58,-1.044c2.299,0 4.537,0.318 6.715,0.953c2.179,0.636 4.039,1.422 5.582,2.36c1.542,0.938 2.647,1.996 3.312,3.176c0.666,1.18 0.666,2.345 0,3.494c-0.544,0.908 -1.361,1.346 -2.45,1.316c-1.089,-0.03 -2.087,-0.378 -2.995,-1.044c-1.21,-0.847 -2.723,-1.709 -4.538,-2.586c-1.815,-0.877 -3.69,-1.286 -5.626,-1.225c-3.086,0 -5.551,0.877 -7.396,2.632c-1.846,1.754 -2.768,3.993 -2.768,6.715Z" style="fill:#aad4d1;fill-rule:nonzero;"/><path d="M444.994,265.076c0.181,1.271 0.136,2.435 -0.136,3.494c-0.273,1.059 -1.256,1.619 -2.95,1.679c-1.089,0 -1.875,-0.317 -2.359,-0.953c-0.484,-0.635 -0.847,-1.709 -1.089,-3.221l-5.264,-36.211c-0.181,-1.149 -0.408,-2.571 -0.681,-4.265c-0.272,-1.694 -0.574,-3.161 -0.907,-4.401c-0.333,-1.241 -0.696,-2.042 -1.089,-2.405c-0.393,-0.363 -0.802,0.181 -1.225,1.633l-13.522,46.556c-0.303,1.15 -0.681,1.981 -1.135,2.496c-0.454,0.514 -1.164,0.771 -2.132,0.771c-1.029,0 -1.755,-0.227 -2.179,-0.68c-0.423,-0.454 -0.816,-1.316 -1.179,-2.587c-2.299,-7.805 -4.614,-15.549 -6.943,-23.232c-2.329,-7.684 -4.583,-15.428 -6.761,-23.233c-0.423,-1.452 -0.862,-2.178 -1.316,-2.178c-0.454,0 -0.801,0.726 -1.043,2.178l-6.716,45.376c-0.182,1.392 -0.529,2.465 -1.044,3.222c-0.514,0.756 -1.467,1.134 -2.858,1.134c-2.299,0 -3.177,-1.512 -2.632,-4.537l8.258,-53.998c0.242,-1.815 0.832,-3.176 1.77,-4.084c0.938,-0.907 2.163,-1.361 3.675,-1.361c1.513,0 2.768,0.393 3.767,1.18c0.998,0.786 1.799,2.178 2.404,4.174l12.887,45.467l12.615,-45.557c0.544,-1.936 1.316,-3.298 2.314,-4.084c0.998,-0.787 2.223,-1.18 3.675,-1.18c1.452,0 2.678,0.454 3.676,1.361c0.998,0.908 1.649,2.299 1.951,4.175l8.168,53.271Z" style="fill:#aad4d1;fill-rule:nonzero;"/><path d="M476.485,266.619c0,1.15 -0.273,2.042 -0.817,2.677c-0.545,0.636 -1.452,0.953 -2.723,0.953c-1.331,0 -2.253,-0.333 -2.768,-0.998c-0.514,-0.666 -0.771,-1.543 -0.771,-2.632l0,-25.048l-16.698,-29.494c-0.605,-1.089 -0.862,-2.102 -0.772,-3.04c0.091,-0.938 0.53,-1.649 1.316,-2.133c0.787,-0.484 1.634,-0.696 2.541,-0.635c0.908,0.06 1.694,0.696 2.36,1.906l14.883,26.681l14.43,-26.046c0.423,-0.726 0.892,-1.286 1.406,-1.679c0.515,-0.393 1.014,-0.65 1.498,-0.771c0.484,-0.121 0.938,-0.136 1.361,-0.046c0.424,0.091 0.787,0.227 1.089,0.409c0.847,0.605 1.286,1.331 1.316,2.178c0.03,0.847 -0.287,1.875 -0.953,3.085l-16.698,29.585l0,25.048Z" style="fill:#aad4d1;fill-rule:nonzero;"/><path d="M537.289,266.801c0,2.299 -1.21,3.448 -3.63,3.448c-2.3,0 -3.449,-1.119 -3.449,-3.358l0,-57.264c0,-2.239 1.149,-3.358 3.449,-3.358c1.21,0 2.117,0.257 2.722,0.771c0.605,0.515 0.908,1.377 0.908,2.587l0,57.174Z" style="fill:#aad4d1;fill-rule:nonzero;"/><path d="M561.519,266.619c0,1.029 -0.302,1.891 -0.907,2.586c-0.605,0.696 -1.513,1.044 -2.723,1.044c-1.21,0 -2.102,-0.348 -2.677,-1.044c-0.575,-0.695 -0.862,-1.557 -0.862,-2.586l0,-56.811c0,-1.028 0.227,-1.875 0.681,-2.541c0.453,-0.665 1.285,-0.998 2.495,-0.998c0.968,0 1.725,0.272 2.269,0.817c0.545,0.544 1.089,1.149 1.634,1.815l32.58,47.645l0,-46.738c0,-1.028 0.257,-1.875 0.771,-2.541c0.514,-0.665 1.437,-0.998 2.768,-0.998c1.331,0 2.269,0.302 2.813,0.907c0.545,0.605 0.817,1.483 0.817,2.632l0,56.902c0,1.028 -0.227,1.875 -0.681,2.541c-0.453,0.665 -1.285,0.998 -2.495,0.998c-0.847,0 -1.588,-0.257 -2.224,-0.771c-0.635,-0.515 -1.225,-1.165 -1.769,-1.951l-32.49,-46.828l0,45.92Z" style="fill:#aad4d1;fill-rule:nonzero;"/><path d="M647.099,234.13c1.936,0 3.085,0.605 3.448,1.815c0.303,0.665 0.272,1.422 -0.091,2.269c-0.363,1.512 -1.482,2.268 -3.357,2.268l-22.87,0l0,26.5c0,1.029 -0.272,1.83 -0.817,2.405c-0.544,0.575 -1.512,0.862 -2.904,0.862c-1.331,0 -2.238,-0.287 -2.722,-0.862c-0.484,-0.575 -0.726,-1.376 -0.726,-2.405l0,-55.812c0,-1.513 0.302,-2.542 0.907,-3.086c0.605,-0.545 1.694,-0.817 3.267,-0.817l28.406,0c2.541,0 3.811,1.089 3.811,3.267c0,1.21 -0.317,2.042 -0.953,2.496c-0.635,0.454 -1.618,0.681 -2.949,0.681l-25.32,0l0,20.419l22.87,0Z" style="fill:#aad4d1;fill-rule:nonzero;"/><path d="M690.387,205.361c4.598,0 8.607,0.878 12.025,2.632c3.418,1.755 6.262,4.129 8.531,7.124c2.269,2.995 3.978,6.489 5.127,10.482c1.15,3.993 1.724,8.198 1.724,12.615c0,4.477 -0.559,8.697 -1.678,12.66c-1.12,3.962 -2.814,7.456 -5.083,10.481c-2.268,3.026 -5.112,5.415 -8.53,7.17c-3.419,1.754 -7.457,2.632 -12.116,2.632c-4.537,0 -8.53,-0.878 -11.979,-2.632c-3.448,-1.755 -6.307,-4.129 -8.576,-7.124c-2.269,-2.995 -3.978,-6.489 -5.127,-10.482c-1.15,-3.993 -1.725,-8.228 -1.725,-12.705c0,-4.417 0.545,-8.622 1.634,-12.615c1.089,-3.993 2.768,-7.487 5.037,-10.482c2.268,-2.995 5.127,-5.369 8.576,-7.124c3.448,-1.754 7.502,-2.632 12.16,-2.632ZM690.387,264.623c3.388,0 6.353,-0.636 8.894,-1.906c2.541,-1.271 4.659,-3.056 6.353,-5.355c1.694,-2.299 2.964,-5.052 3.811,-8.258c0.847,-3.207 1.271,-6.746 1.271,-10.618c0,-3.509 -0.393,-6.867 -1.18,-10.074c-0.786,-3.206 -2.012,-6.05 -3.675,-8.53c-1.664,-2.481 -3.782,-4.462 -6.353,-5.945c-2.571,-1.482 -5.612,-2.223 -9.121,-2.223c-3.509,0 -6.549,0.741 -9.12,2.223c-2.572,1.483 -4.689,3.449 -6.353,5.899c-1.664,2.451 -2.889,5.264 -3.675,8.44c-0.787,3.177 -1.18,6.489 -1.18,9.938c0,3.388 0.393,6.655 1.18,9.801c0.786,3.146 1.996,5.959 3.63,8.44c1.633,2.48 3.736,4.462 6.307,5.944c2.571,1.482 5.642,2.224 9.211,2.224Z" style="fill:#aad4d1;fill-rule:nonzero;"/></g><g><path d="M757.88,207.33c0,-0.486 0.109,-0.871 0.329,-1.154c0.22,-0.284 0.615,-0.426 1.184,-0.426c0.518,0 0.906,0.149 1.164,0.446c0.259,0.297 0.389,0.675 0.389,1.134l0,25.359c0,0.459 -0.123,0.837 -0.369,1.134c-0.246,0.297 -0.628,0.459 -1.145,0.486c-0.518,0 -0.906,-0.155 -1.164,-0.465c-0.259,-0.311 -0.388,-0.696 -0.388,-1.155l0,-11.667l-14.205,0l0,11.667c0,0.459 -0.123,0.837 -0.369,1.134c-0.246,0.297 -0.627,0.459 -1.145,0.486c-0.517,0 -0.906,-0.155 -1.164,-0.465c-0.259,-0.311 -0.388,-0.696 -0.388,-1.155l0,-25.359c0,-0.459 0.129,-0.837 0.388,-1.134c0.258,-0.297 0.647,-0.446 1.164,-0.446c0.518,0 0.899,0.149 1.145,0.446c0.246,0.297 0.369,0.675 0.369,1.134l0,10.938l14.205,0l0,-10.938Z" style="fill:#40bfb5;fill-rule:nonzero;"/><path d="M779.156,205.345c2.053,0 3.842,0.392 5.368,1.175c1.526,0.783 2.795,1.843 3.808,3.18c1.012,1.337 1.775,2.896 2.289,4.679c0.513,1.782 0.769,3.659 0.769,5.631c0,1.998 -0.25,3.882 -0.749,5.651c-0.5,1.769 -1.256,3.328 -2.269,4.678c-1.012,1.351 -2.282,2.418 -3.808,3.201c-1.525,0.783 -3.328,1.174 -5.408,1.174c-2.025,0 -3.808,-0.391 -5.347,-1.174c-1.539,-0.783 -2.815,-1.843 -3.828,-3.18c-1.013,-1.337 -1.776,-2.897 -2.289,-4.679c-0.513,-1.783 -0.769,-3.673 -0.769,-5.671c0,-1.972 0.243,-3.849 0.729,-5.631c0.486,-1.783 1.235,-3.342 2.248,-4.679c1.013,-1.337 2.289,-2.397 3.828,-3.18c1.539,-0.783 3.349,-1.175 5.428,-1.175ZM779.156,231.798c1.513,0 2.836,-0.284 3.97,-0.851c1.135,-0.567 2.08,-1.364 2.836,-2.39c0.756,-1.026 1.323,-2.255 1.701,-3.686c0.378,-1.432 0.567,-3.011 0.567,-4.74c0,-1.566 -0.175,-3.065 -0.526,-4.496c-0.351,-1.432 -0.898,-2.701 -1.641,-3.808c-0.742,-1.108 -1.688,-1.992 -2.835,-2.654c-1.148,-0.661 -2.505,-0.992 -4.072,-0.992c-1.566,0 -2.923,0.331 -4.071,0.992c-1.148,0.662 -2.093,1.54 -2.835,2.633c-0.743,1.094 -1.29,2.35 -1.641,3.768c-0.351,1.418 -0.527,2.896 -0.527,4.436c0,1.512 0.176,2.97 0.527,4.375c0.351,1.404 0.891,2.66 1.62,3.767c0.729,1.107 1.668,1.992 2.816,2.653c1.147,0.662 2.518,0.993 4.111,0.993Z" style="fill:#40bfb5;fill-rule:nonzero;"/><path d="M800.262,232.689c0,0.459 -0.135,0.844 -0.405,1.155c-0.27,0.31 -0.676,0.465 -1.216,0.465c-0.54,0 -0.938,-0.155 -1.195,-0.465c-0.256,-0.311 -0.384,-0.696 -0.384,-1.155l0,-25.359c0,-0.459 0.101,-0.837 0.303,-1.134c0.203,-0.297 0.574,-0.446 1.114,-0.446c0.432,0 0.77,0.122 1.013,0.365c0.243,0.243 0.486,0.513 0.729,0.81l14.543,21.267l0,-20.862c0,-0.459 0.115,-0.837 0.344,-1.134c0.23,-0.297 0.642,-0.446 1.236,-0.446c0.594,0 1.013,0.135 1.256,0.405c0.243,0.27 0.364,0.662 0.364,1.175l0,25.4c0,0.459 -0.101,0.837 -0.303,1.134c-0.203,0.297 -0.574,0.445 -1.114,0.445c-0.379,0 -0.709,-0.114 -0.993,-0.344c-0.284,-0.23 -0.547,-0.52 -0.79,-0.871l-14.502,-20.903l0,20.498Z" style="fill:#40bfb5;fill-rule:nonzero;"/><path d="M845.551,222.238l-6.441,0c-1.269,0 -1.904,-0.473 -1.904,-1.418c0,-1.026 0.635,-1.54 1.904,-1.54l7.332,0c0.865,0 1.465,0.203 1.803,0.608c0.338,0.405 0.506,1.175 0.506,2.309c0,1.593 -0.202,3.14 -0.607,4.638c-0.405,1.499 -1.06,2.829 -1.965,3.991c-0.905,1.161 -2.079,2.099 -3.524,2.815c-1.445,0.716 -3.207,1.073 -5.287,1.073c-2.025,0 -3.848,-0.384 -5.468,-1.154c-1.621,-0.77 -3.012,-1.809 -4.173,-3.119c-1.161,-1.31 -2.052,-2.843 -2.674,-4.598c-0.621,-1.755 -0.931,-3.632 -0.931,-5.631c0,-1.944 0.304,-3.815 0.911,-5.61c0.608,-1.796 1.479,-3.376 2.613,-4.74c1.134,-1.364 2.505,-2.458 4.112,-3.281c1.607,-0.824 3.409,-1.236 5.408,-1.236c1.161,0 2.282,0.115 3.362,0.345c1.08,0.229 2.161,0.654 3.241,1.276c0.594,0.351 1.127,0.715 1.6,1.093c0.473,0.378 0.857,0.743 1.154,1.094c0.297,0.351 0.487,0.689 0.568,1.013c0.081,0.324 0.04,0.607 -0.122,0.851c-0.108,0.189 -0.257,0.371 -0.446,0.546c-0.189,0.176 -0.411,0.291 -0.668,0.345c-0.257,0.054 -0.533,0.047 -0.83,-0.021c-0.297,-0.067 -0.595,-0.249 -0.892,-0.546c-0.648,-0.622 -1.262,-1.135 -1.843,-1.54c-0.58,-0.405 -1.154,-0.729 -1.721,-0.972c-0.568,-0.243 -1.141,-0.412 -1.722,-0.506c-0.581,-0.095 -1.195,-0.142 -1.843,-0.142c-1.351,0 -2.613,0.331 -3.788,0.992c-1.175,0.662 -2.194,1.54 -3.058,2.633c-0.865,1.094 -1.546,2.35 -2.046,3.768c-0.5,1.418 -0.75,2.896 -0.75,4.436c0,1.593 0.25,3.105 0.75,4.537c0.5,1.431 1.195,2.68 2.086,3.747c0.891,1.066 1.951,1.917 3.18,2.552c1.229,0.634 2.572,0.952 4.031,0.952c1.485,0 2.741,-0.264 3.767,-0.79c1.026,-0.527 1.864,-1.236 2.512,-2.127c0.648,-0.891 1.121,-1.911 1.418,-3.058c0.297,-1.148 0.445,-2.343 0.445,-3.585Z" style="fill:#40bfb5;fill-rule:nonzero;"/><path d="M744.094,269.309c0,0.46 -0.118,0.817 -0.353,1.074c-0.236,0.257 -0.691,0.385 -1.368,0.385c-0.647,0 -1.103,-0.135 -1.367,-0.405c-0.265,-0.27 -0.397,-0.621 -0.397,-1.054l0,-25.52c0,-0.487 0.132,-0.871 0.397,-1.155c0.264,-0.284 0.72,-0.425 1.367,-0.425c0.618,0 1.059,0.135 1.324,0.405c0.264,0.27 0.397,0.661 0.397,1.175l0,9.965l11.778,-9.803c0.353,-0.27 0.699,-0.541 1.037,-0.811c0.338,-0.27 0.677,-0.486 1.015,-0.648c0.338,-0.162 0.661,-0.236 0.97,-0.223c0.309,0.014 0.625,0.156 0.949,0.426c0.706,0.675 0.544,1.445 -0.486,2.309l-13.102,10.532l13.72,12.072c0.559,0.513 0.875,0.999 0.949,1.458c0.073,0.46 -0.037,0.851 -0.331,1.175c-0.647,0.756 -1.53,0.702 -2.647,-0.162l-13.852,-12.639l0,11.869Z" style="fill:#40bfb5;fill-rule:nonzero;"/><path d="M779.156,241.804c2.053,0 3.842,0.391 5.368,1.174c1.526,0.784 2.795,1.844 3.808,3.18c1.012,1.337 1.775,2.897 2.289,4.679c0.513,1.783 0.769,3.66 0.769,5.631c0,1.998 -0.25,3.882 -0.749,5.651c-0.5,1.769 -1.256,3.329 -2.269,4.679c-1.012,1.35 -2.282,2.417 -3.808,3.2c-1.525,0.783 -3.328,1.175 -5.408,1.175c-2.025,0 -3.808,-0.392 -5.347,-1.175c-1.539,-0.783 -2.815,-1.843 -3.828,-3.18c-1.013,-1.337 -1.776,-2.896 -2.289,-4.679c-0.513,-1.782 -0.769,-3.673 -0.769,-5.671c0,-1.971 0.243,-3.848 0.729,-5.631c0.486,-1.782 1.235,-3.342 2.248,-4.679c1.013,-1.336 2.289,-2.396 3.828,-3.18c1.539,-0.783 3.349,-1.174 5.428,-1.174ZM779.156,268.256c1.513,0 2.836,-0.283 3.97,-0.85c1.135,-0.568 2.08,-1.364 2.836,-2.391c0.756,-1.026 1.323,-2.255 1.701,-3.686c0.378,-1.431 0.567,-3.011 0.567,-4.739c0,-1.567 -0.175,-3.066 -0.526,-4.497c-0.351,-1.431 -0.898,-2.701 -1.641,-3.808c-0.742,-1.107 -1.688,-1.992 -2.835,-2.653c-1.148,-0.662 -2.505,-0.993 -4.072,-0.993c-1.566,0 -2.923,0.331 -4.071,0.993c-1.148,0.661 -2.093,1.539 -2.835,2.633c-0.743,1.094 -1.29,2.349 -1.641,3.767c-0.351,1.418 -0.527,2.897 -0.527,4.436c0,1.512 0.176,2.971 0.527,4.375c0.351,1.404 0.891,2.66 1.62,3.767c0.729,1.108 1.668,1.992 2.816,2.654c1.147,0.661 2.518,0.992 4.111,0.992Z" style="fill:#40bfb5;fill-rule:nonzero;"/><path d="M800.262,269.147c0,0.46 -0.135,0.844 -0.405,1.155c-0.27,0.311 -0.676,0.466 -1.216,0.466c-0.54,0 -0.938,-0.155 -1.195,-0.466c-0.256,-0.311 -0.384,-0.695 -0.384,-1.155l0,-25.358c0,-0.46 0.101,-0.838 0.303,-1.135c0.203,-0.297 0.574,-0.445 1.114,-0.445c0.432,0 0.77,0.121 1.013,0.364c0.243,0.243 0.486,0.513 0.729,0.81l14.543,21.268l0,-20.862c0,-0.46 0.115,-0.838 0.344,-1.135c0.23,-0.297 0.642,-0.445 1.236,-0.445c0.594,0 1.013,0.135 1.256,0.405c0.243,0.27 0.364,0.661 0.364,1.175l0,25.399c0,0.459 -0.101,0.837 -0.303,1.134c-0.203,0.297 -0.574,0.446 -1.114,0.446c-0.379,0 -0.709,-0.115 -0.993,-0.345c-0.284,-0.229 -0.547,-0.519 -0.79,-0.87l-14.502,-20.903l0,20.497Z" style="fill:#40bfb5;fill-rule:nonzero;"/><path d="M845.551,258.696l-6.441,0c-1.269,0 -1.904,-0.473 -1.904,-1.418c0,-1.026 0.635,-1.539 1.904,-1.539l7.332,0c0.865,0 1.465,0.202 1.803,0.607c0.338,0.406 0.506,1.175 0.506,2.31c0,1.593 -0.202,3.139 -0.607,4.638c-0.405,1.499 -1.06,2.829 -1.965,3.99c-0.905,1.161 -2.079,2.1 -3.524,2.815c-1.445,0.716 -3.207,1.074 -5.287,1.074c-2.025,0 -3.848,-0.385 -5.468,-1.155c-1.621,-0.769 -3.012,-1.809 -4.173,-3.119c-1.161,-1.31 -2.052,-2.842 -2.674,-4.598c-0.621,-1.755 -0.931,-3.632 -0.931,-5.63c0,-1.945 0.304,-3.815 0.911,-5.611c0.608,-1.796 1.479,-3.376 2.613,-4.74c1.134,-1.363 2.505,-2.457 4.112,-3.281c1.607,-0.824 3.409,-1.235 5.408,-1.235c1.161,0 2.282,0.114 3.362,0.344c1.08,0.229 2.161,0.655 3.241,1.276c0.594,0.351 1.127,0.716 1.6,1.094c0.473,0.378 0.857,0.742 1.154,1.093c0.297,0.352 0.487,0.689 0.568,1.013c0.081,0.324 0.04,0.608 -0.122,0.851c-0.108,0.189 -0.257,0.371 -0.446,0.547c-0.189,0.175 -0.411,0.29 -0.668,0.344c-0.257,0.054 -0.533,0.047 -0.83,-0.02c-0.297,-0.068 -0.595,-0.25 -0.892,-0.547c-0.648,-0.621 -1.262,-1.134 -1.843,-1.539c-0.58,-0.405 -1.154,-0.73 -1.721,-0.973c-0.568,-0.243 -1.141,-0.411 -1.722,-0.506c-0.581,-0.094 -1.195,-0.142 -1.843,-0.142c-1.351,0 -2.613,0.331 -3.788,0.993c-1.175,0.661 -2.194,1.539 -3.058,2.633c-0.865,1.094 -1.546,2.349 -2.046,3.767c-0.5,1.418 -0.75,2.897 -0.75,4.436c0,1.593 0.25,3.106 0.75,4.537c0.5,1.431 1.195,2.68 2.086,3.747c0.891,1.067 1.951,1.918 3.18,2.552c1.229,0.635 2.572,0.952 4.031,0.952c1.485,0 2.741,-0.263 3.767,-0.79c1.026,-0.526 1.864,-1.235 2.512,-2.126c0.648,-0.892 1.121,-1.911 1.418,-3.059c0.297,-1.148 0.445,-2.343 0.445,-3.585Z" style="fill:#40bfb5;fill-rule:nonzero;"/></g><g><path d="M304.681,32.593c-0.827,2.687 -1.679,5.322 -2.557,7.905c-0.879,2.583 -1.783,5.167 -2.713,7.75l27.125,0c-0.207,-0.207 -0.362,-0.413 -0.465,-0.62c-1.757,-2.067 -3.565,-4.108 -5.425,-6.123c-1.86,-2.015 -4.03,-4.21 -6.51,-6.587c-1.757,-1.757 -2.867,-3.384 -3.332,-4.883c-0.465,-1.498 -0.026,-2.97 1.317,-4.417c1.447,-1.55 2.997,-2.273 4.65,-2.17c1.653,0.103 3.565,1.188 5.735,3.255c2.893,2.687 5.296,5.012 7.208,6.975c1.911,1.963 3.9,4.185 5.967,6.665c1.24,1.447 2.118,2.816 2.635,4.107c0.517,1.292 0.362,2.558 -0.465,3.798l19.685,0c2.17,0 3.72,0.491 4.65,1.472c0.93,0.982 1.395,2.455 1.395,4.418c0,1.86 -0.465,3.255 -1.395,4.185c-0.93,0.93 -2.48,1.395 -4.65,1.395l-25.885,0l0,22.785l22.32,-0.155c3.927,0 5.89,1.963 5.89,5.89c0,1.86 -0.465,3.332 -1.395,4.417c-0.93,1.085 -2.428,1.628 -4.495,1.628l-22.32,0l0,22.32l22.165,0c2.067,0 3.565,0.542 4.495,1.627c0.93,1.085 1.395,2.558 1.395,4.418c0,1.757 -0.465,3.177 -1.395,4.262c-0.93,1.085 -2.428,1.628 -4.495,1.628l-22.165,0l0,23.095l27.59,0c2.17,0 3.694,0.491 4.573,1.472c0.878,0.982 1.317,2.455 1.317,4.418c0,1.963 -0.439,3.41 -1.317,4.34c-0.879,0.93 -2.403,1.395 -4.573,1.395l-64.325,0l0,3.255c0,2.273 -0.568,3.823 -1.705,4.65c-1.137,0.827 -2.583,1.24 -4.34,1.24c-1.86,0 -3.332,-0.413 -4.417,-1.24c-1.085,-0.827 -1.628,-2.377 -1.628,-4.65l0,-81.84c-0.207,0.413 -0.362,0.672 -0.465,0.775c-1.653,2.687 -3.281,4.262 -4.882,4.727c-1.602,0.465 -3.23,0.13 -4.883,-1.007c-1.757,-1.24 -2.661,-2.635 -2.712,-4.185c-0.052,-1.55 0.749,-3.565 2.402,-6.045c4.96,-7.44 9.197,-15.319 12.71,-23.638c3.513,-8.318 6.303,-16.869 8.37,-25.652c0.62,-2.48 1.628,-4.133 3.023,-4.96c1.395,-0.827 2.97,-0.982 4.727,-0.465c2.067,0.62 3.358,1.602 3.875,2.945c0.517,1.343 0.413,3.152 -0.31,5.425ZM268.721,154.578c0,4.65 -0.852,7.931 -2.557,9.842c-1.705,1.912 -4.883,2.868 -9.533,2.868l-20.615,0c-4.65,0 -7.827,-0.956 -9.532,-2.868c-1.705,-1.911 -2.558,-5.192 -2.558,-9.842l0,-28.52c0,-2.79 0.181,-5.089 0.543,-6.898c0.361,-1.808 1.007,-3.255 1.937,-4.34c0.93,-1.085 2.222,-1.86 3.875,-2.325c1.653,-0.465 3.772,-0.697 6.355,-0.697l19.065,0c2.583,0 4.702,0.207 6.355,0.62c1.653,0.413 2.971,1.162 3.953,2.247c0.981,1.085 1.653,2.558 2.015,4.418c0.361,1.86 0.594,4.185 0.697,6.975l0,28.52ZM274.921,56.308c0,1.86 -0.413,3.255 -1.24,4.185c-0.827,0.93 -2.377,1.395 -4.65,1.395l-47.275,0c-2.067,0 -3.462,-0.465 -4.185,-1.395c-0.723,-0.93 -1.085,-2.325 -1.085,-4.185c0,-1.757 0.362,-3.1 1.085,-4.03c0.723,-0.93 2.118,-1.395 4.185,-1.395l26.66,0c-0.723,-0.31 -1.602,-1.188 -2.635,-2.635c-1.653,-2.17 -3.436,-4.392 -5.347,-6.665c-1.912,-2.273 -3.695,-4.133 -5.348,-5.58c-1.757,-1.55 -2.738,-3.152 -2.945,-4.805c-0.207,-1.653 0.362,-3.1 1.705,-4.34c1.447,-1.343 2.893,-1.938 4.34,-1.783c1.447,0.155 3.048,1.163 4.805,3.023c2.377,2.067 4.469,4.185 6.278,6.355c1.808,2.17 3.539,4.288 5.192,6.355c1.55,2.067 2.403,4.03 2.558,5.89c0.155,1.86 -0.646,3.255 -2.403,4.185l14.415,0c2.273,0 3.823,0.465 4.65,1.395c0.827,0.93 1.24,2.273 1.24,4.03ZM257.251,125.283c0,-0.827 -0.155,-1.498 -0.465,-2.015c-0.31,-0.517 -0.827,-0.775 -1.55,-0.775l-17.36,0c-1.033,0 -1.679,0.258 -1.937,0.775c-0.259,0.517 -0.388,1.188 -0.388,2.015l0,28.365c0,0.827 0.155,1.524 0.465,2.092c0.31,0.569 0.93,0.853 1.86,0.853l17.05,0c1.137,0 1.808,-0.233 2.015,-0.698c0.207,-0.465 0.31,-1.214 0.31,-2.247l0,-28.365ZM294.916,151.633l24.8,0l0,-23.095l-24.8,0l0,23.095ZM294.916,82.503l24.8,0l0,-22.785l-24.8,0l0,22.785ZM294.916,116.603l24.8,0l0,-22.32l-24.8,0l0,22.32ZM269.496,96.918c0,1.86 -0.387,3.255 -1.162,4.185c-0.775,0.93 -2.145,1.395 -4.108,1.395l-35.495,0c-2.067,0 -3.462,-0.465 -4.185,-1.395c-0.723,-0.93 -1.085,-2.325 -1.085,-4.185c0,-1.963 0.362,-3.358 1.085,-4.185c0.723,-0.827 2.118,-1.24 4.185,-1.24l35.495,0c1.963,0 3.333,0.465 4.108,1.395c0.775,0.93 1.162,2.273 1.162,4.03ZM269.806,76.148c0,1.757 -0.387,3.126 -1.162,4.107c-0.775,0.982 -2.196,1.473 -4.263,1.473l-35.34,0c-2.067,0 -3.487,-0.491 -4.262,-1.473c-0.775,-0.981 -1.163,-2.35 -1.163,-4.107c0,-1.447 0.413,-2.713 1.24,-3.798c0.827,-1.085 2.222,-1.627 4.185,-1.627l35.34,0c1.963,0 3.358,0.542 4.185,1.627c0.827,1.085 1.24,2.351 1.24,3.798Z" style="fill:#fff;fill-rule:nonzero;"/><path d="M393.341,83.898c-2.273,0 -3.927,-0.568 -4.96,-1.705c-1.033,-1.137 -1.55,-2.635 -1.55,-4.495c0,-1.86 0.517,-3.358 1.55,-4.495c1.033,-1.137 2.687,-1.705 4.96,-1.705l57.35,0c-1.136,-3.617 -2.376,-7.182 -3.72,-10.695c-1.343,-3.513 -2.738,-6.923 -4.185,-10.23c-7.13,0.517 -14.699,0.878 -22.707,1.085c-8.009,0.207 -16.921,0.31 -26.738,0.31c-2.893,0 -4.96,-0.465 -6.2,-1.395c-1.24,-0.93 -1.757,-2.687 -1.55,-5.27c0.207,-1.86 0.956,-3.203 2.248,-4.03c1.291,-0.827 3.59,-1.24 6.897,-1.24c21.287,0.103 40.584,-0.698 57.893,-2.403c17.308,-1.705 33.196,-4.262 47.662,-7.672c5.89,-1.343 9.197,-0.31 9.92,3.1c0.517,2.067 0.284,3.823 -0.697,5.27c-0.982,1.447 -2.919,2.48 -5.813,3.1c-8.68,1.86 -16.869,3.462 -24.567,4.805c-7.699,1.343 -15.578,2.428 -23.638,3.255c1.447,3.513 2.868,7.104 4.263,10.772c1.395,3.669 2.661,7.415 3.797,11.238l45.415,0c2.274,0 3.927,0.568 4.96,1.705c1.034,1.137 1.55,2.635 1.55,4.495c0,1.86 -0.516,3.358 -1.55,4.495c-1.033,1.137 -2.686,1.705 -4.96,1.705l-42.315,0c1.654,7.647 2.894,15.397 3.72,23.25l47.895,0c2.274,0 3.927,0.568 4.96,1.705c1.034,1.137 1.55,2.635 1.55,4.495c0,1.86 -0.516,3.358 -1.55,4.495c-1.033,1.137 -2.686,1.705 -4.96,1.705l-47.43,0c0,4.237 -0.155,8.37 -0.465,12.4c-0.93,9.403 -2.996,16.921 -6.2,22.552c-3.203,5.632 -7.336,9.61 -12.4,11.935c-5.063,2.325 -10.876,3.075 -17.437,2.248c-6.562,-0.827 -13.614,-3.048 -21.158,-6.665c-2.79,-1.343 -4.469,-2.79 -5.037,-4.34c-0.569,-1.55 -0.439,-3.203 0.387,-4.96c0.93,-1.86 2.222,-2.919 3.875,-3.178c1.654,-0.258 4.03,0.285 7.13,1.628c5.787,2.48 10.902,4.107 15.345,4.882c4.444,0.775 8.241,0.44 11.393,-1.007c3.151,-1.447 5.709,-4.133 7.672,-8.06c1.964,-3.927 3.359,-9.352 4.185,-16.275c0.207,-1.757 0.362,-3.565 0.465,-5.425c0.104,-1.86 0.155,-3.772 0.155,-5.735l-73.16,0c-2.273,0 -3.927,-0.568 -4.96,-1.705c-1.033,-1.137 -1.55,-2.635 -1.55,-4.495c0,-1.86 0.517,-3.358 1.55,-4.495c1.033,-1.137 2.687,-1.705 4.96,-1.705l72.54,0c-0.413,-3.72 -0.93,-7.543 -1.55,-11.47c-0.62,-3.927 -1.395,-7.853 -2.325,-11.78l-60.915,0Z" style="fill:#fff;fill-rule:nonzero;"/><path d="M634.056,122.028c0,4.857 -1.059,8.163 -3.177,9.92c-2.119,1.757 -5.554,2.635 -10.308,2.635l-52.235,0c-4.753,0 -8.137,-0.878 -10.152,-2.635c-2.015,-1.757 -3.023,-5.063 -3.023,-9.92l0,-46.81c0,-4.857 1.008,-8.163 3.023,-9.92c2.015,-1.757 5.399,-2.635 10.152,-2.635l52.235,0c4.754,0 8.189,0.878 10.308,2.635c2.118,1.757 3.177,5.063 3.177,9.92l0,46.81ZM545.086,46.078c-2.17,0 -3.642,-0.62 -4.417,-1.86c-0.775,-1.24 -1.163,-2.583 -1.163,-4.03c0,-1.757 0.336,-3.152 1.008,-4.185c0.671,-1.033 2.196,-1.55 4.572,-1.55l137.64,0c2.274,0 3.798,0.517 4.573,1.55c0.775,1.033 1.162,2.428 1.162,4.185c0,1.447 -0.439,2.79 -1.317,4.03c-0.879,1.24 -2.351,1.86 -4.418,1.86l-12.245,0l0,100.595c0,3.927 -0.361,7.388 -1.085,10.385c-0.723,2.997 -1.963,5.502 -3.72,7.517c-1.756,2.015 -4.107,3.514 -7.052,4.495c-2.945,0.982 -6.588,1.421 -10.928,1.318c-2.79,0 -5.916,-0.181 -9.377,-0.543c-3.462,-0.361 -7.001,-0.775 -10.618,-1.24c-3.616,-0.465 -7.156,-1.007 -10.617,-1.627c-3.462,-0.62 -6.588,-1.24 -9.378,-1.86c-3.41,-0.827 -5.58,-1.886 -6.51,-3.178c-0.93,-1.291 -1.136,-2.97 -0.62,-5.037c0.517,-1.757 1.499,-2.997 2.945,-3.72c1.447,-0.723 3.617,-0.827 6.51,-0.31c3.824,0.827 7.569,1.576 11.238,2.247c3.668,0.672 7.13,1.24 10.385,1.705c3.255,0.465 6.251,0.827 8.99,1.085c2.738,0.259 5.089,0.388 7.052,0.388c1.86,0 3.436,-0.155 4.728,-0.465c1.291,-0.31 2.351,-0.904 3.177,-1.783c0.827,-0.878 1.447,-2.118 1.86,-3.72c0.414,-1.601 0.62,-3.745 0.62,-6.432l0,-99.82l-112.995,0ZM621.811,76.303c0,-1.343 -1.033,-2.015 -3.1,-2.015l-48.67,0c-1.756,0 -2.635,0.672 -2.635,2.015l0,44.33c0,1.343 0.879,2.015 2.635,2.015l48.67,0c2.067,0 3.1,-0.672 3.1,-2.015l0,-44.33Z" style="fill:#fff;fill-rule:nonzero;"/><path d="M839.121,70.413c0,4.753 -0.93,8.137 -2.79,10.152c-1.86,2.015 -5.27,3.023 -10.23,3.023l-58.59,0c-4.96,0 -8.344,-1.008 -10.152,-3.023c-1.809,-2.015 -2.713,-5.399 -2.713,-10.152l0,-27.745c0,-4.753 0.904,-8.112 2.713,-10.075c1.808,-1.963 5.192,-2.945 10.152,-2.945l58.59,0c4.96,0 8.37,0.982 10.23,2.945c1.86,1.963 2.79,5.322 2.79,10.075l0,27.745ZM817.731,112.883l0,-10.075l-64.48,0c-4.443,0 -6.665,-1.963 -6.665,-5.89c0,-3.927 2.222,-5.89 6.665,-5.89l87.575,0c4.65,0 6.975,1.963 6.975,5.89c0,3.927 -2.325,5.89 -6.975,5.89l-11.625,0l0,10.075l13.64,0c4.444,0 6.665,1.963 6.665,5.89c0,3.927 -2.221,5.89 -6.665,5.89l-13.64,0l0,31.62c0,5.477 -1.705,9.352 -5.115,11.625c-3.41,2.273 -7.595,3.41 -12.555,3.41c-2.996,0 -6.019,-0.181 -9.067,-0.543c-3.049,-0.361 -6.174,-1.214 -9.378,-2.557c-2.48,-0.827 -4.03,-2.067 -4.65,-3.72c-0.62,-1.653 -0.516,-3.255 0.31,-4.805c0.93,-1.963 1.989,-3.126 3.178,-3.488c1.188,-0.361 2.816,-0.232 4.882,0.388c4.34,1.343 7.854,2.299 10.54,2.867c2.687,0.569 4.805,0.698 6.355,0.388c1.55,-0.31 2.61,-1.085 3.178,-2.325c0.568,-1.24 0.852,-2.997 0.852,-5.27l0,-27.59l-68.045,0c-4.236,0 -6.355,-1.963 -6.355,-5.89c0,-3.927 2.119,-5.89 6.355,-5.89l68.045,0ZM747.361,73.978c-4.236,6.407 -8.37,12.142 -12.4,17.205l0,74.4c0,4.547 -1.963,6.82 -5.89,6.82c-1.756,0 -3.177,-0.62 -4.262,-1.86c-1.085,-1.24 -1.628,-2.893 -1.628,-4.96l0,-60.76c-3.823,4.133 -8.06,8.37 -12.71,12.71c-2.066,1.963 -3.875,2.997 -5.425,3.1c-1.55,0.103 -3.255,-0.568 -5.115,-2.015c-1.033,-1.757 -1.343,-3.488 -0.93,-5.193c0.414,-1.705 1.86,-3.59 4.34,-5.657c2.894,-2.583 5.761,-5.27 8.603,-8.06c2.841,-2.79 5.631,-5.761 8.37,-8.913c2.738,-3.151 5.476,-6.587 8.215,-10.307c2.738,-3.72 5.554,-7.75 8.447,-12.09c1.654,-2.48 3.074,-4.159 4.263,-5.038c1.188,-0.878 2.712,-0.904 4.572,-0.077c2.377,1.137 3.694,2.532 3.953,4.185c0.258,1.653 -0.543,3.823 -2.403,6.51ZM746.741,36.003c-4.34,7.13 -9.041,13.717 -14.105,19.762c-5.063,6.045 -10.178,11.29 -15.345,15.733c-2.48,2.067 -4.727,3.255 -6.742,3.565c-2.015,0.31 -3.539,-0.517 -4.573,-2.48c-1.136,-2.067 -1.395,-3.901 -0.775,-5.503c0.62,-1.601 2.274,-3.539 4.96,-5.812c2.48,-2.067 4.831,-4.159 7.053,-6.278c2.221,-2.118 4.391,-4.365 6.51,-6.742c2.118,-2.377 4.211,-5.012 6.277,-7.905c2.067,-2.893 4.185,-6.148 6.355,-9.765c1.137,-1.86 2.351,-3.307 3.643,-4.34c1.291,-1.033 2.971,-1.033 5.037,0c2.067,1.033 3.229,2.325 3.488,3.875c0.258,1.55 -0.336,3.513 -1.783,5.89ZM827.496,61.733l-61.225,0l0,7.905c0,1.757 0.569,2.635 1.705,2.635l57.505,0c1.344,0 2.015,-0.878 2.015,-2.635l0,-7.905ZM827.496,43.288c0,-0.62 -0.155,-1.163 -0.465,-1.628c-0.31,-0.465 -0.775,-0.697 -1.395,-0.697l-57.815,0c-1.033,0 -1.55,0.775 -1.55,2.325l0,7.44l61.225,0l0,-7.44ZM762.861,126.988c1.55,-1.137 3.255,-1.473 5.115,-1.008c1.86,0.465 3.669,2.041 5.425,4.728c2.274,3.41 4.185,6.742 5.735,9.997c1.55,3.255 3.204,6.588 4.96,9.998c1.447,2.687 1.86,4.908 1.24,6.665c-0.62,1.757 -1.808,3.048 -3.565,3.875c-2.376,1.137 -4.236,1.085 -5.58,-0.155c-1.343,-1.24 -2.583,-3.152 -3.72,-5.735c-1.653,-3.823 -3.203,-7.053 -4.65,-9.688c-1.446,-2.635 -3.203,-5.554 -5.27,-8.757c-1.136,-1.86 -1.808,-3.668 -2.015,-5.425c-0.206,-1.757 0.569,-3.255 2.325,-4.495Z" style="fill:#fff;fill-rule:nonzero;"/></g></svg>