<?xml version="1.0" standalone="no"?><!DOCTYPE svg PUBLIC "-//W3C//DTD SVG 1.1//EN" "http://www.w3.org/Graphics/SVG/1.1/DTD/svg11.dtd"><svg width="100%" height="100%" viewBox="0 0 751 295" version="1.1" xmlns="http://www.w3.org/2000/svg" xmlns:xlink="http://www.w3.org/1999/xlink" xml:space="preserve" style="fill-rule:evenodd;clip-rule:evenodd;stroke-linejoin:round;stroke-miterlimit:1.41421;"><g><circle cx="412.494" cy="75.102" r="57.261" style="fill:#fff;"/><path d="M414.331,115.702c-0.479,-7.903 -0.697,-13.009 -0.873,-17.943c-0.103,-2.112 1.751,-1.909 3.114,-1.695c11.384,1.764 16.749,2.587 16.749,2.587c-5.904,-11.146 8.928,-16.543 16.551,-23.027c-5.91,-1.996 -5.102,-1.266 -1.298,-15.453c-12.338,3.917 -11.326,2.774 -13.946,-3.349c0,0 -0.959,1.093 -8.679,9.811c-1.102,1.245 -2.947,0.41 -2.56,-1.489c4.022,-19.892 4.223,-20.702 4.223,-20.702c-7.832,4.729 -7.54,4.996 -8.782,2.558c-4.301,-8.373 -6.336,-12.499 -6.336,-12.499c0,0 -2.035,4.126 -6.336,12.499c-1.242,2.438 -0.95,2.171 -8.782,-2.558c0,0 0.201,0.81 4.223,20.702c0.387,1.899 -1.458,2.734 -2.56,1.489c-7.719,-8.718 -8.675,-9.811 -8.675,-9.811c-2.623,6.123 -1.603,7.266 -13.947,3.349c3.801,14.187 4.609,13.457 -1.302,15.453c7.625,6.484 22.456,11.881 16.552,23.027c0,0 5.366,-0.823 16.749,-2.587c1.363,-0.214 3.219,-0.417 3.114,1.695c-0.176,4.934 -0.394,10.04 -0.873,17.943l3.674,0Z" style="fill:#ef4349;"/><g><g><circle cx="338.903" cy="75.102" r="57.261" style="fill:#ef4349;stroke-width:3px;stroke:#bf000f;"/></g><path d="M348.558,64.647c0,-1.688 -1.371,-3.058 -3.059,-3.058l-13.193,0c-1.688,0 -3.058,1.37 -3.058,3.058l0,53.043c0,1.688 1.37,3.058 3.058,3.058l13.193,0c1.688,0 3.059,-1.37 3.059,-3.058l0,-53.043Z" style="fill:#fff;"/><path d="M338.903,33.115c6.119,0 11.087,4.968 11.087,11.087c0,6.119 -4.968,11.087 -11.087,11.087c-6.119,0 -11.087,-4.968 -11.087,-11.087c0,-6.119 4.968,-11.087 11.087,-11.087ZM338.903,47.052c1.718,0 3.114,1.395 3.114,3.114c0,1.719 -1.396,3.114 -3.114,3.114c-1.719,0 -3.114,-1.395 -3.114,-3.114c0,-1.719 1.395,-3.114 3.114,-3.114ZM335.041,41.013c1.158,0 2.097,0.94 2.097,2.097c0,1.158 -0.939,2.098 -2.097,2.098c-1.157,0 -2.097,-0.94 -2.097,-2.098c0,-1.157 0.94,-2.097 2.097,-2.097ZM342.764,41.013c1.158,0 2.098,0.94 2.098,2.097c0,1.158 -0.94,2.098 -2.098,2.098c-1.157,0 -2.097,-0.94 -2.097,-2.098c0,-1.157 0.94,-2.097 2.097,-2.097Z" style="fill:#fff;"/></g></g><g><path d="M321.158,274.061c-1.8,0 -3.444,-0.3 -4.932,-0.9c-1.488,-0.6 -2.76,-1.464 -3.816,-2.592c-1.056,-1.128 -1.872,-2.502 -2.448,-4.122c-0.576,-1.62 -0.864,-3.45 -0.864,-5.49c0,-1.776 0.282,-3.456 0.846,-5.04c0.564,-1.584 1.338,-2.964 2.322,-4.14c0.984,-1.176 2.166,-2.106 3.546,-2.79c1.38,-0.684 2.898,-1.026 4.554,-1.026c0.864,0 1.692,0.096 2.484,0.288c0.792,0.192 1.512,0.444 2.16,0.756c0.648,0.312 1.224,0.666 1.728,1.062c0.504,0.396 0.912,0.798 1.224,1.206c0.24,0.456 0.336,0.852 0.288,1.188c-0.048,0.192 -0.15,0.354 -0.306,0.486c-0.156,0.132 -0.366,0.222 -0.63,0.27c-0.288,0.072 -0.642,-0.03 -1.062,-0.306c-0.42,-0.276 -0.918,-0.594 -1.494,-0.954c-0.576,-0.36 -1.236,-0.696 -1.98,-1.008c-0.744,-0.312 -1.584,-0.468 -2.52,-0.468c-1.296,0 -2.46,0.312 -3.492,0.936c-1.032,0.624 -1.908,1.428 -2.628,2.412c-0.72,0.984 -1.272,2.106 -1.656,3.366c-0.384,1.26 -0.576,2.514 -0.576,3.762c0,1.536 0.21,2.952 0.63,4.248c0.42,1.296 1.026,2.418 1.818,3.366c0.792,0.948 1.764,1.68 2.916,2.196c1.152,0.516 2.448,0.774 3.888,0.774c1.152,-0.024 2.13,-0.228 2.934,-0.612c0.804,-0.384 1.554,-0.888 2.25,-1.512c0.528,-0.408 0.984,-0.576 1.368,-0.504c0.36,0.096 0.624,0.27 0.792,0.522c0.168,0.252 0.24,0.51 0.216,0.774c-0.024,0.264 -0.234,0.612 -0.63,1.044c-0.396,0.432 -0.936,0.858 -1.62,1.278c-0.684,0.42 -1.482,0.78 -2.394,1.08c-0.912,0.3 -1.884,0.45 -2.916,0.45Z" style="fill:#ff5757;fill-rule:nonzero;"/><path d="M336.854,266.861l-1.476,4.14c-0.12,0.336 -0.24,0.66 -0.36,0.972c-0.12,0.312 -0.258,0.6 -0.414,0.864c-0.156,0.264 -0.336,0.474 -0.54,0.63c-0.204,0.156 -0.438,0.234 -0.702,0.234c-0.48,0 -0.852,-0.15 -1.116,-0.45c-0.264,-0.3 -0.264,-0.858 0,-1.674l7.56,-21.996c0.12,-0.384 0.33,-0.69 0.63,-0.918c0.3,-0.228 0.69,-0.342 1.17,-0.342c0.504,0 0.912,0.114 1.224,0.342c0.312,0.228 0.528,0.534 0.648,0.918l7.596,22.068c0.192,0.576 0.204,1.062 0.036,1.458c-0.168,0.396 -0.564,0.594 -1.188,0.594c-0.408,0.024 -0.738,-0.09 -0.99,-0.342c-0.252,-0.252 -0.438,-0.582 -0.558,-0.99l-1.98,-5.508l-9.54,0ZM345.746,264.341l-4.104,-12.348l-4.104,12.348l8.208,0Z" style="fill:#ff5757;fill-rule:nonzero;"/><path d="M357.698,272.261c0,0.408 -0.12,0.75 -0.36,1.026c-0.24,0.276 -0.6,0.414 -1.08,0.414c-0.48,0 -0.834,-0.138 -1.062,-0.414c-0.228,-0.276 -0.342,-0.618 -0.342,-1.026l0,-22.536c0,-0.408 0.09,-0.744 0.27,-1.008c0.18,-0.264 0.51,-0.396 0.99,-0.396c0.384,0 0.684,0.108 0.9,0.324c0.216,0.216 0.432,0.456 0.648,0.72l12.924,18.9l0,-18.54c0,-0.408 0.102,-0.744 0.306,-1.008c0.204,-0.264 0.57,-0.396 1.098,-0.396c0.528,0 0.9,0.12 1.116,0.36c0.216,0.24 0.324,0.588 0.324,1.044l0,22.572c0,0.408 -0.09,0.744 -0.27,1.008c-0.18,0.264 -0.51,0.396 -0.99,0.396c-0.336,0 -0.63,-0.102 -0.882,-0.306c-0.252,-0.204 -0.486,-0.462 -0.702,-0.774l-12.888,-18.576l0,18.216Z" style="fill:#ff5757;fill-rule:nonzero;"/><path d="M382.898,266.861l-1.476,4.14c-0.12,0.336 -0.24,0.66 -0.36,0.972c-0.12,0.312 -0.258,0.6 -0.414,0.864c-0.156,0.264 -0.336,0.474 -0.54,0.63c-0.204,0.156 -0.438,0.234 -0.702,0.234c-0.48,0 -0.852,-0.15 -1.116,-0.45c-0.264,-0.3 -0.264,-0.858 0,-1.674l7.56,-21.996c0.12,-0.384 0.33,-0.69 0.63,-0.918c0.3,-0.228 0.69,-0.342 1.17,-0.342c0.504,0 0.912,0.114 1.224,0.342c0.312,0.228 0.528,0.534 0.648,0.918l7.596,22.068c0.192,0.576 0.204,1.062 0.036,1.458c-0.168,0.396 -0.564,0.594 -1.188,0.594c-0.408,0.024 -0.738,-0.09 -0.99,-0.342c-0.252,-0.252 -0.438,-0.582 -0.558,-0.99l-1.98,-5.508l-9.54,0ZM391.79,264.341l-4.104,-12.348l-4.104,12.348l8.208,0Z" style="fill:#ff5757;fill-rule:nonzero;"/><path d="M408.998,248.717c1.776,0 3.306,0.318 4.59,0.954c1.284,0.636 2.346,1.506 3.186,2.61c0.84,1.104 1.464,2.406 1.872,3.906c0.408,1.5 0.612,3.102 0.612,4.806c0,1.728 -0.204,3.342 -0.612,4.842c-0.408,1.5 -1.026,2.808 -1.854,3.924c-0.828,1.116 -1.872,1.992 -3.132,2.628c-1.26,0.636 -2.754,0.954 -4.482,0.954l-6.768,0c-0.72,0 -1.152,-0.102 -1.296,-0.306c-0.144,-0.204 -0.216,-0.57 -0.216,-1.098l0,-21.816c0,-0.528 0.072,-0.894 0.216,-1.098c0.144,-0.204 0.576,-0.306 1.296,-0.306l6.588,0ZM403.706,270.929l5.472,0c2.28,0 4.056,-0.864 5.328,-2.592c1.272,-1.728 1.908,-4.212 1.908,-7.452c0,-3.144 -0.654,-5.556 -1.962,-7.236c-1.308,-1.68 -3.366,-2.52 -6.174,-2.52l-4.572,0l0,19.8Z" style="fill:#ff5757;fill-rule:nonzero;"/><path d="M427.466,266.861l-1.476,4.14c-0.12,0.336 -0.24,0.66 -0.36,0.972c-0.12,0.312 -0.258,0.6 -0.414,0.864c-0.156,0.264 -0.336,0.474 -0.54,0.63c-0.204,0.156 -0.438,0.234 -0.702,0.234c-0.48,0 -0.852,-0.15 -1.116,-0.45c-0.264,-0.3 -0.264,-0.858 0,-1.674l7.56,-21.996c0.12,-0.384 0.33,-0.69 0.63,-0.918c0.3,-0.228 0.69,-0.342 1.17,-0.342c0.504,0 0.912,0.114 1.224,0.342c0.312,0.228 0.528,0.534 0.648,0.918l7.596,22.068c0.192,0.576 0.204,1.062 0.036,1.458c-0.168,0.396 -0.564,0.594 -1.188,0.594c-0.408,0.024 -0.738,-0.09 -0.99,-0.342c-0.252,-0.252 -0.438,-0.582 -0.558,-0.99l-1.98,-5.508l-9.54,0ZM436.358,264.341l-4.104,-12.348l-4.104,12.348l8.208,0Z" style="fill:#ff5757;fill-rule:nonzero;"/></g><g><path d="M34.909,212.224l-3.827,10.735c-0.311,0.871 -0.622,1.711 -0.934,2.52c-0.311,0.809 -0.668,1.556 -1.073,2.241c-0.405,0.684 -0.871,1.229 -1.4,1.633c-0.529,0.405 -1.136,0.607 -1.82,0.607c-1.245,0 -2.21,-0.389 -2.894,-1.167c-0.685,-0.778 -0.685,-2.225 0,-4.34l19.603,-57.036c0.311,-0.996 0.855,-1.789 1.633,-2.38c0.778,-0.591 1.789,-0.887 3.034,-0.887c1.307,0 2.365,0.296 3.174,0.887c0.809,0.591 1.369,1.384 1.68,2.38l19.697,57.222c0.497,1.494 0.529,2.754 0.093,3.781c-0.436,1.027 -1.463,1.54 -3.081,1.54c-1.058,0.062 -1.913,-0.233 -2.567,-0.887c-0.653,-0.653 -1.135,-1.509 -1.447,-2.567l-5.134,-14.282l-24.737,0ZM57.966,205.69l-10.642,-32.019l-10.641,32.019l21.283,0Z" style="fill:#fff;fill-rule:nonzero;"/><path d="M113.135,230.894c-4.668,0 -8.931,-0.778 -12.789,-2.334c-3.858,-1.556 -7.157,-3.796 -9.895,-6.721c-2.738,-2.925 -4.854,-6.488 -6.348,-10.689c-1.493,-4.2 -2.24,-8.945 -2.24,-14.235c0,-4.605 0.731,-8.961 2.194,-13.069c1.462,-4.107 3.469,-7.685 6.021,-10.735c2.551,-3.049 5.616,-5.461 9.194,-7.234c3.579,-1.774 7.515,-2.661 11.809,-2.661c2.24,0 4.387,0.249 6.441,0.747c2.054,0.498 3.921,1.152 5.601,1.961c1.68,0.809 3.174,1.726 4.48,2.753c1.307,1.027 2.365,2.07 3.174,3.127c0.623,1.183 0.872,2.21 0.747,3.081c-0.124,0.498 -0.389,0.918 -0.793,1.26c-0.405,0.342 -0.949,0.576 -1.634,0.7c-0.747,0.187 -1.665,-0.078 -2.754,-0.793c-1.089,-0.716 -2.38,-1.54 -3.874,-2.474c-1.493,-0.933 -3.205,-1.805 -5.134,-2.614c-1.929,-0.809 -4.107,-1.213 -6.534,-1.213c-3.361,0 -6.379,0.809 -9.055,2.427c-2.676,1.618 -4.947,3.703 -6.814,6.254c-1.867,2.552 -3.298,5.461 -4.294,8.728c-0.996,3.267 -1.494,6.519 -1.494,9.755c0,3.983 0.545,7.654 1.634,11.015c1.089,3.361 2.66,6.27 4.714,8.728c2.054,2.458 4.574,4.356 7.561,5.694c2.987,1.338 6.348,2.007 10.082,2.007c2.987,-0.062 5.523,-0.591 7.607,-1.587c2.085,-0.995 4.03,-2.302 5.835,-3.92c1.369,-1.058 2.551,-1.494 3.547,-1.307c0.933,0.249 1.618,0.7 2.054,1.353c0.435,0.654 0.622,1.323 0.56,2.007c-0.063,0.685 -0.607,1.587 -1.634,2.707c-1.027,1.121 -2.427,2.225 -4.201,3.314c-1.773,1.089 -3.842,2.023 -6.207,2.801c-2.365,0.778 -4.885,1.167 -7.561,1.167Z" style="fill:#fff;fill-rule:nonzero;"/><path d="M174.837,230.894c-4.667,0 -8.93,-0.778 -12.788,-2.334c-3.859,-1.556 -7.157,-3.796 -9.895,-6.721c-2.738,-2.925 -4.854,-6.488 -6.348,-10.689c-1.493,-4.2 -2.24,-8.945 -2.24,-14.235c0,-4.605 0.731,-8.961 2.194,-13.069c1.462,-4.107 3.469,-7.685 6.021,-10.735c2.551,-3.049 5.616,-5.461 9.194,-7.234c3.579,-1.774 7.515,-2.661 11.809,-2.661c2.24,0 4.387,0.249 6.441,0.747c2.053,0.498 3.92,1.152 5.601,1.961c1.68,0.809 3.173,1.726 4.48,2.753c1.307,1.027 2.365,2.07 3.174,3.127c0.622,1.183 0.871,2.21 0.747,3.081c-0.125,0.498 -0.389,0.918 -0.794,1.26c-0.404,0.342 -0.949,0.576 -1.633,0.7c-0.747,0.187 -1.665,-0.078 -2.754,-0.793c-1.089,-0.716 -2.38,-1.54 -3.874,-2.474c-1.493,-0.933 -3.205,-1.805 -5.134,-2.614c-1.929,-0.809 -4.107,-1.213 -6.534,-1.213c-3.361,0 -6.379,0.809 -9.055,2.427c-2.676,1.618 -4.947,3.703 -6.814,6.254c-1.867,2.552 -3.299,5.461 -4.294,8.728c-0.996,3.267 -1.494,6.519 -1.494,9.755c0,3.983 0.545,7.654 1.634,11.015c1.089,3.361 2.66,6.27 4.714,8.728c2.053,2.458 4.574,4.356 7.561,5.694c2.987,1.338 6.348,2.007 10.081,2.007c2.988,-0.062 5.523,-0.591 7.608,-1.587c2.085,-0.995 4.03,-2.302 5.834,-3.92c1.37,-1.058 2.552,-1.494 3.548,-1.307c0.933,0.249 1.618,0.7 2.053,1.353c0.436,0.654 0.623,1.323 0.56,2.007c-0.062,0.685 -0.606,1.587 -1.633,2.707c-1.027,1.121 -2.427,2.225 -4.201,3.314c-1.773,1.089 -3.843,2.023 -6.207,2.801c-2.365,0.778 -4.886,1.167 -7.562,1.167Z" style="fill:#fff;fill-rule:nonzero;"/><path d="M214.697,222.586l23.99,0c0.996,0 1.945,0.015 2.847,0.046c0.903,0.031 1.696,0.14 2.381,0.327c0.684,0.187 1.229,0.498 1.633,0.933c0.405,0.436 0.607,1.058 0.607,1.867c0,1.307 -0.342,2.179 -1.027,2.614c-0.684,0.436 -1.805,0.654 -3.36,0.654l-30.152,0c-1.431,0 -2.504,-0.265 -3.22,-0.794c-0.716,-0.529 -1.074,-1.602 -1.074,-3.22l0,-55.822c0,-1.494 0.312,-2.536 0.934,-3.127c0.622,-0.592 1.742,-0.887 3.36,-0.887l29.592,0c1.306,0 2.287,0.233 2.94,0.7c0.654,0.467 1.011,1.322 1.074,2.567c0,1.182 -0.343,2.007 -1.027,2.474c-0.685,0.466 -1.681,0.7 -2.987,0.7l-26.511,0l0,21.19l25.577,0c1.431,0 2.458,0.249 3.081,0.746c0.622,0.498 0.933,1.37 0.933,2.614c0,1.183 -0.311,1.992 -0.933,2.427c-0.623,0.436 -1.65,0.654 -3.081,0.654l-25.577,0l0,23.337Z" style="fill:#fff;fill-rule:nonzero;"/><path d="M266.692,179.832c0,1.743 0.404,3.236 1.213,4.481c0.809,1.245 1.867,2.334 3.174,3.267c1.307,0.934 2.816,1.805 4.527,2.614c1.712,0.809 3.47,1.618 5.274,2.427c2.365,1.058 4.481,2.147 6.348,3.267c1.867,1.12 3.454,2.396 4.761,3.827c1.307,1.432 2.302,3.081 2.987,4.948c0.684,1.867 1.027,4.045 1.027,6.534c0,2.738 -0.498,5.274 -1.494,7.608c-0.996,2.334 -2.396,4.356 -4.2,6.068c-1.805,1.711 -3.968,3.049 -6.488,4.014c-2.521,0.964 -5.274,1.478 -8.261,1.54c-2.365,0.062 -4.683,-0.202 -6.955,-0.794c-2.271,-0.591 -4.309,-1.322 -6.114,-2.193c-2.676,-1.369 -4.419,-2.801 -5.228,-4.294c-0.809,-1.494 -0.809,-2.801 0,-3.921c0.685,-0.871 1.478,-1.276 2.381,-1.213c0.902,0.062 1.882,0.435 2.94,1.12c1.867,1.244 3.905,2.318 6.115,3.22c2.209,0.903 4.62,1.354 7.234,1.354c1.618,0 3.189,-0.311 4.714,-0.934c1.525,-0.622 2.878,-1.462 4.061,-2.52c1.182,-1.058 2.131,-2.334 2.847,-3.827c0.715,-1.494 1.073,-3.112 1.073,-4.854c0,-1.743 -0.342,-3.314 -1.027,-4.715c-0.684,-1.4 -1.586,-2.644 -2.707,-3.733c-1.12,-1.089 -2.38,-2.023 -3.78,-2.801c-1.4,-0.778 -2.785,-1.447 -4.154,-2.007c-2.552,-0.996 -4.917,-2.022 -7.095,-3.08c-2.178,-1.058 -4.06,-2.272 -5.647,-3.641c-1.587,-1.369 -2.816,-3.003 -3.687,-4.901c-0.872,-1.898 -1.307,-4.216 -1.307,-6.954c0,-2.489 0.498,-4.745 1.493,-6.768c0.996,-2.022 2.318,-3.734 3.968,-5.134c1.649,-1.4 3.547,-2.458 5.694,-3.174c2.147,-0.715 4.403,-1.073 6.767,-1.073c2.365,0 4.668,0.327 6.908,0.98c2.241,0.653 4.154,1.462 5.741,2.427c1.587,0.965 2.723,2.054 3.407,3.267c0.685,1.214 0.685,2.412 0,3.594c-0.56,0.934 -1.4,1.385 -2.52,1.354c-1.12,-0.031 -2.147,-0.389 -3.081,-1.074c-1.244,-0.871 -2.8,-1.758 -4.667,-2.66c-1.867,-0.903 -3.796,-1.323 -5.788,-1.26c-3.173,0 -5.709,0.902 -7.607,2.707c-1.898,1.804 -2.847,4.107 -2.847,6.907Z" style="fill:#fff;fill-rule:nonzero;"/><path d="M315.139,179.832c0,1.743 0.404,3.236 1.214,4.481c0.809,1.245 1.866,2.334 3.173,3.267c1.307,0.934 2.816,1.805 4.528,2.614c1.711,0.809 3.469,1.618 5.274,2.427c2.365,1.058 4.481,2.147 6.347,3.267c1.867,1.12 3.454,2.396 4.761,3.827c1.307,1.432 2.303,3.081 2.987,4.948c0.685,1.867 1.027,4.045 1.027,6.534c0,2.738 -0.498,5.274 -1.493,7.608c-0.996,2.334 -2.396,4.356 -4.201,6.068c-1.805,1.711 -3.967,3.049 -6.488,4.014c-2.52,0.964 -5.274,1.478 -8.261,1.54c-2.365,0.062 -4.683,-0.202 -6.954,-0.794c-2.272,-0.591 -4.31,-1.322 -6.115,-2.193c-2.676,-1.369 -4.418,-2.801 -5.227,-4.294c-0.809,-1.494 -0.809,-2.801 0,-3.921c0.684,-0.871 1.478,-1.276 2.38,-1.213c0.903,0.062 1.883,0.435 2.941,1.12c1.867,1.244 3.905,2.318 6.114,3.22c2.209,0.903 4.621,1.354 7.234,1.354c1.618,0 3.19,-0.311 4.714,-0.934c1.525,-0.622 2.879,-1.462 4.061,-2.52c1.182,-1.058 2.132,-2.334 2.847,-3.827c0.716,-1.494 1.074,-3.112 1.074,-4.854c0,-1.743 -0.343,-3.314 -1.027,-4.715c-0.685,-1.4 -1.587,-2.644 -2.707,-3.733c-1.12,-1.089 -2.381,-2.023 -3.781,-2.801c-1.4,-0.778 -2.785,-1.447 -4.154,-2.007c-2.551,-0.996 -4.916,-2.022 -7.094,-3.08c-2.178,-1.058 -4.061,-2.272 -5.648,-3.641c-1.587,-1.369 -2.816,-3.003 -3.687,-4.901c-0.871,-1.898 -1.307,-4.216 -1.307,-6.954c0,-2.489 0.498,-4.745 1.494,-6.768c0.995,-2.022 2.318,-3.734 3.967,-5.134c1.649,-1.4 3.547,-2.458 5.694,-3.174c2.147,-0.715 4.403,-1.073 6.768,-1.073c2.365,0 4.667,0.327 6.908,0.98c2.24,0.653 4.154,1.462 5.741,2.427c1.586,0.965 2.722,2.054 3.407,3.267c0.684,1.214 0.684,2.412 0,3.594c-0.56,0.934 -1.4,1.385 -2.521,1.354c-1.12,-0.031 -2.147,-0.389 -3.08,-1.074c-1.245,-0.871 -2.801,-1.758 -4.668,-2.66c-1.866,-0.903 -3.796,-1.323 -5.787,-1.26c-3.174,0 -5.71,0.902 -7.608,2.707c-1.898,1.804 -2.847,4.107 -2.847,6.907Z" style="fill:#fff;fill-rule:nonzero;"/><path d="M448.346,224.639c0.187,1.307 0.14,2.505 -0.14,3.594c-0.28,1.089 -1.291,1.665 -3.034,1.727c-1.12,0 -1.929,-0.327 -2.427,-0.98c-0.498,-0.654 -0.871,-1.758 -1.12,-3.314l-5.414,-37.246c-0.187,-1.182 -0.42,-2.645 -0.7,-4.387c-0.28,-1.743 -0.591,-3.252 -0.934,-4.527c-0.342,-1.276 -0.715,-2.101 -1.12,-2.474c-0.404,-0.373 -0.824,0.187 -1.26,1.68l-13.909,47.888c-0.311,1.182 -0.7,2.038 -1.167,2.567c-0.466,0.529 -1.198,0.793 -2.193,0.793c-1.058,0 -1.805,-0.233 -2.241,-0.7c-0.435,-0.467 -0.84,-1.354 -1.213,-2.66c-2.365,-8.028 -4.745,-15.994 -7.141,-23.897c-2.396,-7.904 -4.714,-15.87 -6.955,-23.897c-0.435,-1.494 -0.887,-2.241 -1.353,-2.241c-0.467,0 -0.825,0.747 -1.074,2.241l-6.907,46.673c-0.187,1.432 -0.545,2.536 -1.074,3.314c-0.529,0.778 -1.509,1.167 -2.94,1.167c-2.365,0 -3.268,-1.556 -2.708,-4.667l8.495,-55.542c0.249,-1.867 0.856,-3.267 1.82,-4.201c0.965,-0.933 2.225,-1.4 3.781,-1.4c1.556,0 2.847,0.404 3.874,1.213c1.027,0.809 1.851,2.241 2.474,4.294l13.255,46.768l12.975,-46.861c0.56,-1.991 1.354,-3.392 2.381,-4.201c1.027,-0.809 2.287,-1.213 3.78,-1.213c1.494,0 2.754,0.467 3.781,1.4c1.027,0.934 1.696,2.365 2.007,4.294l8.401,54.795Z" style="fill:#fff;fill-rule:nonzero;"/><path d="M480.738,226.226c0,1.183 -0.28,2.1 -0.84,2.754c-0.56,0.653 -1.494,0.98 -2.801,0.98c-1.369,0 -2.318,-0.342 -2.847,-1.027c-0.529,-0.684 -0.793,-1.587 -0.793,-2.707l0,-25.764l-17.176,-30.338c-0.623,-1.12 -0.887,-2.162 -0.794,-3.127c0.094,-0.965 0.545,-1.696 1.354,-2.194c0.809,-0.497 1.68,-0.715 2.614,-0.653c0.933,0.062 1.742,0.716 2.427,1.96l15.309,27.444l14.842,-26.79c0.435,-0.747 0.918,-1.323 1.447,-1.727c0.529,-0.405 1.042,-0.669 1.54,-0.794c0.498,-0.124 0.965,-0.14 1.4,-0.046c0.436,0.093 0.809,0.233 1.12,0.42c0.872,0.622 1.323,1.369 1.354,2.24c0.031,0.871 -0.296,1.929 -0.98,3.174l-17.176,30.431l0,25.764Z" style="fill:#fff;fill-rule:nonzero;"/><path d="M543.281,226.413c0,2.365 -1.245,3.547 -3.734,3.547c-2.365,0 -3.547,-1.151 -3.547,-3.454l0,-58.902c0,-2.303 1.182,-3.454 3.547,-3.454c1.244,0 2.178,0.264 2.8,0.793c0.623,0.529 0.934,1.416 0.934,2.661l0,58.809Z" style="fill:#fff;fill-rule:nonzero;"/><path d="M568.205,226.226c0,1.058 -0.312,1.945 -0.934,2.661c-0.622,0.715 -1.556,1.073 -2.8,1.073c-1.245,0 -2.163,-0.358 -2.754,-1.073c-0.591,-0.716 -0.887,-1.603 -0.887,-2.661l0,-58.436c0,-1.057 0.233,-1.929 0.7,-2.613c0.467,-0.685 1.323,-1.027 2.567,-1.027c0.996,0 1.774,0.28 2.334,0.84c0.56,0.56 1.12,1.182 1.68,1.867l33.512,49.008l0,-48.075c0,-1.057 0.265,-1.929 0.793,-2.613c0.529,-0.685 1.478,-1.027 2.848,-1.027c1.369,0 2.333,0.311 2.893,0.933c0.56,0.623 0.841,1.525 0.841,2.707l0,58.529c0,1.058 -0.234,1.93 -0.701,2.614c-0.466,0.685 -1.322,1.027 -2.567,1.027c-0.871,0 -1.633,-0.264 -2.287,-0.793c-0.653,-0.529 -1.26,-1.198 -1.82,-2.007l-33.418,-48.168l0,47.234Z" style="fill:#fff;fill-rule:nonzero;"/><path d="M656.231,192.808c1.992,0 3.174,0.622 3.548,1.867c0.311,0.684 0.28,1.462 -0.094,2.333c-0.373,1.556 -1.524,2.334 -3.454,2.334l-23.523,0l0,27.258c0,1.057 -0.28,1.882 -0.84,2.473c-0.56,0.591 -1.556,0.887 -2.987,0.887c-1.37,0 -2.303,-0.296 -2.801,-0.887c-0.498,-0.591 -0.747,-1.416 -0.747,-2.473l0,-57.409c0,-1.556 0.312,-2.614 0.934,-3.174c0.622,-0.56 1.742,-0.84 3.36,-0.84l29.218,0c2.614,0 3.921,1.12 3.921,3.36c0,1.245 -0.327,2.101 -0.98,2.567c-0.654,0.467 -1.665,0.7 -3.034,0.7l-26.044,0l0,21.004l23.523,0Z" style="fill:#fff;fill-rule:nonzero;"/><path d="M700.758,163.216c4.73,0 8.853,0.903 12.369,2.708c3.516,1.804 6.441,4.247 8.775,7.327c2.333,3.081 4.091,6.675 5.274,10.782c1.182,4.107 1.773,8.432 1.773,12.975c0,4.605 -0.575,8.946 -1.727,13.022c-1.151,4.077 -2.893,7.67 -5.227,10.782c-2.334,3.112 -5.259,5.57 -8.775,7.374c-3.516,1.805 -7.67,2.708 -12.462,2.708c-4.667,0 -8.774,-0.903 -12.322,-2.708c-3.547,-1.804 -6.487,-4.247 -8.821,-7.327c-2.334,-3.081 -4.092,-6.675 -5.274,-10.782c-1.183,-4.107 -1.774,-8.464 -1.774,-13.069c0,-4.543 0.56,-8.868 1.681,-12.975c1.12,-4.107 2.847,-7.701 5.18,-10.782c2.334,-3.08 5.274,-5.523 8.822,-7.327c3.547,-1.805 7.716,-2.708 12.508,-2.708ZM700.758,224.172c3.485,0 6.535,-0.653 9.148,-1.96c2.614,-1.307 4.792,-3.143 6.535,-5.507c1.742,-2.365 3.049,-5.197 3.92,-8.495c0.872,-3.298 1.307,-6.939 1.307,-10.922c0,-3.609 -0.404,-7.063 -1.213,-10.361c-0.809,-3.299 -2.07,-6.223 -3.781,-8.775c-1.711,-2.551 -3.889,-4.59 -6.534,-6.114c-2.645,-1.525 -5.772,-2.287 -9.382,-2.287c-3.609,0 -6.736,0.762 -9.381,2.287c-2.645,1.524 -4.823,3.547 -6.535,6.067c-1.711,2.521 -2.971,5.415 -3.78,8.682c-0.809,3.267 -1.214,6.674 -1.214,10.221c0,3.485 0.405,6.846 1.214,10.082c0.809,3.236 2.054,6.13 3.734,8.681c1.68,2.552 3.843,4.59 6.487,6.114c2.645,1.525 5.804,2.287 9.475,2.287Z" style="fill:#fff;fill-rule:nonzero;"/></g></svg>